{"glyphs":{"0":{"ha":765,"x_min":79,"x_max":742,"o":"m 742 688 q 690 325 742 490 q 545 73 637 160 q 328 -14 452 -14 q 143 74 206 -14 q 79 323 79 161 q 135 673 79 509 q 281 922 190 838 q 492 1007 372 1007 q 742 688 742 1007 m 485 903 q 347 826 410 903 q 243 607 283 749 q 203 323 203 465 q 236 151 203 211 q 342 90 269 90 q 478 164 416 90 q 578 384 539 239 q 616 690 616 529 q 485 903 616 903 z "},"1":{"ha":765,"x_min":199,"x_max":616,"o":"m 404 0 l 281 0 l 412 614 q 471 852 443 759 q 378 779 433 813 l 256 703 l 199 794 l 510 991 l 616 991 l 404 0 z "},"2":{"ha":765,"x_min":4,"x_max":733,"o":"m 618 0 l 4 0 l 26 104 l 342 389 q 523 563 480 513 q 586 659 566 614 q 606 760 606 705 q 566 863 606 825 q 458 901 527 901 q 355 881 405 901 q 245 815 305 860 l 187 899 q 472 1006 319 1006 q 664 944 594 1006 q 733 779 733 883 q 708 646 733 707 q 623 515 682 584 q 419 319 564 447 l 186 117 l 186 111 l 639 111 l 618 0 z "},"3":{"ha":765,"x_min":31,"x_max":729,"o":"m 729 786 q 661 607 729 681 q 472 511 593 533 l 472 505 q 606 432 559 489 q 653 292 653 374 q 610 133 653 201 q 486 25 568 64 q 292 -14 404 -14 q 31 40 148 -14 l 31 158 q 159 107 88 126 q 293 89 229 89 q 463 142 402 89 q 524 286 524 195 q 472 417 524 372 q 323 461 420 461 l 235 461 l 256 562 l 346 562 q 531 620 458 562 q 604 771 604 677 q 567 867 604 831 q 463 903 530 903 q 346 881 399 903 q 240 822 292 859 l 183 908 q 473 1006 315 1006 q 661 947 593 1006 q 729 786 729 889 z "},"4":{"ha":765,"x_min":8,"x_max":745,"o":"m 721 225 l 567 225 l 518 0 l 400 0 l 449 225 l 8 225 l 29 336 l 589 991 l 729 991 l 591 334 l 745 334 l 721 225 m 472 334 l 522 571 q 600 867 542 662 l 595 867 q 548 799 580 842 q 500 737 516 756 l 154 334 l 472 334 z "},"5":{"ha":765,"x_min":52,"x_max":745,"o":"m 407 607 q 604 536 532 607 q 676 345 676 465 q 626 152 676 236 q 488 27 576 68 q 278 -14 399 -14 q 52 40 142 -14 l 52 158 q 278 89 163 89 q 477 152 405 89 q 549 329 549 215 q 499 461 549 413 q 363 510 450 510 q 303 506 332 510 q 204 485 274 502 l 153 525 l 288 991 l 745 991 l 721 880 l 370 880 l 286 593 q 407 607 352 607 z "},"6":{"ha":765,"x_min":87,"x_max":758,"o":"m 87 290 q 129 573 87 432 q 243 812 171 714 q 410 958 315 911 q 631 1006 505 1006 q 758 990 706 1006 l 733 885 q 616 901 683 901 q 376 802 472 901 q 235 509 280 703 l 240 509 q 339 592 280 561 q 469 624 397 624 q 634 557 574 624 q 694 374 694 490 q 649 173 694 264 q 525 34 603 81 q 349 -14 448 -14 q 155 65 223 -14 q 87 290 87 144 m 361 89 q 471 125 422 89 q 547 224 519 161 q 574 363 574 288 q 428 525 574 525 q 344 506 385 525 q 271 455 303 488 q 224 384 239 422 q 208 282 208 345 q 249 140 208 191 q 361 89 289 89 z "},"7":{"ha":765,"x_min":113,"x_max":781,"o":"m 113 0 l 631 884 l 149 884 l 171 991 l 781 991 l 762 895 l 244 0 l 113 0 z "},"8":{"ha":765,"x_min":62,"x_max":754,"o":"m 501 1007 q 687 948 621 1007 q 754 787 754 889 q 701 634 754 700 q 522 517 647 569 q 642 407 605 467 q 679 268 679 347 q 638 120 679 185 q 521 21 597 56 q 342 -14 445 -14 q 137 53 212 -14 q 62 235 62 119 q 125 407 62 334 q 325 533 189 481 q 235 627 264 576 q 207 746 207 678 q 245 883 207 823 q 350 975 283 943 q 501 1007 418 1007 m 411 471 q 241 378 292 433 q 189 241 189 322 q 234 129 189 171 q 354 87 279 87 q 460 110 415 87 q 530 174 505 133 q 554 265 554 215 q 519 381 554 332 q 411 471 485 431 m 492 904 q 372 861 417 904 q 328 746 328 818 q 353 651 328 694 q 437 572 378 609 q 585 659 540 610 q 631 775 631 707 q 593 869 631 835 q 492 904 555 904 z "},"9":{"ha":765,"x_min":65,"x_max":725,"o":"m 725 700 q 687 424 725 568 q 588 181 650 280 q 436 35 526 83 q 229 -14 346 -14 q 65 9 137 -14 l 65 122 q 232 92 160 92 q 451 184 368 92 q 578 476 534 277 l 571 476 q 482 398 536 427 q 359 368 427 368 q 182 435 244 368 q 121 631 121 503 q 165 821 121 734 q 288 957 209 907 q 467 1006 367 1006 q 657 928 589 1006 q 725 700 725 851 m 460 903 q 301 828 361 903 q 241 636 241 753 q 277 510 241 554 q 385 467 313 467 q 495 496 446 467 q 574 580 545 526 q 604 717 604 635 q 566 853 604 803 q 460 903 527 903 z "},"\u0000":{"ha":0,"x_min":0,"x_max":0,"o":""},"\r":{"ha":708,"x_min":0,"x_max":0,"o":""}," ":{"ha":361,"x_min":0,"x_max":0,"o":""},"!":{"ha":363,"x_min":28,"x_max":382,"o":"m 382 991 l 197 279 l 115 279 l 233 991 l 382 991 m 28 56 q 56 137 28 106 q 132 168 85 168 q 183 149 163 168 q 203 93 203 130 q 175 13 203 45 q 102 -20 148 -20 q 47 0 66 -20 q 28 56 28 20 z "},"\"":{"ha":545,"x_min":151,"x_max":572,"o":"m 334 991 l 229 633 l 151 633 l 200 991 l 334 991 m 572 991 l 468 633 l 390 633 l 439 991 l 572 991 z "},"#":{"ha":897,"x_min":41,"x_max":908,"o":"m 703 607 l 637 382 l 829 382 l 821 290 l 611 290 l 528 0 l 428 0 l 515 290 l 315 290 l 231 0 l 135 0 l 216 290 l 41 290 l 50 382 l 243 382 l 310 607 l 123 607 l 132 697 l 335 697 l 418 991 l 518 991 l 433 697 l 633 697 l 720 991 l 814 991 l 730 697 l 908 697 l 899 607 l 703 607 m 342 382 l 542 382 l 604 607 l 406 607 l 342 382 z "},"$":{"ha":765,"x_min":47,"x_max":729,"o":"m 644 334 q 567 155 644 224 q 354 71 490 86 l 321 -81 l 231 -81 l 264 69 q 47 119 132 79 l 47 231 q 162 188 98 204 q 283 170 226 171 l 349 468 q 209 554 252 503 q 165 684 165 605 q 240 858 165 792 q 446 935 315 923 l 472 1053 l 562 1053 l 538 933 q 729 882 645 925 l 684 783 q 517 833 602 827 l 454 543 q 601 457 557 505 q 644 334 644 409 m 375 174 q 487 223 446 182 q 528 323 528 263 q 506 388 528 360 q 432 436 484 415 l 375 174 m 425 833 q 315 786 352 824 q 278 686 278 747 q 371 575 278 610 l 425 833 m 676 991 z "},"%":{"ha":1109,"x_min":111,"x_max":1048,"o":"m 367 916 q 288 874 323 916 q 232 749 254 832 q 211 586 211 665 q 281 475 211 475 q 357 518 323 475 q 415 649 392 562 q 437 807 437 737 q 367 916 437 916 m 538 815 q 516 655 538 742 q 460 508 495 568 q 378 416 426 449 q 271 383 330 383 q 153 435 195 383 q 111 585 111 486 q 146 802 111 698 q 239 956 181 905 q 375 1006 298 1006 q 496 957 455 1006 q 538 815 538 907 m 1002 991 l 265 0 l 157 0 l 893 991 l 1002 991 m 876 518 q 799 477 833 518 q 744 352 765 435 q 722 189 722 268 q 790 78 722 78 q 867 120 833 78 q 924 252 901 163 q 947 410 947 340 q 876 518 947 518 m 1048 419 q 1028 260 1048 346 q 972 114 1007 174 q 889 20 938 54 q 781 -14 841 -14 q 662 37 704 -14 q 621 186 621 87 q 655 403 621 301 q 748 557 690 505 q 885 608 807 608 q 1007 559 965 608 q 1048 419 1048 511 z "},"&":{"ha":935,"x_min":45,"x_max":896,"o":"m 840 0 l 696 0 l 619 109 q 463 14 537 42 q 300 -14 388 -14 q 114 52 182 -14 q 45 233 45 117 q 105 407 45 333 q 309 550 165 481 q 240 757 240 659 q 313 938 240 869 q 507 1007 386 1007 q 668 953 608 1007 q 728 808 728 899 q 702 707 728 752 q 627 624 675 663 q 458 525 579 586 l 642 269 q 774 469 722 340 l 896 469 q 703 184 827 305 l 840 0 m 359 475 q 243 401 281 434 q 185 330 205 369 q 165 241 165 292 q 210 129 165 171 q 323 87 254 87 q 437 110 382 87 q 561 189 492 133 l 359 475 m 410 602 q 534 673 500 647 q 589 730 568 699 q 610 799 610 761 q 582 878 610 848 q 501 908 555 908 q 394 868 432 908 q 357 757 357 828 q 410 602 357 675 z "},"'":{"ha":306,"x_min":151,"x_max":334,"o":"m 334 991 l 229 633 l 151 633 l 200 991 l 334 991 z "},"(":{"ha":403,"x_min":56,"x_max":510,"o":"m 56 184 q 139 614 56 417 q 397 991 222 810 l 510 991 q 172 186 172 620 q 250 -220 172 -43 l 155 -220 q 56 184 56 -44 z "},")":{"ha":403,"x_min":-107,"x_max":346,"o":"m 346 586 q 263 156 346 351 q 4 -220 180 -39 l -107 -220 q 229 586 229 154 q 153 991 229 818 l 248 991 q 346 586 346 810 z "},"*":{"ha":765,"x_min":143,"x_max":782,"o":"m 581 1036 l 498 778 l 782 791 l 777 677 l 513 710 l 633 453 l 517 416 l 441 688 l 271 458 l 186 543 l 393 733 l 143 807 l 182 916 l 432 791 l 460 1060 l 581 1036 z "},"+":{"ha":765,"x_min":85,"x_max":711,"o":"m 347 439 l 85 439 l 85 541 l 347 541 l 347 804 l 449 804 l 449 541 l 711 541 l 711 439 l 449 439 l 449 178 l 347 178 l 347 439 z "},",":{"ha":355,"x_min":-60,"x_max":216,"o":"m 211 161 l 216 146 q 33 -179 150 3 l -60 -179 q 78 161 3 -38 l 211 161 z "},"-":{"ha":435,"x_min":36,"x_max":389,"o":"m 36 315 l 61 428 l 389 428 l 364 315 l 36 315 z "},".":{"ha":355,"x_min":28,"x_max":203,"o":"m 28 53 q 57 136 28 104 q 135 168 85 168 q 184 150 165 168 q 203 94 203 131 q 175 13 203 45 q 100 -20 147 -20 q 46 -1 65 -20 q 28 53 28 18 z "},"/":{"ha":494,"x_min":-64,"x_max":612,"o":"m 612 991 l 62 0 l -64 0 l 488 991 l 612 991 z "},":":{"ha":355,"x_min":28,"x_max":313,"o":"m 28 53 q 57 136 28 104 q 135 168 85 168 q 184 150 165 168 q 203 94 203 131 q 175 13 203 45 q 100 -20 147 -20 q 46 -1 65 -20 q 28 53 28 18 m 138 647 q 166 732 138 700 q 244 764 195 764 q 294 746 275 764 q 313 690 313 728 q 285 609 313 642 q 210 576 258 576 q 156 595 175 576 q 138 647 138 614 z "},";":{"ha":355,"x_min":-68,"x_max":313,"o":"m 208 146 q 25 -179 142 3 l -68 -179 q 69 161 11 -1 l 203 161 l 208 146 m 138 647 q 166 732 138 700 q 244 764 195 764 q 294 746 275 764 q 313 690 313 728 q 285 609 313 642 q 210 576 258 576 q 156 595 175 576 q 138 647 138 614 z "},"<":{"ha":765,"x_min":81,"x_max":707,"o":"m 707 161 l 81 449 l 81 518 l 707 844 l 707 737 l 207 489 l 707 269 l 707 161 z "},"=":{"ha":765,"x_min":85,"x_max":711,"o":"m 85 554 l 85 654 l 711 654 l 711 554 l 85 554 m 85 323 l 85 424 l 711 424 l 711 323 l 85 323 z "},">":{"ha":765,"x_min":81,"x_max":707,"o":"m 81 269 l 581 489 l 81 737 l 81 844 l 707 518 l 707 449 l 81 161 l 81 269 z "},"?":{"ha":597,"x_min":107,"x_max":631,"o":"m 176 279 q 227 427 191 370 q 339 543 263 484 q 448 634 420 604 q 492 697 476 665 q 507 772 507 730 q 474 866 507 833 q 376 900 440 900 q 273 882 323 900 q 176 843 222 865 l 132 936 q 261 987 193 968 q 390 1006 328 1006 q 568 949 505 1006 q 631 787 631 892 q 588 636 631 705 q 432 484 545 567 q 318 384 345 420 q 275 279 291 347 l 176 279 m 107 53 q 135 136 107 104 q 214 168 163 168 q 263 150 244 168 q 282 94 282 131 q 254 13 282 45 q 179 -20 227 -20 q 126 -1 144 -20 q 107 53 107 18 z "},"@":{"ha":1178,"x_min":74,"x_max":1141,"o":"m 1141 576 q 1103 357 1141 455 q 997 203 1065 258 q 846 147 929 147 q 700 271 713 147 l 694 271 q 500 147 623 147 q 377 199 422 147 q 332 342 332 250 q 377 533 332 447 q 504 670 422 620 q 682 720 586 720 q 771 711 728 720 q 873 679 814 703 l 808 431 q 786 311 786 353 q 852 235 786 235 q 944 276 902 235 q 1013 397 986 317 q 1040 567 1040 477 q 954 813 1040 728 q 704 899 867 899 q 432 828 553 899 q 245 629 312 757 q 178 347 178 502 q 275 65 178 164 q 550 -33 373 -33 q 691 -18 614 -33 q 836 25 768 -2 l 836 -65 q 534 -126 689 -126 q 290 -70 395 -126 q 130 93 185 -13 q 74 342 74 199 q 160 674 74 522 q 394 908 247 825 q 722 990 542 990 q 947 939 853 990 q 1092 794 1042 888 q 1141 576 1141 700 m 668 633 q 552 596 606 633 q 468 494 498 559 q 437 351 437 429 q 525 235 437 235 q 705 446 647 235 l 751 618 q 668 633 713 633 z "},"A":{"ha":781,"x_min":-79,"x_max":713,"o":"m 553 309 l 218 309 l 57 0 l -79 0 l 460 991 l 590 991 l 713 0 l 590 0 l 553 309 m 541 419 l 518 627 q 500 860 500 781 q 452 755 478 808 q 278 419 427 703 l 541 419 z "},"B":{"ha":833,"x_min":57,"x_max":818,"o":"m 524 991 q 744 934 669 991 q 818 764 818 876 q 760 603 818 668 q 595 517 702 537 l 595 510 q 713 436 672 488 q 754 309 754 383 q 652 83 754 165 q 374 0 551 0 l 57 0 l 267 991 l 524 991 m 301 570 l 464 570 q 628 617 567 570 q 689 749 689 665 q 647 850 689 814 q 509 885 605 885 l 368 885 l 301 570 m 203 106 l 378 106 q 560 158 496 106 q 624 309 624 211 q 575 426 624 385 q 435 467 527 467 l 279 467 l 203 106 z "},"C":{"ha":815,"x_min":100,"x_max":878,"o":"m 636 896 q 427 829 517 896 q 284 637 336 762 q 232 368 232 513 q 296 169 232 241 q 475 96 361 96 q 694 136 572 96 l 694 28 q 453 -14 584 -14 q 193 88 287 -14 q 100 366 100 189 q 170 692 100 540 q 362 925 241 844 q 636 1006 484 1006 q 878 950 776 1006 l 828 847 q 636 896 734 896 z "},"D":{"ha":926,"x_min":57,"x_max":884,"o":"m 884 596 q 813 282 884 418 q 610 73 743 146 q 301 0 477 0 l 57 0 l 267 991 l 501 991 q 786 890 688 991 q 884 596 884 789 m 309 107 q 544 169 443 107 q 699 341 645 230 q 753 597 753 453 q 685 812 753 739 q 486 885 617 885 l 368 885 l 203 107 l 309 107 z "},"E":{"ha":714,"x_min":57,"x_max":770,"o":"m 559 0 l 57 0 l 267 991 l 770 991 l 746 882 l 367 882 l 301 572 l 656 572 l 635 464 l 279 464 l 203 110 l 583 110 l 559 0 z "},"F":{"ha":663,"x_min":57,"x_max":770,"o":"m 180 0 l 57 0 l 267 991 l 770 991 l 747 882 l 367 882 l 293 529 l 648 529 l 625 419 l 269 419 l 180 0 z "},"G":{"ha":942,"x_min":100,"x_max":922,"o":"m 553 522 l 871 522 l 765 37 q 615 -2 683 9 q 476 -14 548 -14 q 199 85 298 -14 q 100 359 100 184 q 170 691 100 541 q 362 924 239 842 q 635 1006 484 1006 q 783 992 714 1006 q 922 947 852 979 l 875 839 q 764 879 823 862 q 633 896 705 896 q 428 828 521 896 q 284 639 336 760 q 232 368 232 518 q 299 168 232 240 q 489 96 367 96 q 660 121 585 96 l 724 414 l 529 414 l 553 522 z "},"H":{"ha":945,"x_min":58,"x_max":950,"o":"m 741 0 l 618 0 l 715 463 l 279 463 l 182 0 l 58 0 l 268 991 l 392 991 l 302 572 l 739 572 l 828 991 l 950 991 l 741 0 z "},"I":{"ha":450,"x_min":-28,"x_max":529,"o":"m 319 0 l -28 0 l -14 68 l 104 96 l 273 896 l 168 922 l 182 991 l 529 991 l 515 922 l 396 896 l 227 96 l 334 68 l 319 0 z "},"J":{"ha":379,"x_min":-216,"x_max":392,"o":"m -111 -264 q -216 -248 -182 -264 l -212 -140 q -114 -154 -165 -154 q 60 12 24 -154 l 268 991 l 392 991 l 182 -1 q -111 -264 126 -264 z "},"K":{"ha":781,"x_min":57,"x_max":904,"o":"m 708 0 l 572 0 l 379 481 l 264 396 l 180 0 l 57 0 l 267 991 l 390 991 l 288 510 l 374 602 l 754 991 l 904 991 l 473 555 l 708 0 z "},"L":{"ha":664,"x_min":57,"x_max":583,"o":"m 57 0 l 267 991 l 390 991 l 203 111 l 583 111 l 559 0 l 57 0 z "},"M":{"ha":1168,"x_min":56,"x_max":1173,"o":"m 542 182 l 982 991 l 1173 991 l 966 0 l 842 0 l 966 589 q 1034 871 1008 781 l 1031 871 l 553 0 l 454 0 l 349 869 l 343 869 q 298 596 333 764 l 172 0 l 56 0 l 265 991 l 440 991 l 536 182 l 542 182 z "},"N":{"ha":982,"x_min":56,"x_max":989,"o":"m 779 0 l 647 0 l 340 822 l 336 822 q 286 539 322 705 l 172 0 l 56 0 l 265 991 l 397 991 l 701 172 l 705 172 q 729 319 714 235 q 754 446 744 404 l 871 991 l 989 991 l 779 0 z "},"O":{"ha":1002,"x_min":100,"x_max":958,"o":"m 958 616 q 897 285 958 430 q 724 63 835 140 q 468 -14 614 -14 q 197 87 294 -14 q 100 371 100 189 q 164 697 100 549 q 343 926 229 845 q 602 1007 457 1007 q 864 903 769 1007 q 958 616 958 799 m 593 897 q 406 830 488 897 q 277 642 323 763 q 232 374 232 521 q 296 169 232 241 q 472 96 361 96 q 653 161 572 96 q 780 349 734 227 q 827 619 827 471 q 765 823 827 749 q 593 897 703 897 z "},"P":{"ha":787,"x_min":57,"x_max":787,"o":"m 787 733 q 676 476 787 566 q 351 387 565 387 l 262 387 l 180 0 l 57 0 l 267 991 l 490 991 q 712 927 637 991 q 787 733 787 862 m 285 492 l 371 492 q 587 553 513 492 q 661 729 661 614 q 615 848 661 812 q 473 885 569 885 l 368 885 l 285 492 z "},"Q":{"ha":1002,"x_min":100,"x_max":958,"o":"m 958 616 q 865 228 958 393 q 612 9 772 63 l 799 -236 l 640 -236 l 490 -12 l 479 -14 l 468 -14 q 197 87 294 -14 q 100 371 100 189 q 164 697 100 549 q 343 926 229 845 q 602 1007 457 1007 q 864 903 769 1007 q 958 616 958 799 m 593 897 q 406 830 488 897 q 277 642 323 763 q 232 374 232 521 q 296 169 232 241 q 472 96 361 96 q 654 160 574 96 q 780 346 734 225 q 827 619 827 467 q 765 823 827 749 q 593 897 703 897 z "},"R":{"ha":796,"x_min":57,"x_max":790,"o":"m 289 515 l 397 515 q 594 572 526 515 q 663 732 663 628 q 618 847 663 811 q 473 884 574 884 l 368 884 l 289 515 m 267 410 l 180 0 l 57 0 l 267 991 l 485 991 q 790 741 790 991 q 543 437 790 507 l 707 0 l 571 0 l 429 410 l 267 410 z "},"S":{"ha":701,"x_min":26,"x_max":721,"o":"m 621 288 q 526 66 621 146 q 257 -14 431 -14 q 26 31 119 -14 l 26 153 q 258 94 140 94 q 427 143 364 94 q 490 278 490 192 q 457 369 490 330 q 326 464 423 408 q 184 583 223 524 q 146 718 146 641 q 187 868 146 803 q 304 970 229 934 q 472 1006 380 1006 q 721 947 607 1006 l 673 842 q 576 881 630 866 q 472 896 522 896 q 331 850 385 896 q 278 726 278 804 q 304 639 278 673 q 419 553 331 604 q 551 459 516 494 q 603 384 585 425 q 621 288 621 342 z "},"T":{"ha":696,"x_min":125,"x_max":818,"o":"m 336 0 l 211 0 l 397 882 l 125 882 l 149 991 l 818 991 l 796 882 l 524 882 l 336 0 z "},"U":{"ha":940,"x_min":110,"x_max":956,"o":"m 956 991 l 817 338 q 680 72 779 157 q 416 -14 582 -14 q 185 58 261 -14 q 110 261 110 129 q 126 393 110 313 l 254 991 l 378 991 l 249 386 q 238 324 243 361 q 233 262 233 287 q 281 140 233 184 q 424 96 328 96 q 602 154 538 96 q 694 347 665 213 l 832 991 l 956 991 z "},"V":{"ha":766,"x_min":127,"x_max":895,"o":"m 328 140 q 435 366 366 233 l 757 991 l 895 991 l 367 0 l 235 0 l 127 991 l 250 991 l 313 364 q 326 168 326 245 l 325 140 l 328 140 z "},"W":{"ha":1189,"x_min":149,"x_max":1310,"o":"m 693 832 q 656 735 680 791 q 318 0 632 679 l 191 0 l 149 991 l 271 991 l 290 387 l 292 329 q 285 153 292 258 l 289 153 q 393 408 357 333 l 665 991 l 791 991 l 819 411 q 826 210 826 302 l 825 153 l 829 153 q 918 392 892 329 l 1178 991 l 1310 991 l 860 0 l 733 0 l 703 639 q 697 832 697 731 l 693 832 z "},"X":{"ha":732,"x_min":-72,"x_max":846,"o":"m 659 0 l 528 0 l 386 429 l 64 0 l -72 0 l 332 525 l 155 991 l 281 991 l 415 612 l 710 991 l 846 991 l 471 519 l 659 0 z "},"Y":{"ha":707,"x_min":127,"x_max":835,"o":"m 370 494 l 694 991 l 835 991 l 410 368 l 334 0 l 208 0 l 289 372 l 127 991 l 252 991 l 370 494 z "},"Z":{"ha":737,"x_min":-14,"x_max":796,"o":"m 603 0 l -14 0 l 5 97 l 624 880 l 186 880 l 210 991 l 796 991 l 778 893 l 160 111 l 625 111 l 603 0 z "},"[":{"ha":403,"x_min":-12,"x_max":514,"o":"m 256 -220 l -12 -220 l 245 991 l 514 991 l 492 892 l 339 892 l 125 -119 l 278 -119 l 256 -220 z "},"\\":{"ha":494,"x_min":150,"x_max":408,"o":"m 261 991 l 408 0 l 297 0 l 150 991 l 261 991 z "},"]":{"ha":403,"x_min":-100,"x_max":425,"o":"m -79 -119 l 74 -119 l 288 892 l 135 892 l 157 991 l 425 991 l 167 -220 l -100 -220 l -79 -119 z "},"^":{"ha":765,"x_min":57,"x_max":721,"o":"m 57 374 l 463 999 l 539 999 l 721 374 l 616 374 l 482 872 l 170 374 l 57 374 z "},"_":{"ha":549,"x_min":-127,"x_max":444,"o":"m 424 -220 l -127 -220 l -107 -125 l 444 -125 l 424 -220 z "},"`":{"ha":770,"x_min":386,"x_max":614,"o":"m 614 842 l 539 842 q 449 949 494 886 q 386 1050 404 1013 l 386 1064 l 517 1064 q 614 859 545 972 l 614 842 z "},"a":{"ha":789,"x_min":66,"x_max":764,"o":"m 268 -14 q 121 53 175 -14 q 66 240 66 119 q 114 499 66 379 q 246 689 162 620 q 432 758 330 758 q 543 725 495 758 q 619 629 591 692 l 627 629 l 671 745 l 764 745 l 606 0 l 509 0 l 526 138 l 521 138 q 268 -14 404 -14 m 309 87 q 436 149 372 87 q 539 308 500 210 q 578 507 578 406 q 541 615 578 574 q 444 656 505 656 q 317 598 376 656 q 225 444 258 541 q 192 237 192 347 q 222 125 192 162 q 309 87 253 87 z "},"b":{"ha":804,"x_min":39,"x_max":736,"o":"m 374 -14 q 259 20 309 -14 q 183 114 209 53 l 176 114 l 131 0 l 39 0 l 262 1055 l 385 1055 l 332 806 q 302 680 319 745 q 281 606 286 615 l 286 606 q 413 723 355 690 q 532 757 471 757 q 682 691 628 757 q 736 504 736 625 q 690 243 736 363 q 561 55 644 123 q 374 -14 477 -14 m 493 656 q 363 592 429 656 q 260 431 298 528 q 222 237 222 334 q 259 127 222 167 q 364 87 295 87 q 488 143 431 87 q 578 297 545 199 q 611 505 611 396 q 493 656 611 656 z "},"c":{"ha":629,"x_min":66,"x_max":640,"o":"m 343 -14 q 139 59 212 -14 q 66 264 66 132 q 116 515 66 401 q 254 694 166 629 q 456 758 342 758 q 640 722 555 758 l 606 621 q 457 656 528 656 q 321 604 382 656 q 226 463 260 552 q 192 265 192 373 q 235 134 192 180 q 355 87 278 87 q 448 101 405 87 q 534 134 492 115 l 534 31 q 343 -14 448 -14 z "},"d":{"ha":804,"x_min":66,"x_max":829,"o":"m 268 -14 q 120 52 174 -14 q 66 240 66 118 q 114 503 66 382 q 245 690 161 623 q 432 757 329 757 q 619 629 561 757 l 627 629 q 657 812 642 745 l 708 1055 l 829 1055 l 606 0 l 505 0 l 521 138 l 515 138 q 391 22 450 57 q 268 -14 332 -14 m 310 87 q 438 151 373 87 q 541 310 503 214 q 579 505 579 406 q 544 617 579 578 q 440 656 509 656 q 316 599 373 656 q 225 445 259 543 q 192 237 192 347 q 310 87 192 87 z "},"e":{"ha":693,"x_min":66,"x_max":652,"o":"m 432 657 q 300 592 362 657 q 211 421 239 526 l 221 421 q 450 460 369 421 q 532 575 532 500 q 507 634 532 611 q 432 657 483 657 m 336 -14 q 138 61 210 -14 q 66 267 66 135 q 116 510 66 394 q 251 692 166 626 q 439 758 336 758 q 598 712 545 758 q 652 585 652 667 q 538 392 652 461 q 216 322 424 322 l 193 322 l 191 271 q 232 136 191 185 q 358 87 273 87 q 458 102 410 87 q 561 144 506 117 l 561 40 q 444 -2 494 9 q 336 -14 393 -14 z "},"f":{"ha":441,"x_min":-155,"x_max":615,"o":"m -66 -334 q -155 -319 -114 -334 l -155 -216 q -78 -232 -113 -232 q -1 -194 -31 -232 q 45 -74 28 -156 l 197 652 l 68 652 l 78 703 l 216 749 l 232 815 q 320 1007 263 952 q 485 1063 376 1063 q 615 1036 551 1063 l 583 943 q 490 962 533 962 q 401 928 431 962 q 354 815 371 895 l 338 745 l 497 745 l 479 652 l 319 652 l 164 -87 q 80 -275 137 -216 q -66 -334 24 -334 z "},"g":{"ha":804,"x_min":35,"x_max":765,"o":"m 310 87 q 435 149 371 87 q 539 309 500 211 q 578 505 578 407 q 441 656 578 656 q 315 598 373 656 q 225 443 258 541 q 192 237 192 345 q 310 87 192 87 m 258 -334 q 35 -286 125 -334 l 35 -174 q 140 -216 77 -199 q 254 -232 203 -232 q 398 -188 345 -232 q 473 -52 452 -144 l 508 91 l 521 138 l 515 138 q 393 22 454 58 q 269 -14 332 -14 q 121 53 175 -14 q 66 240 66 119 q 116 507 66 386 q 248 693 165 628 q 432 758 330 758 q 621 629 562 758 l 627 629 l 672 745 l 765 745 l 596 -43 q 482 -263 564 -192 q 258 -334 400 -334 z "},"h":{"ha":804,"x_min":39,"x_max":726,"o":"m 614 0 l 492 0 l 590 467 q 603 558 603 527 q 505 656 603 656 q 391 615 446 656 q 293 500 335 575 q 229 321 251 425 l 161 0 l 39 0 l 262 1055 l 385 1055 l 325 782 q 304 695 317 740 q 281 606 292 650 l 288 606 q 409 721 348 685 q 539 757 471 757 q 677 708 629 757 q 726 567 726 660 q 711 453 726 529 l 614 0 z "},"i":{"ha":358,"x_min":39,"x_max":375,"o":"m 161 0 l 39 0 l 197 745 l 319 745 l 161 0 m 229 933 q 252 997 229 972 q 311 1022 275 1022 q 375 960 375 1022 q 351 893 375 919 q 296 868 328 868 q 248 885 267 868 q 229 933 229 902 z "},"j":{"ha":358,"x_min":-175,"x_max":374,"o":"m -89 -334 q -175 -319 -138 -334 l -175 -216 q -94 -232 -136 -232 q 20 -96 -9 -232 l 197 745 l 318 745 l 138 -107 q 57 -280 113 -227 q -89 -334 2 -334 m 229 933 q 252 997 229 972 q 311 1022 275 1022 q 374 960 374 1022 q 350 893 374 919 q 294 868 326 868 q 248 885 266 868 q 229 933 229 902 z "},"k":{"ha":688,"x_min":37,"x_max":729,"o":"m 585 745 l 729 745 l 410 425 l 608 0 l 473 0 l 317 349 l 216 269 l 161 0 l 37 0 l 261 1055 l 385 1055 q 293 627 325 777 q 229 385 260 477 l 232 385 l 585 745 z "},"l":{"ha":358,"x_min":37,"x_max":385,"o":"m 160 0 l 37 0 l 262 1055 l 385 1055 l 160 0 z "},"m":{"ha":1215,"x_min":39,"x_max":1137,"o":"m 528 758 q 646 714 604 758 q 696 593 688 671 l 701 593 q 957 758 815 758 q 1090 711 1044 758 q 1137 575 1137 664 q 1122 453 1137 515 l 1026 0 l 903 0 l 1003 467 q 1015 564 1015 530 q 992 631 1015 606 q 921 656 970 656 q 817 617 868 656 q 725 506 765 578 q 664 336 684 433 l 593 0 l 471 0 l 570 467 q 582 558 582 530 q 492 656 582 656 q 384 616 436 656 q 291 500 332 576 q 229 321 251 425 l 161 0 l 39 0 l 197 745 l 297 745 l 282 607 l 289 607 q 369 696 335 668 q 442 741 402 724 q 528 758 481 758 z "},"n":{"ha":804,"x_min":39,"x_max":726,"o":"m 614 0 l 492 0 l 590 467 q 604 562 604 534 q 581 630 604 605 q 505 656 557 656 q 392 616 447 656 q 294 500 336 576 q 229 321 251 425 l 161 0 l 39 0 l 197 745 l 297 745 l 282 607 l 289 607 q 371 694 334 665 q 449 741 407 724 q 539 758 492 758 q 676 710 627 758 q 726 575 726 663 q 711 453 726 522 l 614 0 z "},"o":{"ha":782,"x_min":66,"x_max":717,"o":"m 591 481 q 551 606 591 559 q 440 653 510 653 q 311 603 368 653 q 222 464 253 553 q 191 271 191 376 q 232 137 191 184 q 351 90 274 90 q 474 139 419 90 q 561 276 530 187 q 591 481 591 365 m 717 467 q 668 225 717 338 q 535 51 619 112 q 345 -11 451 -11 q 140 66 214 -11 q 66 275 66 144 q 117 519 66 406 q 251 694 167 633 q 439 754 334 754 q 643 677 568 754 q 717 467 717 600 z "},"p":{"ha":804,"x_min":-31,"x_max":736,"o":"m 534 757 q 683 689 631 757 q 736 503 736 621 q 688 238 736 358 q 558 53 640 119 q 374 -14 477 -14 q 183 114 243 -14 l 176 114 q 158 -12 165 21 l 90 -334 l -31 -334 l 197 745 l 297 745 l 281 606 l 286 606 q 411 721 351 686 q 534 757 472 757 m 493 656 q 365 594 430 656 q 261 435 300 532 q 222 237 222 337 q 259 127 222 167 q 364 87 295 87 q 488 143 431 87 q 578 297 545 199 q 611 505 611 396 q 493 656 611 656 z "},"q":{"ha":804,"x_min":66,"x_max":764,"o":"m 269 -14 q 120 53 174 -14 q 66 240 66 119 q 114 502 66 380 q 245 691 161 623 q 433 758 329 758 q 544 725 496 758 q 619 629 592 692 l 627 629 l 672 745 l 764 745 l 534 -334 l 414 -334 l 481 -17 q 521 138 497 54 l 515 138 q 393 22 454 58 q 269 -14 332 -14 m 310 87 q 434 148 371 87 q 538 306 498 208 q 578 505 578 404 q 542 615 578 575 q 441 656 507 656 q 319 601 376 656 q 227 447 262 546 q 192 237 192 349 q 310 87 192 87 z "},"r":{"ha":553,"x_min":39,"x_max":596,"o":"m 515 758 q 596 749 563 758 l 570 639 q 498 647 532 647 q 384 607 437 647 q 291 496 330 568 q 233 340 251 425 l 161 0 l 39 0 l 197 745 l 297 745 l 282 607 l 289 607 q 370 700 338 672 q 437 743 402 728 q 515 758 473 758 z "},"s":{"ha":600,"x_min":7,"x_max":572,"o":"m 504 215 q 428 47 504 107 q 215 -14 353 -14 q 7 33 93 -14 l 7 146 q 105 102 51 119 q 211 86 159 86 q 336 118 294 86 q 379 203 379 151 q 356 267 379 240 q 254 338 332 294 q 131 435 167 387 q 94 547 94 484 q 163 700 94 642 q 347 758 233 758 q 572 707 463 758 l 533 610 q 452 641 497 627 q 347 656 408 656 q 252 628 288 656 q 216 554 216 600 q 241 491 216 517 q 339 424 266 465 q 445 350 416 378 q 489 290 473 322 q 504 215 504 257 z "},"t":{"ha":461,"x_min":61,"x_max":505,"o":"m 275 86 q 374 104 317 86 l 374 11 q 319 -6 355 1 q 257 -14 283 -14 q 125 27 170 -14 q 79 149 79 68 q 92 248 79 192 l 176 652 l 61 652 l 72 707 l 197 760 l 283 914 l 355 914 l 318 745 l 505 745 l 486 652 l 300 652 l 214 245 q 201 163 201 191 q 218 108 201 130 q 275 86 235 86 z "},"u":{"ha":804,"x_min":77,"x_max":764,"o":"m 189 745 l 313 745 l 212 277 q 200 183 200 216 q 297 87 200 87 q 411 127 356 87 q 510 244 467 168 q 575 424 553 320 l 643 745 l 764 745 l 606 0 l 505 0 l 521 138 l 514 138 q 391 22 453 58 q 262 -14 330 -14 q 126 35 176 -14 q 77 171 77 83 q 92 290 77 214 l 189 745 z "},"v":{"ha":648,"x_min":66,"x_max":715,"o":"m 250 93 q 366 335 327 264 l 585 745 l 715 745 l 313 0 l 153 0 l 66 745 l 189 745 l 231 330 q 241 194 237 268 q 245 93 245 119 l 250 93 z "},"w":{"ha":1004,"x_min":79,"x_max":1057,"o":"m 538 627 l 503 543 l 449 416 l 254 0 l 110 0 l 79 745 l 199 745 l 211 278 q 204 107 211 231 l 210 107 q 244 194 217 127 q 294 310 271 260 q 496 745 317 361 l 628 745 l 652 346 l 654 178 l 654 138 l 653 107 l 659 107 q 765 379 694 213 l 928 745 l 1057 745 l 713 0 l 566 0 l 545 403 l 543 500 l 543 627 l 538 627 z "},"x":{"ha":671,"x_min":-52,"x_max":708,"o":"m 271 383 l 110 745 l 233 745 l 349 469 l 567 745 l 708 745 l 399 378 l 570 0 l 446 0 l 319 289 l 90 0 l -52 0 l 271 383 z "},"y":{"ha":648,"x_min":-131,"x_max":715,"o":"m 66 745 l 189 745 l 237 376 q 250 244 245 326 q 256 100 256 163 l 260 100 q 313 221 277 144 q 368 336 348 298 l 585 745 l 715 745 l 243 -125 q 118 -287 182 -240 q -35 -334 54 -334 q -131 -319 -88 -334 l -131 -221 q -41 -233 -88 -233 q 54 -198 14 -233 q 131 -97 94 -163 l 179 -11 l 66 745 z "},"z":{"ha":618,"x_min":-21,"x_max":610,"o":"m 472 0 l -21 0 l -4 83 l 458 653 l 139 653 l 158 745 l 610 745 l 590 646 l 136 92 l 490 92 l 472 0 z "},"{":{"ha":486,"x_min":16,"x_max":555,"o":"m 157 249 q 16 346 157 346 l 39 447 q 167 476 119 447 q 231 576 216 506 l 277 794 q 356 947 299 902 q 530 991 412 991 l 555 991 l 534 890 q 434 866 465 890 q 389 783 402 842 l 340 567 q 279 443 322 485 q 164 390 235 401 l 164 387 q 268 243 268 360 q 256 155 268 204 l 225 14 q 215 -50 215 -31 q 239 -102 215 -85 q 319 -118 264 -118 l 319 -220 l 301 -220 q 100 -66 100 -220 q 114 28 100 -33 l 147 174 q 157 249 157 224 z "},"|":{"ha":765,"x_min":361,"x_max":461,"o":"m 361 1055 l 461 1055 l 461 -335 l 361 -335 l 361 1055 z "},"}":{"ha":486,"x_min":-52,"x_max":479,"o":"m 192 991 q 396 839 396 991 q 382 745 396 805 l 349 597 q 338 524 338 540 q 479 427 338 427 l 457 325 q 328 296 376 325 q 265 196 280 267 l 220 -22 q 139 -176 196 -132 q -41 -220 83 -220 l -52 -220 l -52 -118 q 60 -94 25 -118 q 107 -11 94 -69 l 155 205 q 216 327 174 286 q 332 380 259 368 l 332 385 q 229 528 229 413 q 241 615 229 566 l 273 758 q 283 822 283 796 q 256 874 283 857 q 163 890 228 890 l 183 991 l 192 991 z "},"~":{"ha":765,"x_min":78,"x_max":728,"o":"m 236 481 q 156 457 199 481 q 78 399 112 434 l 78 507 q 243 581 145 581 q 331 570 290 581 q 427 536 372 559 q 508 506 479 514 q 568 498 537 498 q 649 521 606 498 q 728 581 693 543 l 728 473 q 562 399 660 399 q 473 410 515 399 q 379 443 431 420 q 298 473 327 465 q 236 481 269 481 z "}," ":{"ha":361,"x_min":0,"x_max":0,"o":""},"¡":{"ha":363,"x_min":-14,"x_max":340,"o":"m 172 460 l 253 460 l 135 -253 l -14 -253 l 172 460 m 340 684 q 313 604 340 636 q 239 571 286 571 q 185 589 204 571 q 167 643 167 608 q 195 726 167 694 q 272 758 224 758 q 322 739 304 758 q 340 684 340 720 z "},"¢":{"ha":765,"x_min":149,"x_max":724,"o":"m 395 -14 l 306 -14 l 335 132 q 197 225 245 155 q 149 400 149 294 q 192 633 149 526 q 313 809 235 741 q 490 892 391 876 l 513 1006 l 600 1006 l 575 892 q 724 859 661 884 l 689 757 q 541 791 612 791 q 405 740 466 791 q 308 599 343 689 q 273 401 273 509 q 317 270 273 317 q 439 222 361 222 q 616 269 516 222 l 616 165 q 422 121 533 123 l 395 -14 z "},"£":{"ha":765,"x_min":-16,"x_max":803,"o":"m 572 1004 q 803 946 696 1004 l 755 850 q 570 903 658 903 q 455 863 498 903 q 396 746 413 824 l 350 530 l 597 530 l 578 439 l 330 439 l 300 298 q 255 184 286 229 q 170 111 224 140 l 657 111 l 633 0 l -16 0 l 4 103 q 179 297 143 134 l 210 439 l 74 439 l 93 530 l 229 530 l 278 762 q 377 942 303 880 q 572 1004 450 1004 z "},"¤":{"ha":765,"x_min":111,"x_max":707,"o":"m 153 490 q 199 635 153 567 l 111 722 l 176 789 l 262 701 q 408 747 332 747 q 553 701 484 747 l 640 789 l 707 724 l 619 636 q 665 490 665 563 q 619 345 665 412 l 705 258 l 640 193 l 553 279 q 408 235 488 235 q 262 281 330 235 l 176 195 l 113 260 l 199 346 q 153 490 153 411 m 245 490 q 293 375 245 423 q 408 328 340 328 q 527 375 478 328 q 575 490 575 422 q 526 608 575 560 q 408 656 477 656 q 293 607 340 656 q 245 490 245 558 z "},"¥":{"ha":765,"x_min":83,"x_max":856,"o":"m 396 494 l 722 991 l 856 991 l 497 471 l 652 471 l 632 378 l 433 378 l 411 271 l 610 271 l 590 178 l 393 178 l 354 0 l 241 0 l 279 178 l 83 178 l 104 271 l 298 271 l 321 378 l 125 378 l 146 471 l 297 471 l 160 991 l 279 991 l 396 494 z "},"¦":{"ha":765,"x_min":361,"x_max":461,"o":"m 361 1055 l 461 1055 l 461 526 l 361 526 l 361 1055 m 361 195 l 461 195 l 461 -335 l 361 -335 l 361 195 z "},"§":{"ha":675,"x_min":37,"x_max":677,"o":"m 117 522 q 275 729 117 658 q 196 867 196 779 q 267 1008 196 954 q 458 1063 338 1063 q 677 1015 584 1063 l 640 928 q 458 970 538 970 q 353 943 393 970 q 313 871 313 916 q 338 814 313 838 q 446 754 364 790 q 577 667 538 713 q 615 558 615 620 q 575 437 615 493 q 460 343 534 380 q 536 214 536 293 q 458 52 536 111 q 240 -7 379 -7 q 37 36 117 -7 l 37 140 q 132 102 75 119 q 240 86 189 86 q 375 116 328 86 q 421 201 421 146 q 394 256 421 231 q 286 319 366 281 q 156 406 196 359 q 117 522 117 452 m 349 682 q 260 625 296 666 q 225 536 225 585 q 258 459 225 491 q 390 385 291 428 q 473 454 442 413 q 504 542 504 496 q 469 615 504 584 q 349 682 433 647 z "},"¨":{"ha":770,"x_min":306,"x_max":685,"o":"m 306 935 q 326 991 306 969 q 379 1014 345 1014 q 435 958 435 1014 q 415 901 435 925 q 366 876 396 876 q 322 891 339 876 q 306 935 306 906 m 555 935 q 576 992 555 970 q 629 1014 596 1014 q 671 999 658 1014 q 685 958 685 983 q 664 900 685 923 q 614 876 644 876 q 572 891 589 876 q 555 935 555 906 z "},"©":{"ha":1156,"x_min":93,"x_max":1112,"o":"m 629 715 q 502 658 547 715 q 457 496 457 601 q 629 275 457 275 q 774 306 692 275 l 774 218 q 696 192 730 199 q 624 184 663 184 q 422 266 495 184 q 350 496 350 348 q 425 722 350 637 q 631 806 499 806 q 802 764 716 806 l 760 679 q 629 715 686 715 m 93 496 q 161 750 93 631 q 347 937 229 869 q 603 1006 466 1006 q 854 940 736 1006 q 1042 755 971 874 q 1112 496 1112 637 q 1044 240 1112 357 q 859 55 976 123 q 603 -14 742 -14 q 344 57 463 -14 q 159 244 225 127 q 93 496 93 361 m 167 496 q 225 278 167 379 q 385 118 283 177 q 603 60 486 60 q 821 118 720 60 q 981 276 922 176 q 1040 496 1040 377 q 981 715 1040 614 q 821 873 922 815 q 603 932 720 932 q 385 873 486 932 q 225 714 284 815 q 167 496 167 612 z "},"ª":{"ha":471,"x_min":114,"x_max":534,"o":"m 236 532 q 148 574 182 532 q 114 688 114 616 q 142 847 114 773 q 222 962 171 920 q 338 1003 273 1003 q 441 933 415 1003 l 447 933 l 472 994 l 534 994 l 439 541 l 374 541 l 383 618 l 379 618 q 310 551 345 571 q 236 532 276 532 m 262 606 q 338 637 303 606 q 394 728 372 669 q 416 843 416 787 q 398 907 416 884 q 340 930 379 930 q 268 899 300 930 q 215 812 235 867 q 196 697 196 758 q 262 606 196 606 z "},"«":{"ha":663,"x_min":58,"x_max":648,"o":"m 58 395 l 325 654 l 385 595 l 184 372 l 298 111 l 214 75 l 58 376 l 58 395 m 332 368 l 583 647 l 648 595 l 457 349 l 562 111 l 478 75 l 332 349 l 332 368 z "},"¬":{"ha":765,"x_min":85,"x_max":711,"o":"m 711 178 l 611 178 l 611 439 l 85 439 l 85 541 l 711 541 l 711 178 z "},"­":{"ha":435,"x_min":36,"x_max":389,"o":"m 36 315 l 61 428 l 389 428 l 364 315 l 36 315 z "},"®":{"ha":1156,"x_min":93,"x_max":1112,"o":"m 93 496 q 161 750 93 631 q 347 937 229 869 q 603 1006 466 1006 q 854 940 736 1006 q 1042 755 971 874 q 1112 496 1112 637 q 1044 240 1112 357 q 859 55 976 123 q 603 -14 742 -14 q 344 57 463 -14 q 159 244 225 127 q 93 496 93 361 m 167 496 q 225 278 167 379 q 385 118 283 177 q 603 60 486 60 q 821 118 720 60 q 981 276 922 176 q 1040 496 1040 377 q 981 715 1040 614 q 821 873 922 815 q 603 932 720 932 q 385 873 486 932 q 225 714 284 815 q 167 496 167 612 m 812 619 q 781 524 812 567 q 690 457 749 481 l 843 197 l 734 197 l 599 433 l 525 433 l 525 197 l 433 197 l 433 794 l 593 794 q 759 751 705 794 q 812 619 812 707 m 525 517 l 585 517 q 715 616 715 517 q 683 688 715 667 q 585 708 650 708 l 525 708 l 525 517 z "},"¯":{"ha":546,"x_min":140,"x_max":711,"o":"m 688 1055 l 140 1055 l 163 1149 l 711 1149 l 688 1055 z "},"°":{"ha":595,"x_min":143,"x_max":570,"o":"m 143 791 q 205 943 143 880 q 355 1006 268 1006 q 462 977 412 1006 q 541 898 512 948 q 570 791 570 848 q 506 642 570 704 q 355 581 443 581 q 205 642 268 581 q 143 791 143 703 m 224 791 q 263 699 224 737 q 355 661 302 661 q 447 699 408 661 q 486 791 486 737 q 448 886 486 847 q 355 925 410 925 q 262 886 301 925 q 224 791 224 847 z "},"±":{"ha":765,"x_min":85,"x_max":711,"o":"m 347 439 l 85 439 l 85 541 l 347 541 l 347 804 l 449 804 l 449 541 l 711 541 l 711 439 l 449 439 l 449 178 l 347 178 l 347 439 m 85 0 l 85 100 l 711 100 l 711 0 l 85 0 z "},"²":{"ha":490,"x_min":62,"x_max":517,"o":"m 449 397 l 62 397 l 79 473 l 258 627 q 390 759 361 715 q 419 847 419 802 q 399 903 419 882 q 340 924 379 924 q 208 869 276 924 l 165 935 q 357 1004 252 1004 q 473 965 430 1004 q 517 863 517 926 q 481 741 517 797 q 346 603 446 686 l 201 482 l 467 482 l 449 397 z "},"³":{"ha":490,"x_min":79,"x_max":517,"o":"m 517 864 q 375 707 517 744 l 375 701 q 449 656 423 690 q 475 575 475 622 q 412 436 475 487 q 239 386 349 386 q 79 424 153 386 l 79 514 q 241 465 164 465 q 346 495 312 465 q 379 578 379 526 q 262 667 379 667 l 199 667 l 215 743 l 279 743 q 382 770 343 743 q 421 844 421 796 q 398 904 421 884 q 337 924 376 924 q 204 878 268 924 l 165 945 q 350 1004 243 1004 q 473 966 429 1004 q 517 864 517 928 z "},"´":{"ha":770,"x_min":358,"x_max":653,"o":"m 358 860 q 438 957 393 897 q 514 1064 484 1017 l 653 1064 l 653 1050 q 553 944 621 1011 q 435 842 484 878 l 358 842 l 358 860 z "},"µ":{"ha":812,"x_min":-31,"x_max":772,"o":"m 208 186 q 306 87 208 87 q 418 127 363 87 q 515 241 473 167 q 582 421 558 315 l 653 745 l 772 745 l 614 0 l 514 0 l 529 138 l 522 138 q 399 21 458 55 q 277 -14 340 -14 q 167 50 200 -14 l 161 50 l 134 -119 l 89 -334 l -31 -334 l 197 745 l 319 745 l 221 277 q 208 186 208 217 z "},"¶":{"ha":909,"x_min":132,"x_max":818,"o":"m 818 -176 l 737 -176 l 737 947 l 596 947 l 596 -176 l 515 -176 l 515 379 q 416 367 473 367 q 202 450 271 367 q 132 707 132 534 q 206 969 132 883 q 437 1055 280 1055 l 818 1055 l 818 -176 z "},"·":{"ha":355,"x_min":113,"x_max":288,"o":"m 113 468 q 141 551 113 519 q 220 583 170 583 q 269 565 250 583 q 288 509 288 546 q 260 428 288 460 q 184 395 232 395 q 131 414 150 395 q 113 468 113 433 z "},"¸":{"ha":285,"x_min":-118,"x_max":146,"o":"m 146 -186 q 91 -293 146 -253 q -56 -334 37 -334 q -118 -326 -93 -334 l -118 -254 q -68 -260 -96 -260 q 46 -186 46 -260 q 25 -145 46 -161 q -47 -122 5 -129 l 20 0 l 97 0 l 57 -79 q 146 -186 146 -105 z "},"¹":{"ha":490,"x_min":167,"x_max":450,"o":"m 364 991 l 450 991 l 323 397 l 225 397 l 298 746 l 338 897 l 278 846 l 205 799 l 167 864 l 364 991 z "},"º":{"ha":471,"x_min":114,"x_max":510,"o":"m 510 825 q 483 674 510 741 q 404 569 455 607 q 283 532 353 532 q 159 580 205 532 q 114 714 114 628 q 142 861 114 795 q 223 965 171 928 q 343 1003 275 1003 q 467 956 424 1003 q 510 825 510 909 m 340 929 q 235 870 275 929 q 196 717 196 812 q 221 632 196 660 q 290 604 245 604 q 391 666 353 604 q 429 821 429 728 q 340 929 429 929 m 210 991 z "},"»":{"ha":663,"x_min":14,"x_max":604,"o":"m 604 332 l 338 75 l 278 135 l 478 355 l 364 618 l 449 654 l 604 351 l 604 332 m 330 358 l 79 83 l 14 135 l 205 378 l 100 618 l 184 654 l 330 379 l 330 358 z "},"¼":{"ha":1047,"x_min":85,"x_max":932,"o":"m 932 991 l 195 0 l 85 0 l 822 991 l 932 991 m 329 991 l 415 991 l 288 397 l 190 397 l 263 746 l 302 897 l 243 846 l 170 799 l 132 864 l 329 991 m 916 135 l 828 135 l 800 1 l 707 1 l 735 135 l 488 135 l 503 208 l 829 599 l 928 599 l 846 217 l 930 217 l 916 135 m 753 217 q 812 479 801 439 q 739 381 793 444 l 603 217 l 753 217 z "},"½":{"ha":1047,"x_min":51,"x_max":995,"o":"m 897 991 l 161 0 l 51 0 l 787 991 l 897 991 m 294 991 l 380 991 l 254 397 l 155 397 l 229 746 l 268 897 l 208 846 l 136 799 l 97 864 l 294 991 m 927 1 l 541 1 l 557 77 l 736 230 q 868 362 839 319 q 897 450 897 406 q 877 506 897 485 q 819 527 857 527 q 686 473 754 527 l 644 538 q 835 608 730 608 q 951 569 908 608 q 995 466 995 530 q 960 345 995 400 q 824 206 924 289 l 680 85 l 945 85 l 927 1 z "},"¾":{"ha":1076,"x_min":62,"x_max":1032,"o":"m 499 864 q 357 707 499 744 l 357 701 q 431 656 406 690 q 457 575 457 622 q 394 436 457 487 q 221 386 332 386 q 62 424 135 386 l 62 514 q 224 465 146 465 q 328 495 294 465 q 361 578 361 526 q 245 667 361 667 l 181 667 l 197 743 l 262 743 q 365 770 326 743 q 404 844 404 796 q 381 904 404 884 q 319 924 358 924 q 186 878 250 924 l 148 945 q 332 1004 225 1004 q 455 966 412 1004 q 499 864 499 928 m 1032 991 l 296 0 l 186 0 l 922 991 l 1032 991 m 1011 135 l 924 135 l 896 1 l 803 1 l 831 135 l 583 135 l 599 208 l 925 599 l 1023 599 l 941 217 l 1026 217 l 1011 135 m 848 217 q 908 479 897 439 q 835 381 889 444 l 699 217 l 848 217 z "},"¿":{"ha":597,"x_min":-7,"x_max":517,"o":"m 447 457 q 398 312 433 369 q 285 193 363 254 q 221 142 252 167 q 168 91 191 118 q 131 33 144 64 q 117 -37 117 2 q 150 -131 117 -97 q 248 -164 184 -164 q 335 -151 289 -164 q 447 -107 382 -138 l 492 -201 q 233 -271 359 -271 q 56 -214 119 -271 q -7 -52 -7 -158 q 38 102 -7 32 q 192 252 83 172 q 304 350 276 313 q 347 457 332 386 l 447 457 m 517 684 q 488 598 517 630 q 410 567 459 567 q 360 585 379 567 q 342 640 342 604 q 370 723 342 691 q 444 754 399 754 q 497 736 478 754 q 517 684 517 718 z "},"À":{"ha":781,"x_min":-79,"x_max":713,"o":"m 553 309 l 218 309 l 57 0 l -79 0 l 460 991 l 590 991 l 713 0 l 590 0 l 553 309 m 541 419 l 518 627 q 500 860 500 781 q 452 755 478 808 q 278 419 427 703 l 541 419 m 591 1071 l 516 1071 q 426 1179 471 1116 q 363 1279 380 1242 l 363 1293 l 494 1293 q 591 1088 522 1202 l 591 1071 z "},"Á":{"ha":781,"x_min":-79,"x_max":760,"o":"m 553 309 l 218 309 l 57 0 l -79 0 l 460 991 l 590 991 l 713 0 l 590 0 l 553 309 m 541 419 l 518 627 q 500 860 500 781 q 452 755 478 808 q 278 419 427 703 l 541 419 m 465 1089 q 545 1186 500 1126 q 621 1293 591 1246 l 760 1293 l 760 1279 q 660 1174 728 1240 q 542 1071 591 1107 l 465 1071 l 465 1089 z "},"Â":{"ha":781,"x_min":-79,"x_max":742,"o":"m 553 309 l 218 309 l 57 0 l -79 0 l 460 991 l 590 991 l 713 0 l 590 0 l 553 309 m 541 419 l 518 627 q 500 860 500 781 q 452 755 478 808 q 278 419 427 703 l 541 419 m 742 1071 l 665 1071 q 556 1197 627 1103 q 393 1071 470 1120 l 313 1071 l 313 1089 q 507 1293 474 1238 l 625 1293 q 713 1134 648 1231 l 742 1089 l 742 1071 z "},"Ã":{"ha":781,"x_min":-79,"x_max":800,"o":"m 553 309 l 218 309 l 57 0 l -79 0 l 460 991 l 590 991 l 713 0 l 590 0 l 553 309 m 541 419 l 518 627 q 500 860 500 781 q 452 755 478 808 q 278 419 427 703 l 541 419 m 637 1072 q 585 1084 610 1072 q 536 1111 559 1096 q 489 1137 512 1125 q 444 1149 467 1149 q 398 1129 415 1149 q 366 1071 381 1109 l 294 1071 q 454 1249 333 1249 q 511 1237 484 1249 q 562 1211 538 1225 q 606 1184 585 1196 q 646 1173 627 1173 q 692 1190 674 1173 q 726 1250 710 1207 l 800 1250 q 637 1072 752 1072 z "},"Ä":{"ha":781,"x_min":-79,"x_max":732,"o":"m 553 309 l 218 309 l 57 0 l -79 0 l 460 991 l 590 991 l 713 0 l 590 0 l 553 309 m 541 419 l 518 627 q 500 860 500 781 q 452 755 478 808 q 278 419 427 703 l 541 419 m 353 1164 q 373 1221 353 1198 q 427 1243 393 1243 q 482 1187 482 1243 q 463 1130 482 1154 q 413 1105 444 1105 q 370 1120 387 1105 q 353 1164 353 1135 m 603 1164 q 623 1221 603 1199 q 677 1243 644 1243 q 719 1228 705 1243 q 732 1187 732 1213 q 712 1129 732 1152 q 661 1105 691 1105 q 620 1120 636 1105 q 603 1164 603 1135 z "},"Å":{"ha":781,"x_min":-79,"x_max":713,"o":"m 677 1074 q 655 989 677 1023 q 596 940 633 956 l 713 0 l 590 0 l 553 309 l 218 309 l 57 0 l -79 0 l 436 950 q 376 1072 376 987 q 419 1177 376 1138 q 526 1217 461 1217 q 636 1178 594 1217 q 677 1074 677 1139 m 541 419 q 503 777 507 732 q 500 860 500 823 q 452 755 478 808 q 278 419 427 703 l 541 419 m 604 1072 q 583 1128 604 1108 q 526 1149 561 1149 q 472 1128 494 1149 q 450 1072 450 1108 q 470 1016 450 1036 q 526 996 490 996 q 583 1016 561 996 q 604 1072 604 1036 z "},"Æ":{"ha":1145,"x_min":-81,"x_max":1200,"o":"m 990 0 l 486 0 l 551 309 l 254 309 l 61 0 l -81 0 l 554 991 l 1200 991 l 1178 882 l 798 882 l 730 572 l 1086 572 l 1065 464 l 710 464 l 635 110 l 1014 110 l 990 0 m 574 419 l 672 882 l 615 882 l 325 419 l 574 419 z "},"Ç":{"ha":815,"x_min":100,"x_max":878,"o":"m 636 896 q 427 829 517 896 q 284 637 336 762 q 232 368 232 513 q 296 169 232 241 q 475 96 361 96 q 694 136 572 96 l 694 28 q 453 -14 584 -14 q 193 88 287 -14 q 100 366 100 189 q 170 692 100 540 q 362 925 241 844 q 636 1006 484 1006 q 878 950 776 1006 l 828 847 q 636 896 734 896 m 518 -186 q 464 -293 518 -253 q 317 -334 409 -334 q 254 -326 279 -334 l 254 -254 q 304 -260 276 -260 q 418 -186 418 -260 q 398 -145 418 -161 q 325 -122 377 -129 l 392 0 l 469 0 l 429 -79 q 518 -186 518 -105 z "},"È":{"ha":714,"x_min":57,"x_max":770,"o":"m 559 0 l 57 0 l 267 991 l 770 991 l 746 882 l 367 882 l 301 572 l 656 572 l 635 464 l 279 464 l 203 110 l 583 110 l 559 0 m 609 1071 l 534 1071 q 444 1179 490 1116 q 381 1279 399 1242 l 381 1293 l 512 1293 q 609 1088 540 1202 l 609 1071 z "},"É":{"ha":714,"x_min":57,"x_max":770,"o":"m 559 0 l 57 0 l 267 991 l 770 991 l 746 882 l 367 882 l 301 572 l 656 572 l 635 464 l 279 464 l 203 110 l 583 110 l 559 0 m 443 1089 q 523 1186 477 1126 q 599 1293 568 1246 l 738 1293 l 738 1279 q 637 1174 706 1240 q 519 1071 569 1107 l 443 1071 l 443 1089 z "},"Ê":{"ha":714,"x_min":57,"x_max":770,"o":"m 559 0 l 57 0 l 267 991 l 770 991 l 746 882 l 367 882 l 301 572 l 656 572 l 635 464 l 279 464 l 203 110 l 583 110 l 559 0 m 741 1071 l 664 1071 q 555 1197 626 1103 q 392 1071 469 1120 l 311 1071 l 311 1089 q 506 1293 473 1238 l 624 1293 q 712 1134 647 1231 l 741 1089 l 741 1071 z "},"Ë":{"ha":714,"x_min":57,"x_max":770,"o":"m 559 0 l 57 0 l 267 991 l 770 991 l 746 882 l 367 882 l 301 572 l 656 572 l 635 464 l 279 464 l 203 110 l 583 110 l 559 0 m 349 1164 q 368 1221 349 1198 q 422 1243 388 1243 q 477 1187 477 1243 q 458 1130 477 1154 q 408 1105 439 1105 q 365 1120 382 1105 q 349 1164 349 1135 m 598 1164 q 618 1221 598 1199 q 672 1243 639 1243 q 714 1228 701 1243 q 728 1187 728 1213 q 707 1129 728 1152 q 656 1105 686 1105 q 615 1120 631 1105 q 598 1164 598 1135 z "},"Ì":{"ha":450,"x_min":-28,"x_max":529,"o":"m 319 0 l -28 0 l -14 68 l 104 96 l 273 896 l 168 922 l 182 991 l 529 991 l 515 922 l 396 896 l 227 96 l 334 68 l 319 0 m 434 1071 l 359 1071 q 269 1179 315 1116 q 206 1279 224 1242 l 206 1293 l 337 1293 q 434 1088 365 1202 l 434 1071 z "},"Í":{"ha":450,"x_min":-28,"x_max":602,"o":"m 319 0 l -28 0 l -14 68 l 104 96 l 273 896 l 168 922 l 182 991 l 529 991 l 515 922 l 396 896 l 227 96 l 334 68 l 319 0 m 307 1089 q 387 1186 342 1126 q 463 1293 433 1246 l 602 1293 l 602 1279 q 502 1174 570 1240 q 384 1071 433 1107 l 307 1071 l 307 1089 z "},"Î":{"ha":450,"x_min":-28,"x_max":578,"o":"m 319 0 l -28 0 l -14 68 l 104 96 l 273 896 l 168 922 l 182 991 l 529 991 l 515 922 l 396 896 l 227 96 l 334 68 l 319 0 m 578 1071 l 502 1071 q 393 1197 464 1103 q 230 1071 307 1120 l 149 1071 l 149 1089 q 344 1293 311 1238 l 462 1293 q 550 1134 485 1231 l 578 1089 l 578 1071 z "},"Ï":{"ha":450,"x_min":-28,"x_max":572,"o":"m 319 0 l -28 0 l -14 68 l 104 96 l 273 896 l 168 922 l 182 991 l 529 991 l 515 922 l 396 896 l 227 96 l 334 68 l 319 0 m 193 1164 q 212 1221 193 1198 q 266 1243 232 1243 q 321 1187 321 1243 q 302 1130 321 1154 q 252 1105 283 1105 q 209 1120 226 1105 q 193 1164 193 1135 m 442 1164 q 463 1221 442 1199 q 516 1243 483 1243 q 558 1228 545 1243 q 572 1187 572 1213 q 551 1129 572 1152 q 500 1105 530 1105 q 459 1120 475 1105 q 442 1164 442 1135 z "},"Ð":{"ha":926,"x_min":46,"x_max":884,"o":"m 884 596 q 813 282 884 418 q 610 73 743 146 q 301 0 477 0 l 57 0 l 147 437 l 46 437 l 69 545 l 171 545 l 267 991 l 501 991 q 786 890 688 991 q 884 596 884 789 m 309 107 q 544 169 443 107 q 699 341 645 230 q 753 597 753 453 q 685 812 753 739 q 486 885 617 885 l 368 885 l 296 545 l 514 545 l 490 437 l 272 437 l 203 107 l 309 107 z "},"Ñ":{"ha":982,"x_min":56,"x_max":989,"o":"m 779 0 l 647 0 l 340 822 l 336 822 q 286 539 322 705 l 172 0 l 56 0 l 265 991 l 397 991 l 701 172 l 705 172 q 729 319 714 235 q 754 446 744 404 l 871 991 l 989 991 l 779 0 m 747 1072 q 694 1084 720 1072 q 646 1111 669 1096 q 599 1137 622 1125 q 554 1149 576 1149 q 508 1129 525 1149 q 476 1071 491 1109 l 404 1071 q 564 1249 443 1249 q 621 1237 594 1249 q 671 1211 648 1225 q 716 1184 695 1196 q 755 1173 737 1173 q 802 1190 784 1173 q 836 1250 820 1207 l 909 1250 q 747 1072 862 1072 z "},"Ò":{"ha":1002,"x_min":100,"x_max":958,"o":"m 958 616 q 897 285 958 430 q 724 63 835 140 q 468 -14 614 -14 q 197 87 294 -14 q 100 371 100 189 q 164 697 100 549 q 343 926 229 845 q 602 1007 457 1007 q 864 903 769 1007 q 958 616 958 799 m 593 897 q 406 830 488 897 q 277 642 323 763 q 232 374 232 521 q 296 169 232 241 q 472 96 361 96 q 653 161 572 96 q 780 349 734 227 q 827 619 827 471 q 765 823 827 749 q 593 897 703 897 m 686 1071 l 611 1071 q 521 1179 566 1116 q 458 1279 475 1242 l 458 1293 l 589 1293 q 686 1088 616 1202 l 686 1071 z "},"Ó":{"ha":1002,"x_min":100,"x_max":958,"o":"m 958 616 q 897 285 958 430 q 724 63 835 140 q 468 -14 614 -14 q 197 87 294 -14 q 100 371 100 189 q 164 697 100 549 q 343 926 229 845 q 602 1007 457 1007 q 864 903 769 1007 q 958 616 958 799 m 593 897 q 406 830 488 897 q 277 642 323 763 q 232 374 232 521 q 296 169 232 241 q 472 96 361 96 q 653 161 572 96 q 780 349 734 227 q 827 619 827 471 q 765 823 827 749 q 593 897 703 897 m 553 1089 q 633 1186 587 1126 q 709 1293 678 1246 l 848 1293 l 848 1279 q 747 1174 816 1240 q 629 1071 679 1107 l 553 1071 l 553 1089 z "},"Ô":{"ha":1002,"x_min":100,"x_max":958,"o":"m 958 616 q 897 285 958 430 q 724 63 835 140 q 468 -14 614 -14 q 197 87 294 -14 q 100 371 100 189 q 164 697 100 549 q 343 926 229 845 q 602 1007 457 1007 q 864 903 769 1007 q 958 616 958 799 m 593 897 q 406 830 488 897 q 277 642 323 763 q 232 374 232 521 q 296 169 232 241 q 472 96 361 96 q 653 161 572 96 q 780 349 734 227 q 827 619 827 471 q 765 823 827 749 q 593 897 703 897 m 838 1071 l 761 1071 q 652 1197 723 1103 q 489 1071 566 1120 l 408 1071 l 408 1089 q 603 1293 570 1238 l 721 1293 q 809 1134 744 1231 l 838 1089 l 838 1071 z "},"Õ":{"ha":1002,"x_min":100,"x_max":958,"o":"m 958 616 q 897 285 958 430 q 724 63 835 140 q 468 -14 614 -14 q 197 87 294 -14 q 100 371 100 189 q 164 697 100 549 q 343 926 229 845 q 602 1007 457 1007 q 864 903 769 1007 q 958 616 958 799 m 593 897 q 406 830 488 897 q 277 642 323 763 q 232 374 232 521 q 296 169 232 241 q 472 96 361 96 q 653 161 572 96 q 780 349 734 227 q 827 619 827 471 q 765 823 827 749 q 593 897 703 897 m 724 1072 q 671 1084 696 1072 q 622 1111 646 1096 q 575 1137 598 1125 q 530 1149 553 1149 q 484 1129 501 1149 q 452 1071 467 1109 l 380 1071 q 540 1249 419 1249 q 597 1237 570 1249 q 648 1211 624 1225 q 692 1184 671 1196 q 732 1173 713 1173 q 778 1190 760 1173 q 812 1250 796 1207 l 886 1250 q 724 1072 838 1072 z "},"Ö":{"ha":1002,"x_min":100,"x_max":958,"o":"m 958 616 q 897 285 958 430 q 724 63 835 140 q 468 -14 614 -14 q 197 87 294 -14 q 100 371 100 189 q 164 697 100 549 q 343 926 229 845 q 602 1007 457 1007 q 864 903 769 1007 q 958 616 958 799 m 593 897 q 406 830 488 897 q 277 642 323 763 q 232 374 232 521 q 296 169 232 241 q 472 96 361 96 q 653 161 572 96 q 780 349 734 227 q 827 619 827 471 q 765 823 827 749 q 593 897 703 897 m 445 1164 q 465 1221 445 1198 q 518 1243 484 1243 q 574 1187 574 1243 q 554 1130 574 1154 q 505 1105 535 1105 q 461 1120 478 1105 q 445 1164 445 1135 m 694 1164 q 715 1221 694 1199 q 768 1243 735 1243 q 810 1228 797 1243 q 824 1187 824 1213 q 803 1129 824 1152 q 753 1105 783 1105 q 711 1120 728 1105 q 694 1164 694 1135 z "},"×":{"ha":765,"x_min":111,"x_max":685,"o":"m 326 490 l 111 707 l 182 778 l 397 561 l 615 778 l 685 708 l 467 490 l 684 273 l 615 204 l 397 421 l 182 205 l 113 275 l 326 490 z "},"Ø":{"ha":1002,"x_min":79,"x_max":991,"o":"m 958 616 q 897 285 958 430 q 724 63 835 140 q 468 -14 614 -14 q 244 50 336 -14 l 158 -57 l 79 7 l 171 121 q 100 371 100 216 q 164 697 100 549 q 343 926 229 845 q 602 1007 457 1007 q 823 935 730 1007 l 911 1044 l 991 981 l 892 859 q 941 752 924 816 q 958 616 958 689 m 593 899 q 406 831 490 899 q 277 642 323 764 q 231 374 231 521 q 257 228 231 288 l 747 842 q 593 899 685 899 m 828 619 q 807 750 828 693 l 318 143 q 472 96 380 96 q 656 163 575 96 q 783 353 738 231 q 828 619 828 474 z "},"Ù":{"ha":940,"x_min":110,"x_max":956,"o":"m 956 991 l 817 338 q 680 72 779 157 q 416 -14 582 -14 q 185 58 261 -14 q 110 261 110 129 q 126 393 110 313 l 254 991 l 378 991 l 249 386 q 238 324 243 361 q 233 262 233 287 q 281 140 233 184 q 424 96 328 96 q 602 154 538 96 q 694 347 665 213 l 832 991 l 956 991 m 672 1071 l 597 1071 q 507 1179 553 1116 q 444 1279 462 1242 l 444 1293 l 575 1293 q 672 1088 603 1202 l 672 1071 z "},"Ú":{"ha":940,"x_min":110,"x_max":956,"o":"m 956 991 l 817 338 q 680 72 779 157 q 416 -14 582 -14 q 185 58 261 -14 q 110 261 110 129 q 126 393 110 313 l 254 991 l 378 991 l 249 386 q 238 324 243 361 q 233 262 233 287 q 281 140 233 184 q 424 96 328 96 q 602 154 538 96 q 694 347 665 213 l 832 991 l 956 991 m 554 1089 q 634 1186 589 1126 q 710 1293 680 1246 l 849 1293 l 849 1279 q 749 1174 817 1240 q 631 1071 680 1107 l 554 1071 l 554 1089 z "},"Û":{"ha":940,"x_min":110,"x_max":956,"o":"m 956 991 l 817 338 q 680 72 779 157 q 416 -14 582 -14 q 185 58 261 -14 q 110 261 110 129 q 126 393 110 313 l 254 991 l 378 991 l 249 386 q 238 324 243 361 q 233 262 233 287 q 281 140 233 184 q 424 96 328 96 q 602 154 538 96 q 694 347 665 213 l 832 991 l 956 991 m 829 1071 l 753 1071 q 644 1197 715 1103 q 481 1071 557 1120 l 400 1071 l 400 1089 q 595 1293 562 1238 l 713 1293 q 801 1134 736 1231 l 829 1089 l 829 1071 z "},"Ü":{"ha":940,"x_min":110,"x_max":956,"o":"m 956 991 l 817 338 q 680 72 779 157 q 416 -14 582 -14 q 185 58 261 -14 q 110 261 110 129 q 126 393 110 313 l 254 991 l 378 991 l 249 386 q 238 324 243 361 q 233 262 233 287 q 281 140 233 184 q 424 96 328 96 q 602 154 538 96 q 694 347 665 213 l 832 991 l 956 991 m 431 1164 q 450 1221 431 1198 q 504 1243 470 1243 q 559 1187 559 1243 q 540 1130 559 1154 q 490 1105 521 1105 q 447 1120 464 1105 q 431 1164 431 1135 m 680 1164 q 701 1221 680 1199 q 754 1243 721 1243 q 796 1228 783 1243 q 810 1187 810 1213 q 789 1129 810 1152 q 739 1105 768 1105 q 697 1120 713 1105 q 680 1164 680 1135 z "},"Ý":{"ha":707,"x_min":127,"x_max":835,"o":"m 370 494 l 694 991 l 835 991 l 410 368 l 334 0 l 208 0 l 289 372 l 127 991 l 252 991 l 370 494 m 418 1089 q 498 1186 452 1126 q 574 1293 543 1246 l 713 1293 l 713 1279 q 612 1174 681 1240 q 494 1071 544 1107 l 418 1071 l 418 1089 z "},"Þ":{"ha":787,"x_min":57,"x_max":753,"o":"m 753 561 q 641 304 753 393 q 314 215 530 215 l 227 215 l 180 0 l 57 0 l 267 991 l 390 991 l 354 819 l 454 819 q 677 754 602 819 q 753 561 753 690 m 248 321 l 335 321 q 551 381 477 321 q 625 557 625 442 q 578 676 625 640 q 437 713 532 713 l 330 713 l 248 321 z "},"ß":{"ha":811,"x_min":-174,"x_max":765,"o":"m 526 1063 q 701 1014 637 1063 q 765 878 765 965 q 736 776 765 824 q 631 669 708 728 l 589 638 q 515 539 515 584 q 578 458 515 502 q 684 355 648 408 q 720 240 720 302 q 645 54 720 121 q 443 -14 570 -14 q 260 35 324 -14 l 260 147 q 335 105 289 123 q 428 86 380 86 q 550 124 506 86 q 595 227 595 163 q 576 298 595 268 q 504 370 557 328 q 420 453 445 415 q 396 532 396 490 q 409 598 396 568 q 444 652 422 627 q 528 721 465 676 q 601 777 580 756 q 634 821 623 798 q 646 869 646 844 q 610 938 646 913 q 515 962 575 962 q 390 919 435 962 q 328 791 345 876 l 143 -86 q 60 -274 116 -215 q -89 -334 4 -334 q -174 -319 -137 -334 l -174 -215 q -98 -231 -138 -231 q -26 -199 -55 -231 q 18 -94 3 -168 l 207 791 q 314 996 236 929 q 526 1063 391 1063 z "},"à":{"ha":789,"x_min":66,"x_max":764,"o":"m 268 -14 q 121 53 175 -14 q 66 240 66 119 q 114 499 66 379 q 246 689 162 620 q 432 758 330 758 q 543 725 495 758 q 619 629 591 692 l 627 629 l 671 745 l 764 745 l 606 0 l 509 0 l 526 138 l 521 138 q 268 -14 404 -14 m 309 87 q 436 149 372 87 q 539 308 500 210 q 578 507 578 406 q 541 615 578 574 q 444 656 505 656 q 317 598 376 656 q 225 444 258 541 q 192 237 192 347 q 222 125 192 162 q 309 87 253 87 m 562 842 l 487 842 q 397 949 442 886 q 334 1050 351 1013 l 334 1064 l 465 1064 q 562 859 492 972 l 562 842 z "},"á":{"ha":789,"x_min":66,"x_max":764,"o":"m 268 -14 q 121 53 175 -14 q 66 240 66 119 q 114 499 66 379 q 246 689 162 620 q 432 758 330 758 q 543 725 495 758 q 619 629 591 692 l 627 629 l 671 745 l 764 745 l 606 0 l 509 0 l 526 138 l 521 138 q 268 -14 404 -14 m 309 87 q 436 149 372 87 q 539 308 500 210 q 578 507 578 406 q 541 615 578 574 q 444 656 505 656 q 317 598 376 656 q 225 444 258 541 q 192 237 192 347 q 222 125 192 162 q 309 87 253 87 m 407 860 q 487 957 441 897 q 563 1064 532 1017 l 702 1064 l 702 1050 q 602 944 670 1011 q 484 842 533 878 l 407 842 l 407 860 z "},"â":{"ha":789,"x_min":66,"x_max":764,"o":"m 268 -14 q 121 53 175 -14 q 66 240 66 119 q 114 499 66 379 q 246 689 162 620 q 432 758 330 758 q 543 725 495 758 q 619 629 591 692 l 627 629 l 671 745 l 764 745 l 606 0 l 509 0 l 526 138 l 521 138 q 268 -14 404 -14 m 309 87 q 436 149 372 87 q 539 308 500 210 q 578 507 578 406 q 541 615 578 574 q 444 656 505 656 q 317 598 376 656 q 225 444 258 541 q 192 237 192 347 q 222 125 192 162 q 309 87 253 87 m 688 842 l 612 842 q 503 968 574 874 q 340 842 416 891 l 259 842 l 259 860 q 454 1064 420 1009 l 572 1064 q 660 905 595 1002 l 688 860 l 688 842 z "},"ã":{"ha":789,"x_min":66,"x_max":764,"o":"m 268 -14 q 121 53 175 -14 q 66 240 66 119 q 114 499 66 379 q 246 689 162 620 q 432 758 330 758 q 543 725 495 758 q 619 629 591 692 l 627 629 l 671 745 l 764 745 l 606 0 l 509 0 l 526 138 l 521 138 q 268 -14 404 -14 m 309 87 q 436 149 372 87 q 539 308 500 210 q 578 507 578 406 q 541 615 578 574 q 444 656 505 656 q 317 598 376 656 q 225 444 258 541 q 192 237 192 347 q 222 125 192 162 q 309 87 253 87 m 582 843 q 529 855 554 843 q 480 881 504 867 q 434 908 456 896 q 389 920 411 920 q 342 900 359 920 q 311 842 326 880 l 239 842 q 398 1019 277 1019 q 455 1007 429 1019 q 506 981 482 996 q 551 955 530 967 q 590 943 572 943 q 636 961 618 943 q 671 1021 654 978 l 744 1021 q 582 843 696 843 z "},"ä":{"ha":789,"x_min":66,"x_max":764,"o":"m 268 -14 q 121 53 175 -14 q 66 240 66 119 q 114 499 66 379 q 246 689 162 620 q 432 758 330 758 q 543 725 495 758 q 619 629 591 692 l 627 629 l 671 745 l 764 745 l 606 0 l 509 0 l 526 138 l 521 138 q 268 -14 404 -14 m 309 87 q 436 149 372 87 q 539 308 500 210 q 578 507 578 406 q 541 615 578 574 q 444 656 505 656 q 317 598 376 656 q 225 444 258 541 q 192 237 192 347 q 222 125 192 162 q 309 87 253 87 m 304 935 q 323 991 304 969 q 377 1014 343 1014 q 433 958 433 1014 q 413 901 433 925 q 363 876 394 876 q 320 891 337 876 q 304 935 304 906 m 553 935 q 574 992 553 970 q 627 1014 594 1014 q 669 999 656 1014 q 683 958 683 983 q 662 900 683 923 q 612 876 642 876 q 570 891 587 876 q 553 935 553 906 z "},"å":{"ha":789,"x_min":66,"x_max":764,"o":"m 268 -14 q 121 53 175 -14 q 66 240 66 119 q 114 499 66 379 q 246 689 162 620 q 432 758 330 758 q 543 725 495 758 q 619 629 591 692 l 627 629 l 671 745 l 764 745 l 606 0 l 509 0 l 526 138 l 521 138 q 268 -14 404 -14 m 309 87 q 436 149 372 87 q 539 308 500 210 q 578 507 578 406 q 541 615 578 574 q 444 656 505 656 q 317 598 376 656 q 225 444 258 541 q 192 237 192 347 q 222 125 192 162 q 309 87 253 87 m 649 989 q 607 881 649 921 q 498 842 565 842 q 389 880 431 842 q 348 987 348 919 q 390 1093 348 1053 q 498 1132 433 1132 q 607 1093 566 1132 q 649 989 649 1055 m 576 987 q 554 1044 576 1023 q 498 1064 532 1064 q 443 1044 465 1064 q 421 987 421 1023 q 441 931 421 951 q 498 911 461 911 q 554 931 532 911 q 576 987 576 951 z "},"æ":{"ha":1139,"x_min":66,"x_max":1108,"o":"m 793 -14 q 665 13 720 -14 q 582 92 610 39 l 562 0 l 481 0 l 497 138 l 492 138 q 365 19 421 52 q 245 -14 309 -14 q 114 53 162 -14 q 66 239 66 120 q 115 500 66 379 q 244 690 163 622 q 421 758 326 758 q 590 629 536 758 l 597 629 l 643 745 l 721 745 l 701 648 q 796 729 739 700 q 924 758 853 758 q 1057 712 1006 758 q 1108 585 1108 666 q 995 391 1108 460 q 675 322 882 322 l 647 322 l 644 271 q 686 136 644 185 q 815 87 728 87 q 899 100 855 87 q 1017 144 943 112 l 1017 37 q 793 -14 905 -14 m 286 87 q 410 148 349 87 q 511 308 472 208 q 550 507 550 408 q 519 616 550 576 q 437 656 489 656 q 314 598 371 656 q 225 444 258 540 q 192 239 192 347 q 217 125 192 163 q 286 87 241 87 m 900 657 q 760 594 823 657 q 665 421 697 532 l 677 421 q 906 460 825 421 q 987 572 987 499 q 964 634 987 611 q 900 657 941 657 z "},"ç":{"ha":629,"x_min":66,"x_max":640,"o":"m 343 -14 q 139 59 212 -14 q 66 264 66 132 q 116 515 66 401 q 254 694 166 629 q 456 758 342 758 q 640 722 555 758 l 606 621 q 457 656 528 656 q 321 604 382 656 q 226 463 260 552 q 192 265 192 373 q 235 134 192 180 q 355 87 278 87 q 448 101 405 87 q 534 134 492 115 l 534 31 q 343 -14 448 -14 m 404 -186 q 350 -293 404 -253 q 203 -334 295 -334 q 140 -326 165 -334 l 140 -254 q 191 -260 162 -260 q 304 -186 304 -260 q 284 -145 304 -161 q 211 -122 263 -129 l 278 0 l 355 0 l 315 -79 q 404 -186 404 -105 z "},"è":{"ha":693,"x_min":66,"x_max":652,"o":"m 432 657 q 300 592 362 657 q 211 421 239 526 l 221 421 q 450 460 369 421 q 532 575 532 500 q 507 634 532 611 q 432 657 483 657 m 336 -14 q 138 61 210 -14 q 66 267 66 135 q 116 510 66 394 q 251 692 166 626 q 439 758 336 758 q 598 712 545 758 q 652 585 652 667 q 538 392 652 461 q 216 322 424 322 l 193 322 l 191 271 q 232 136 191 185 q 358 87 273 87 q 458 102 410 87 q 561 144 506 117 l 561 40 q 444 -2 494 9 q 336 -14 393 -14 m 531 842 l 456 842 q 366 949 412 886 q 303 1050 321 1013 l 303 1064 l 434 1064 q 531 859 462 972 l 531 842 z "},"é":{"ha":693,"x_min":66,"x_max":689,"o":"m 432 657 q 300 592 362 657 q 211 421 239 526 l 221 421 q 450 460 369 421 q 532 575 532 500 q 507 634 532 611 q 432 657 483 657 m 336 -14 q 138 61 210 -14 q 66 267 66 135 q 116 510 66 394 q 251 692 166 626 q 439 758 336 758 q 598 712 545 758 q 652 585 652 667 q 538 392 652 461 q 216 322 424 322 l 193 322 l 191 271 q 232 136 191 185 q 358 87 273 87 q 458 102 410 87 q 561 144 506 117 l 561 40 q 444 -2 494 9 q 336 -14 393 -14 m 394 860 q 474 957 429 897 q 550 1064 519 1017 l 689 1064 l 689 1050 q 589 944 657 1011 q 471 842 520 878 l 394 842 l 394 860 z "},"ê":{"ha":693,"x_min":66,"x_max":663,"o":"m 432 657 q 300 592 362 657 q 211 421 239 526 l 221 421 q 450 460 369 421 q 532 575 532 500 q 507 634 532 611 q 432 657 483 657 m 336 -14 q 138 61 210 -14 q 66 267 66 135 q 116 510 66 394 q 251 692 166 626 q 439 758 336 758 q 598 712 545 758 q 652 585 652 667 q 538 392 652 461 q 216 322 424 322 l 193 322 l 191 271 q 232 136 191 185 q 358 87 273 87 q 458 102 410 87 q 561 144 506 117 l 561 40 q 444 -2 494 9 q 336 -14 393 -14 m 663 842 l 587 842 q 477 968 549 874 q 315 842 391 891 l 234 842 l 234 860 q 429 1064 395 1009 l 547 1064 q 635 905 570 1002 l 663 860 l 663 842 z "},"ë":{"ha":693,"x_min":66,"x_max":656,"o":"m 432 657 q 300 592 362 657 q 211 421 239 526 l 221 421 q 450 460 369 421 q 532 575 532 500 q 507 634 532 611 q 432 657 483 657 m 336 -14 q 138 61 210 -14 q 66 267 66 135 q 116 510 66 394 q 251 692 166 626 q 439 758 336 758 q 598 712 545 758 q 652 585 652 667 q 538 392 652 461 q 216 322 424 322 l 193 322 l 191 271 q 232 136 191 185 q 358 87 273 87 q 458 102 410 87 q 561 144 506 117 l 561 40 q 444 -2 494 9 q 336 -14 393 -14 m 277 935 q 297 991 277 969 q 351 1014 317 1014 q 406 958 406 1014 q 387 901 406 925 q 337 876 368 876 q 294 891 311 876 q 277 935 277 906 m 527 935 q 547 992 527 970 q 601 1014 568 1014 q 643 999 629 1014 q 656 958 656 983 q 636 900 656 923 q 585 876 615 876 q 544 891 560 876 q 527 935 527 906 z "},"ì":{"ha":358,"x_min":39,"x_max":338,"o":"m 161 0 l 39 0 l 197 745 l 319 745 l 161 0 m 338 842 l 263 842 q 173 949 218 886 q 110 1050 127 1013 l 110 1064 l 241 1064 q 338 859 269 972 l 338 842 z "},"í":{"ha":358,"x_min":39,"x_max":513,"o":"m 161 0 l 39 0 l 197 745 l 319 745 l 161 0 m 218 860 q 298 957 253 897 q 374 1064 344 1017 l 513 1064 l 513 1050 q 413 944 481 1011 q 295 842 345 878 l 218 842 l 218 860 z "},"î":{"ha":358,"x_min":39,"x_max":488,"o":"m 161 0 l 39 0 l 197 745 l 319 745 l 161 0 m 488 842 l 412 842 q 302 968 374 874 q 140 842 216 891 l 59 842 l 59 860 q 254 1064 220 1009 l 372 1064 q 460 905 395 1002 l 488 860 l 488 842 z "},"ï":{"ha":358,"x_min":39,"x_max":486,"o":"m 161 0 l 39 0 l 197 745 l 319 745 l 161 0 m 106 935 q 126 991 106 969 q 180 1014 146 1014 q 235 958 235 1014 q 216 901 235 925 q 166 876 197 876 q 123 891 140 876 q 106 935 106 906 m 356 935 q 376 992 356 970 q 430 1014 397 1014 q 472 999 458 1014 q 486 958 486 983 q 465 900 486 923 q 414 876 444 876 q 373 891 389 876 q 356 935 356 906 z "},"ð":{"ha":791,"x_min":60,"x_max":772,"o":"m 454 904 q 357 979 412 943 l 422 1063 q 553 960 507 1006 l 728 1057 l 772 983 l 612 895 q 697 733 671 818 q 724 553 724 649 q 674 248 724 379 q 535 51 624 116 q 326 -14 446 -14 q 131 56 202 -14 q 60 254 60 125 q 105 458 60 364 q 232 604 151 551 q 414 657 313 657 q 534 627 484 657 q 610 545 585 597 l 614 546 l 614 557 q 590 712 614 644 q 517 842 567 780 l 336 742 l 296 817 l 454 904 m 334 87 q 457 124 404 87 q 545 236 511 161 q 579 389 579 311 q 537 511 579 465 q 419 557 494 557 q 294 518 347 557 q 213 409 241 479 q 184 256 184 340 q 223 130 184 173 q 334 87 261 87 z "},"ñ":{"ha":804,"x_min":39,"x_max":754,"o":"m 614 0 l 492 0 l 590 467 q 604 562 604 534 q 581 630 604 605 q 505 656 557 656 q 392 616 447 656 q 294 500 336 576 q 229 321 251 425 l 161 0 l 39 0 l 197 745 l 297 745 l 282 607 l 289 607 q 371 694 334 665 q 449 741 407 724 q 539 758 492 758 q 676 710 627 758 q 726 575 726 663 q 711 453 726 522 l 614 0 m 592 843 q 539 855 564 843 q 490 881 514 867 q 444 908 467 896 q 399 920 421 920 q 353 900 370 920 q 321 842 336 880 l 249 842 q 408 1019 288 1019 q 466 1007 439 1019 q 516 981 492 996 q 561 955 540 967 q 600 943 582 943 q 647 961 629 943 q 681 1021 665 978 l 754 1021 q 592 843 707 843 z "},"ò":{"ha":782,"x_min":66,"x_max":717,"o":"m 591 481 q 551 606 591 559 q 440 653 510 653 q 311 603 368 653 q 222 464 253 553 q 191 271 191 376 q 232 137 191 184 q 351 90 274 90 q 474 139 419 90 q 561 276 530 187 q 591 481 591 365 m 717 467 q 668 225 717 338 q 535 51 619 112 q 345 -11 451 -11 q 140 66 214 -11 q 66 275 66 144 q 117 519 66 406 q 251 694 167 633 q 439 754 334 754 q 643 677 568 754 q 717 467 717 600 m 544 842 l 469 842 q 379 949 425 886 q 316 1050 334 1013 l 316 1064 l 447 1064 q 544 859 475 972 l 544 842 z "},"ó":{"ha":782,"x_min":66,"x_max":717,"o":"m 591 481 q 551 606 591 559 q 440 653 510 653 q 311 603 368 653 q 222 464 253 553 q 191 271 191 376 q 232 137 191 184 q 351 90 274 90 q 474 139 419 90 q 561 276 530 187 q 591 481 591 365 m 717 467 q 668 225 717 338 q 535 51 619 112 q 345 -11 451 -11 q 140 66 214 -11 q 66 275 66 144 q 117 519 66 406 q 251 694 167 633 q 439 754 334 754 q 643 677 568 754 q 717 467 717 600 m 398 860 q 478 957 433 897 q 554 1064 524 1017 l 693 1064 l 693 1050 q 593 944 661 1011 q 475 842 524 878 l 398 842 l 398 860 z "},"ô":{"ha":782,"x_min":66,"x_max":717,"o":"m 591 481 q 551 606 591 559 q 440 653 510 653 q 311 603 368 653 q 222 464 253 553 q 191 271 191 376 q 232 137 191 184 q 351 90 274 90 q 474 139 419 90 q 561 276 530 187 q 591 481 591 365 m 717 467 q 668 225 717 338 q 535 51 619 112 q 345 -11 451 -11 q 140 66 214 -11 q 66 275 66 144 q 117 519 66 406 q 251 694 167 633 q 439 754 334 754 q 643 677 568 754 q 717 467 717 600 m 683 842 l 606 842 q 497 968 568 874 q 334 842 411 891 l 254 842 l 254 860 q 448 1064 415 1009 l 566 1064 q 654 905 589 1002 l 683 860 l 683 842 z "},"õ":{"ha":782,"x_min":66,"x_max":736,"o":"m 591 481 q 551 606 591 559 q 440 653 510 653 q 311 603 368 653 q 222 464 253 553 q 191 271 191 376 q 232 137 191 184 q 351 90 274 90 q 474 139 419 90 q 561 276 530 187 q 591 481 591 365 m 717 467 q 668 225 717 338 q 535 51 619 112 q 345 -11 451 -11 q 140 66 214 -11 q 66 275 66 144 q 117 519 66 406 q 251 694 167 633 q 439 754 334 754 q 643 677 568 754 q 717 467 717 600 m 574 843 q 521 855 546 843 q 472 881 496 867 q 426 908 448 896 q 380 920 403 920 q 334 900 351 920 q 302 842 317 880 l 231 842 q 390 1019 269 1019 q 447 1007 420 1019 q 498 981 474 996 q 543 955 522 967 q 582 943 564 943 q 628 961 610 943 q 663 1021 646 978 l 736 1021 q 574 843 688 843 z "},"ö":{"ha":782,"x_min":66,"x_max":717,"o":"m 591 481 q 551 606 591 559 q 440 653 510 653 q 311 603 368 653 q 222 464 253 553 q 191 271 191 376 q 232 137 191 184 q 351 90 274 90 q 474 139 419 90 q 561 276 530 187 q 591 481 591 365 m 717 467 q 668 225 717 338 q 535 51 619 112 q 345 -11 451 -11 q 140 66 214 -11 q 66 275 66 144 q 117 519 66 406 q 251 694 167 633 q 439 754 334 754 q 643 677 568 754 q 717 467 717 600 m 291 935 q 311 991 291 969 q 364 1014 330 1014 q 420 958 420 1014 q 400 901 420 925 q 351 876 381 876 q 308 891 324 876 q 291 935 291 906 m 541 935 q 561 992 541 970 q 614 1014 581 1014 q 656 999 643 1014 q 670 958 670 983 q 649 900 670 923 q 599 876 629 876 q 557 891 574 876 q 541 935 541 906 z "},"÷":{"ha":765,"x_min":85,"x_max":711,"o":"m 85 439 l 85 541 l 711 541 l 711 439 l 85 439 m 321 253 q 397 336 321 336 q 454 316 433 336 q 475 253 475 295 q 454 191 475 212 q 397 170 433 170 q 343 189 365 170 q 321 253 321 208 m 321 726 q 397 810 321 810 q 454 789 433 810 q 475 726 475 768 q 454 664 475 685 q 397 643 433 643 q 343 662 365 643 q 321 726 321 682 z "},"ø":{"ha":782,"x_min":40,"x_max":750,"o":"m 714 478 q 664 227 714 344 q 531 50 613 110 q 346 -11 449 -11 q 180 32 249 -11 l 114 -53 l 40 4 l 115 97 q 68 275 68 168 q 117 518 68 404 q 250 693 166 632 q 439 754 334 754 q 608 710 539 754 l 676 794 l 750 739 l 672 653 q 714 478 714 587 m 440 654 q 310 605 369 654 q 218 470 251 556 q 186 283 186 383 q 197 199 186 224 l 539 624 q 440 654 500 654 m 351 87 q 476 136 419 87 q 564 271 532 184 q 596 465 596 358 q 587 539 596 514 l 249 117 q 351 87 285 87 z "},"ù":{"ha":804,"x_min":77,"x_max":764,"o":"m 189 745 l 313 745 l 212 277 q 200 183 200 216 q 297 87 200 87 q 411 127 356 87 q 510 244 467 168 q 575 424 553 320 l 643 745 l 764 745 l 606 0 l 505 0 l 521 138 l 514 138 q 391 22 453 58 q 262 -14 330 -14 q 126 35 176 -14 q 77 171 77 83 q 92 290 77 214 l 189 745 m 545 842 l 471 842 q 380 949 426 886 q 317 1050 335 1013 l 317 1064 l 448 1064 q 545 859 476 972 l 545 842 z "},"ú":{"ha":804,"x_min":77,"x_max":764,"o":"m 189 745 l 313 745 l 212 277 q 200 183 200 216 q 297 87 200 87 q 411 127 356 87 q 510 244 467 168 q 575 424 553 320 l 643 745 l 764 745 l 606 0 l 505 0 l 521 138 l 514 138 q 391 22 453 58 q 262 -14 330 -14 q 126 35 176 -14 q 77 171 77 83 q 92 290 77 214 l 189 745 m 430 860 q 510 957 465 897 q 586 1064 555 1017 l 725 1064 l 725 1050 q 625 944 693 1011 q 507 842 556 878 l 430 842 l 430 860 z "},"û":{"ha":804,"x_min":77,"x_max":764,"o":"m 189 745 l 313 745 l 212 277 q 200 183 200 216 q 297 87 200 87 q 411 127 356 87 q 510 244 467 168 q 575 424 553 320 l 643 745 l 764 745 l 606 0 l 505 0 l 521 138 l 514 138 q 391 22 453 58 q 262 -14 330 -14 q 126 35 176 -14 q 77 171 77 83 q 92 290 77 214 l 189 745 m 703 842 l 626 842 q 517 968 588 874 q 354 842 431 891 l 273 842 l 273 860 q 468 1064 435 1009 l 586 1064 q 674 905 609 1002 l 703 860 l 703 842 z "},"ü":{"ha":804,"x_min":77,"x_max":764,"o":"m 189 745 l 313 745 l 212 277 q 200 183 200 216 q 297 87 200 87 q 411 127 356 87 q 510 244 467 168 q 575 424 553 320 l 643 745 l 764 745 l 606 0 l 505 0 l 521 138 l 514 138 q 391 22 453 58 q 262 -14 330 -14 q 126 35 176 -14 q 77 171 77 83 q 92 290 77 214 l 189 745 m 307 935 q 327 991 307 969 q 380 1014 347 1014 q 436 958 436 1014 q 417 901 436 925 q 367 876 397 876 q 324 891 340 876 q 307 935 307 906 m 557 935 q 577 992 557 970 q 631 1014 597 1014 q 673 999 659 1014 q 686 958 686 983 q 666 900 686 923 q 615 876 645 876 q 573 891 590 876 q 557 935 557 906 z "},"ý":{"ha":648,"x_min":-131,"x_max":715,"o":"m 66 745 l 189 745 l 237 376 q 250 244 245 326 q 256 100 256 163 l 260 100 q 313 221 277 144 q 368 336 348 298 l 585 745 l 715 745 l 243 -125 q 118 -287 182 -240 q -35 -334 54 -334 q -131 -319 -88 -334 l -131 -221 q -41 -233 -88 -233 q 54 -198 14 -233 q 131 -97 94 -163 l 179 -11 l 66 745 m 339 860 q 419 957 374 897 q 495 1064 465 1017 l 634 1064 l 634 1050 q 534 944 602 1011 q 416 842 465 878 l 339 842 l 339 860 z "},"þ":{"ha":804,"x_min":-31,"x_max":736,"o":"m 533 757 q 682 690 629 757 q 736 503 736 623 q 688 239 736 360 q 558 52 640 117 q 375 -14 476 -14 q 261 19 312 -14 q 182 114 211 52 l 175 114 q 158 -12 170 43 l 90 -334 l -31 -334 l -6 -217 l 262 1055 l 385 1055 l 332 807 q 281 606 304 686 l 286 606 q 413 723 354 688 q 533 757 471 757 m 493 656 q 367 595 432 656 q 262 437 302 535 q 222 237 222 340 q 258 126 222 165 q 364 87 294 87 q 488 143 431 87 q 578 297 545 199 q 611 505 611 396 q 493 656 611 656 z "},"ÿ":{"ha":648,"x_min":-131,"x_max":715,"o":"m 66 745 l 189 745 l 237 376 q 250 244 245 326 q 256 100 256 163 l 260 100 q 313 221 277 144 q 368 336 348 298 l 585 745 l 715 745 l 243 -125 q 118 -287 182 -240 q -35 -334 54 -334 q -131 -319 -88 -334 l -131 -221 q -41 -233 -88 -233 q 54 -198 14 -233 q 131 -97 94 -163 l 179 -11 l 66 745 m 226 935 q 245 991 226 969 q 299 1014 265 1014 q 355 958 355 1014 q 335 901 355 925 q 286 876 316 876 q 242 891 259 876 q 226 935 226 906 m 475 935 q 496 992 475 970 q 549 1014 516 1014 q 591 999 578 1014 q 605 958 605 983 q 584 900 605 923 q 534 876 564 876 q 492 891 509 876 q 475 935 475 906 z "},"Ā":{"ha":781,"x_min":-79,"x_max":737,"o":"m 553 309 l 218 309 l 57 0 l -79 0 l 460 991 l 590 991 l 713 0 l 590 0 l 553 309 m 541 419 l 518 627 q 500 860 500 781 q 452 755 478 808 q 278 419 427 703 l 541 419 m 363 1169 l 737 1169 l 716 1071 l 342 1071 l 363 1169 z "},"ā":{"ha":789,"x_min":66,"x_max":764,"o":"m 268 -14 q 121 53 175 -14 q 66 240 66 119 q 114 499 66 379 q 246 689 162 620 q 432 758 330 758 q 543 725 495 758 q 619 629 591 692 l 627 629 l 671 745 l 764 745 l 606 0 l 509 0 l 526 138 l 521 138 q 268 -14 404 -14 m 309 87 q 436 149 372 87 q 539 308 500 210 q 578 507 578 406 q 541 615 578 574 q 444 656 505 656 q 317 598 376 656 q 225 444 258 541 q 192 237 192 347 q 222 125 192 162 q 309 87 253 87 m 318 940 l 692 940 l 671 842 l 297 842 l 318 940 z "},"Ă":{"ha":781,"x_min":-79,"x_max":755,"o":"m 553 309 l 218 309 l 57 0 l -79 0 l 460 991 l 590 991 l 713 0 l 590 0 l 553 309 m 541 419 l 518 627 q 500 860 500 781 q 452 755 478 808 q 278 419 427 703 l 541 419 m 755 1257 q 529 1071 713 1071 q 404 1112 451 1071 q 357 1226 357 1154 l 357 1241 l 358 1257 l 431 1257 q 455 1195 431 1217 q 541 1173 480 1173 q 679 1257 656 1173 l 755 1257 z "},"ă":{"ha":789,"x_min":66,"x_max":764,"o":"m 268 -14 q 121 53 175 -14 q 66 240 66 119 q 114 499 66 379 q 246 689 162 620 q 432 758 330 758 q 543 725 495 758 q 619 629 591 692 l 627 629 l 671 745 l 764 745 l 606 0 l 509 0 l 526 138 l 521 138 q 268 -14 404 -14 m 309 87 q 436 149 372 87 q 539 308 500 210 q 578 507 578 406 q 541 615 578 574 q 444 656 505 656 q 317 598 376 656 q 225 444 258 541 q 192 237 192 347 q 222 125 192 162 q 309 87 253 87 m 718 1028 q 492 842 675 842 q 367 883 414 842 q 319 997 319 924 l 319 1012 l 321 1028 l 393 1028 q 418 965 393 987 q 504 943 443 943 q 642 1028 619 943 l 718 1028 z "},"Ą":{"ha":781,"x_min":-79,"x_max":713,"o":"m 553 309 l 218 309 l 57 0 l -79 0 l 460 991 l 590 991 l 713 0 l 590 0 l 553 309 m 541 419 l 518 627 q 500 860 500 781 q 452 755 478 808 q 278 419 427 703 l 541 419 m 680 0 q 576 -101 602 -63 q 551 -175 551 -139 q 597 -221 551 -221 q 653 -215 624 -221 l 653 -292 q 575 -301 622 -301 q 484 -272 516 -301 q 452 -191 452 -243 q 483 -95 452 -138 q 596 0 514 -52 l 680 0 z "},"ą":{"ha":789,"x_min":66,"x_max":764,"o":"m 268 -14 q 121 53 175 -14 q 66 240 66 119 q 114 499 66 379 q 246 689 162 620 q 432 758 330 758 q 543 725 495 758 q 619 629 591 692 l 627 629 l 671 745 l 764 745 l 606 0 l 509 0 l 526 138 l 521 138 q 268 -14 404 -14 m 309 87 q 436 149 372 87 q 539 308 500 210 q 578 507 578 406 q 541 615 578 574 q 444 656 505 656 q 317 598 376 656 q 225 444 258 541 q 192 237 192 347 q 222 125 192 162 q 309 87 253 87 m 590 0 q 486 -101 511 -63 q 461 -175 461 -139 q 507 -221 461 -221 q 563 -215 534 -221 l 563 -292 q 485 -301 532 -301 q 394 -272 426 -301 q 361 -191 361 -243 q 393 -95 361 -138 q 506 0 424 -52 l 590 0 z "},"Ć":{"ha":815,"x_min":100,"x_max":878,"o":"m 636 896 q 427 829 517 896 q 284 637 336 762 q 232 368 232 513 q 296 169 232 241 q 475 96 361 96 q 694 136 572 96 l 694 28 q 453 -14 584 -14 q 193 88 287 -14 q 100 366 100 189 q 170 692 100 540 q 362 925 241 844 q 636 1006 484 1006 q 878 950 776 1006 l 828 847 q 636 896 734 896 m 566 1089 q 646 1186 601 1126 q 722 1293 692 1246 l 861 1293 l 861 1279 q 761 1174 829 1240 q 643 1071 692 1107 l 566 1071 l 566 1089 z "},"ć":{"ha":629,"x_min":66,"x_max":698,"o":"m 343 -14 q 139 59 212 -14 q 66 264 66 132 q 116 515 66 401 q 254 694 166 629 q 456 758 342 758 q 640 722 555 758 l 606 621 q 457 656 528 656 q 321 604 382 656 q 226 463 260 552 q 192 265 192 373 q 235 134 192 180 q 355 87 278 87 q 448 101 405 87 q 534 134 492 115 l 534 31 q 343 -14 448 -14 m 403 860 q 483 957 437 897 q 559 1064 528 1017 l 698 1064 l 698 1050 q 597 944 666 1011 q 479 842 529 878 l 403 842 l 403 860 z "},"Ĉ":{"ha":815,"x_min":100,"x_max":878,"o":"m 636 896 q 427 829 517 896 q 284 637 336 762 q 232 368 232 513 q 296 169 232 241 q 475 96 361 96 q 694 136 572 96 l 694 28 q 453 -14 584 -14 q 193 88 287 -14 q 100 366 100 189 q 170 692 100 540 q 362 925 241 844 q 636 1006 484 1006 q 878 950 776 1006 l 828 847 q 636 896 734 896 m 836 1071 l 760 1071 q 650 1197 722 1103 q 488 1071 564 1120 l 407 1071 l 407 1089 q 602 1293 568 1238 l 720 1293 q 808 1134 743 1231 l 836 1089 l 836 1071 z "},"ĉ":{"ha":629,"x_min":66,"x_max":661,"o":"m 343 -14 q 139 59 212 -14 q 66 264 66 132 q 116 515 66 401 q 254 694 166 629 q 456 758 342 758 q 640 722 555 758 l 606 621 q 457 656 528 656 q 321 604 382 656 q 226 463 260 552 q 192 265 192 373 q 235 134 192 180 q 355 87 278 87 q 448 101 405 87 q 534 134 492 115 l 534 31 q 343 -14 448 -14 m 661 842 l 584 842 q 475 968 546 874 q 312 842 389 891 l 231 842 l 231 860 q 426 1064 393 1009 l 544 1064 q 632 905 567 1002 l 661 860 l 661 842 z "},"Ċ":{"ha":815,"x_min":100,"x_max":878,"o":"m 636 896 q 427 829 517 896 q 284 637 336 762 q 232 368 232 513 q 296 169 232 241 q 475 96 361 96 q 694 136 572 96 l 694 28 q 453 -14 584 -14 q 193 88 287 -14 q 100 366 100 189 q 170 692 100 540 q 362 925 241 844 q 636 1006 484 1006 q 878 950 776 1006 l 828 847 q 636 896 734 896 m 555 1162 q 577 1226 555 1201 q 636 1251 600 1251 q 701 1189 701 1251 q 677 1123 701 1149 q 621 1097 653 1097 q 574 1114 593 1097 q 555 1162 555 1131 z "},"ċ":{"ha":629,"x_min":66,"x_max":640,"o":"m 343 -14 q 139 59 212 -14 q 66 264 66 132 q 116 515 66 401 q 254 694 166 629 q 456 758 342 758 q 640 722 555 758 l 606 621 q 457 656 528 656 q 321 604 382 656 q 226 463 260 552 q 192 265 192 373 q 235 134 192 180 q 355 87 278 87 q 448 101 405 87 q 534 134 492 115 l 534 31 q 343 -14 448 -14 m 406 933 q 428 997 406 972 q 487 1022 451 1022 q 551 960 551 1022 q 528 894 551 920 q 472 868 504 868 q 425 885 444 868 q 406 933 406 902 z "},"Č":{"ha":815,"x_min":100,"x_max":878,"o":"m 636 896 q 427 829 517 896 q 284 637 336 762 q 232 368 232 513 q 296 169 232 241 q 475 96 361 96 q 694 136 572 96 l 694 28 q 453 -14 584 -14 q 193 88 287 -14 q 100 366 100 189 q 170 692 100 540 q 362 925 241 844 q 636 1006 484 1006 q 878 950 776 1006 l 828 847 q 636 896 734 896 m 422 1293 l 496 1293 q 606 1166 539 1259 q 772 1293 691 1242 l 852 1293 l 852 1275 l 807 1234 q 656 1071 695 1132 l 536 1071 q 452 1230 513 1135 l 422 1275 l 422 1293 z "},"č":{"ha":629,"x_min":66,"x_max":696,"o":"m 343 -14 q 139 59 212 -14 q 66 264 66 132 q 116 515 66 401 q 254 694 166 629 q 456 758 342 758 q 640 722 555 758 l 606 621 q 457 656 528 656 q 321 604 382 656 q 226 463 260 552 q 192 265 192 373 q 235 134 192 180 q 355 87 278 87 q 448 101 405 87 q 534 134 492 115 l 534 31 q 343 -14 448 -14 m 267 1064 l 340 1064 q 450 937 384 1030 q 617 1064 536 1013 l 696 1064 l 696 1046 l 652 1004 q 500 842 540 903 l 381 842 q 296 1001 358 906 l 267 1046 l 267 1064 z "},"Ď":{"ha":926,"x_min":57,"x_max":884,"o":"m 884 596 q 813 282 884 418 q 610 73 743 146 q 301 0 477 0 l 57 0 l 267 991 l 501 991 q 786 890 688 991 q 884 596 884 789 m 309 107 q 544 169 443 107 q 699 341 645 230 q 753 597 753 453 q 685 812 753 739 q 486 885 617 885 l 368 885 l 203 107 l 309 107 m 375 1293 l 448 1293 q 558 1166 492 1259 q 725 1293 644 1242 l 804 1293 l 804 1275 l 760 1234 q 608 1071 648 1132 l 489 1071 q 404 1230 466 1135 l 375 1275 l 375 1293 z "},"ď":{"ha":804,"x_min":66,"x_max":1063,"o":"m 268 -14 q 120 52 174 -14 q 66 240 66 118 q 114 503 66 382 q 245 690 161 623 q 432 757 329 757 q 619 629 561 757 l 627 629 q 657 812 642 745 l 708 1055 l 829 1055 l 606 0 l 505 0 l 521 138 l 515 138 q 391 22 450 57 q 268 -14 332 -14 m 310 87 q 438 151 373 87 q 541 310 503 214 q 579 505 579 406 q 544 617 579 578 q 440 656 509 656 q 316 599 373 656 q 225 445 259 543 q 192 237 192 347 q 310 87 192 87 m 847 851 q 901 949 868 882 q 947 1055 933 1016 l 1063 1055 l 1063 1042 q 1002 939 1048 1006 q 915 833 955 873 l 847 833 l 847 851 z "},"Đ":{"ha":926,"x_min":46,"x_max":884,"o":"m 884 596 q 813 282 884 418 q 610 73 743 146 q 301 0 477 0 l 57 0 l 147 437 l 46 437 l 69 545 l 171 545 l 267 991 l 501 991 q 786 890 688 991 q 884 596 884 789 m 309 107 q 544 169 443 107 q 699 341 645 230 q 753 597 753 453 q 685 812 753 739 q 486 885 617 885 l 368 885 l 296 545 l 514 545 l 490 437 l 272 437 l 203 107 l 309 107 z "},"đ":{"ha":804,"x_min":66,"x_max":904,"o":"m 428 758 q 541 726 491 758 q 619 632 591 694 l 627 632 l 634 691 q 661 839 639 727 l 414 839 l 432 930 l 684 930 l 708 1055 l 829 1055 l 803 930 l 904 930 l 885 839 l 783 839 l 606 0 l 505 0 l 521 138 l 515 138 q 389 21 448 55 q 268 -14 330 -14 q 120 53 174 -14 q 66 240 66 119 q 113 502 66 382 q 241 690 159 621 q 428 758 323 758 m 310 87 q 437 150 372 87 q 540 309 501 213 q 579 505 579 405 q 543 618 579 579 q 439 657 507 657 q 314 601 371 657 q 225 444 258 544 q 192 237 192 344 q 310 87 192 87 z "},"Ē":{"ha":714,"x_min":57,"x_max":770,"o":"m 559 0 l 57 0 l 267 991 l 770 991 l 746 882 l 367 882 l 301 572 l 656 572 l 635 464 l 279 464 l 203 110 l 583 110 l 559 0 m 355 1169 l 729 1169 l 708 1071 l 334 1071 l 355 1169 z "},"ē":{"ha":693,"x_min":66,"x_max":668,"o":"m 432 657 q 300 592 362 657 q 211 421 239 526 l 221 421 q 450 460 369 421 q 532 575 532 500 q 507 634 532 611 q 432 657 483 657 m 336 -14 q 138 61 210 -14 q 66 267 66 135 q 116 510 66 394 q 251 692 166 626 q 439 758 336 758 q 598 712 545 758 q 652 585 652 667 q 538 392 652 461 q 216 322 424 322 l 193 322 l 191 271 q 232 136 191 185 q 358 87 273 87 q 458 102 410 87 q 561 144 506 117 l 561 40 q 444 -2 494 9 q 336 -14 393 -14 m 294 940 l 668 940 l 647 842 l 273 842 l 294 940 z "},"Ĕ":{"ha":714,"x_min":57,"x_max":770,"o":"m 559 0 l 57 0 l 267 991 l 770 991 l 746 882 l 367 882 l 301 572 l 656 572 l 635 464 l 279 464 l 203 110 l 583 110 l 559 0 m 758 1257 q 532 1071 715 1071 q 407 1112 454 1071 q 359 1226 359 1154 l 359 1241 l 361 1257 l 433 1257 q 458 1195 433 1217 q 544 1173 483 1173 q 682 1257 659 1173 l 758 1257 z "},"ĕ":{"ha":693,"x_min":66,"x_max":688,"o":"m 432 657 q 300 592 362 657 q 211 421 239 526 l 221 421 q 450 460 369 421 q 532 575 532 500 q 507 634 532 611 q 432 657 483 657 m 336 -14 q 138 61 210 -14 q 66 267 66 135 q 116 510 66 394 q 251 692 166 626 q 439 758 336 758 q 598 712 545 758 q 652 585 652 667 q 538 392 652 461 q 216 322 424 322 l 193 322 l 191 271 q 232 136 191 185 q 358 87 273 87 q 458 102 410 87 q 561 144 506 117 l 561 40 q 444 -2 494 9 q 336 -14 393 -14 m 688 1028 q 462 842 646 842 q 337 883 384 842 q 290 997 290 924 l 290 1012 l 291 1028 l 363 1028 q 388 965 363 987 q 474 943 413 943 q 612 1028 589 943 l 688 1028 z "},"Ė":{"ha":714,"x_min":57,"x_max":770,"o":"m 559 0 l 57 0 l 267 991 l 770 991 l 746 882 l 367 882 l 301 572 l 656 572 l 635 464 l 279 464 l 203 110 l 583 110 l 559 0 m 453 1143 q 476 1206 453 1181 q 534 1232 498 1232 q 599 1169 599 1232 q 575 1104 599 1130 q 519 1078 551 1078 q 472 1095 491 1078 q 453 1143 453 1112 z "},"ė":{"ha":693,"x_min":66,"x_max":652,"o":"m 432 657 q 300 592 362 657 q 211 421 239 526 l 221 421 q 450 460 369 421 q 532 575 532 500 q 507 634 532 611 q 432 657 483 657 m 336 -14 q 138 61 210 -14 q 66 267 66 135 q 116 510 66 394 q 251 692 166 626 q 439 758 336 758 q 598 712 545 758 q 652 585 652 667 q 538 392 652 461 q 216 322 424 322 l 193 322 l 191 271 q 232 136 191 185 q 358 87 273 87 q 458 102 410 87 q 561 144 506 117 l 561 40 q 444 -2 494 9 q 336 -14 393 -14 m 396 933 q 419 997 396 972 q 477 1022 441 1022 q 542 960 542 1022 q 518 894 542 920 q 463 868 494 868 q 415 885 434 868 q 396 933 396 902 z "},"Ę":{"ha":714,"x_min":57,"x_max":770,"o":"m 559 0 l 57 0 l 267 991 l 770 991 l 746 882 l 367 882 l 301 572 l 656 572 l 635 464 l 279 464 l 203 110 l 583 110 l 559 0 m 524 0 q 420 -101 445 -63 q 395 -175 395 -139 q 441 -221 395 -221 q 496 -215 467 -221 l 496 -292 q 418 -301 465 -301 q 327 -272 359 -301 q 295 -191 295 -243 q 326 -95 295 -138 q 439 0 357 -52 l 524 0 z "},"ę":{"ha":693,"x_min":66,"x_max":652,"o":"m 432 657 q 300 592 362 657 q 211 421 239 526 l 221 421 q 450 460 369 421 q 532 575 532 500 q 507 634 532 611 q 432 657 483 657 m 336 -14 q 138 61 210 -14 q 66 267 66 135 q 116 510 66 394 q 251 692 166 626 q 439 758 336 758 q 598 712 545 758 q 652 585 652 667 q 538 392 652 461 q 216 322 424 322 l 193 322 l 191 271 q 232 136 191 185 q 358 87 273 87 q 458 102 410 87 q 561 144 506 117 l 561 40 q 444 -2 494 9 q 336 -14 393 -14 m 493 21 q 389 -80 414 -42 q 364 -154 364 -118 q 410 -200 364 -200 q 466 -194 437 -200 l 466 -271 q 388 -280 435 -280 q 297 -251 329 -280 q 264 -170 264 -222 q 296 -74 264 -117 q 409 21 327 -31 l 493 21 z "},"Ě":{"ha":714,"x_min":57,"x_max":772,"o":"m 559 0 l 57 0 l 267 991 l 770 991 l 746 882 l 367 882 l 301 572 l 656 572 l 635 464 l 279 464 l 203 110 l 583 110 l 559 0 m 343 1293 l 416 1293 q 526 1166 460 1259 q 693 1293 612 1242 l 772 1293 l 772 1275 l 728 1234 q 576 1071 616 1132 l 457 1071 q 372 1230 434 1135 l 343 1275 l 343 1293 z "},"ě":{"ha":693,"x_min":66,"x_max":701,"o":"m 432 657 q 300 592 362 657 q 211 421 239 526 l 221 421 q 450 460 369 421 q 532 575 532 500 q 507 634 532 611 q 432 657 483 657 m 336 -14 q 138 61 210 -14 q 66 267 66 135 q 116 510 66 394 q 251 692 166 626 q 439 758 336 758 q 598 712 545 758 q 652 585 652 667 q 538 392 652 461 q 216 322 424 322 l 193 322 l 191 271 q 232 136 191 185 q 358 87 273 87 q 458 102 410 87 q 561 144 506 117 l 561 40 q 444 -2 494 9 q 336 -14 393 -14 m 272 1064 l 345 1064 q 455 937 389 1030 q 622 1064 541 1013 l 701 1064 l 701 1046 l 656 1004 q 505 842 545 903 l 386 842 q 301 1001 363 906 l 272 1046 l 272 1064 z "},"Ĝ":{"ha":942,"x_min":100,"x_max":922,"o":"m 553 522 l 871 522 l 765 37 q 615 -2 683 9 q 476 -14 548 -14 q 199 85 298 -14 q 100 359 100 184 q 170 691 100 541 q 362 924 239 842 q 635 1006 484 1006 q 783 992 714 1006 q 922 947 852 979 l 875 839 q 764 879 823 862 q 633 896 705 896 q 428 828 521 896 q 284 639 336 760 q 232 368 232 518 q 299 168 232 240 q 489 96 367 96 q 660 121 585 96 l 724 414 l 529 414 l 553 522 m 832 1071 l 755 1071 q 646 1197 718 1103 q 484 1071 560 1120 l 403 1071 l 403 1089 q 597 1293 564 1238 l 715 1293 q 804 1134 739 1231 l 832 1089 l 832 1071 z "},"ĝ":{"ha":804,"x_min":35,"x_max":765,"o":"m 310 87 q 435 149 371 87 q 539 309 500 211 q 578 505 578 407 q 441 656 578 656 q 315 598 373 656 q 225 443 258 541 q 192 237 192 345 q 310 87 192 87 m 258 -334 q 35 -286 125 -334 l 35 -174 q 140 -216 77 -199 q 254 -232 203 -232 q 398 -188 345 -232 q 473 -52 452 -144 l 508 91 l 521 138 l 515 138 q 393 22 454 58 q 269 -14 332 -14 q 121 53 175 -14 q 66 240 66 119 q 116 507 66 386 q 248 693 165 628 q 432 758 330 758 q 621 629 562 758 l 627 629 l 672 745 l 765 745 l 596 -43 q 482 -263 564 -192 q 258 -334 400 -334 m 674 842 l 597 842 q 488 968 559 874 q 326 842 402 891 l 245 842 l 245 860 q 439 1064 406 1009 l 557 1064 q 646 905 581 1002 l 674 860 l 674 842 z "},"Ğ":{"ha":942,"x_min":100,"x_max":922,"o":"m 553 522 l 871 522 l 765 37 q 615 -2 683 9 q 476 -14 548 -14 q 199 85 298 -14 q 100 359 100 184 q 170 691 100 541 q 362 924 239 842 q 635 1006 484 1006 q 783 992 714 1006 q 922 947 852 979 l 875 839 q 764 879 823 862 q 633 896 705 896 q 428 828 521 896 q 284 639 336 760 q 232 368 232 518 q 299 168 232 240 q 489 96 367 96 q 660 121 585 96 l 724 414 l 529 414 l 553 522 m 843 1257 q 616 1071 800 1071 q 491 1112 538 1071 q 444 1226 444 1154 l 444 1241 l 446 1257 l 518 1257 q 543 1195 518 1217 q 629 1173 568 1173 q 766 1257 744 1173 l 843 1257 z "},"ğ":{"ha":804,"x_min":35,"x_max":765,"o":"m 310 87 q 435 149 371 87 q 539 309 500 211 q 578 505 578 407 q 441 656 578 656 q 315 598 373 656 q 225 443 258 541 q 192 237 192 345 q 310 87 192 87 m 258 -334 q 35 -286 125 -334 l 35 -174 q 140 -216 77 -199 q 254 -232 203 -232 q 398 -188 345 -232 q 473 -52 452 -144 l 508 91 l 521 138 l 515 138 q 393 22 454 58 q 269 -14 332 -14 q 121 53 175 -14 q 66 240 66 119 q 116 507 66 386 q 248 693 165 628 q 432 758 330 758 q 621 629 562 758 l 627 629 l 672 745 l 765 745 l 596 -43 q 482 -263 564 -192 q 258 -334 400 -334 m 695 1028 q 469 842 652 842 q 343 883 391 842 q 296 997 296 924 l 296 1012 l 298 1028 l 370 1028 q 395 965 370 987 q 481 943 420 943 q 618 1028 596 943 l 695 1028 z "},"Ġ":{"ha":942,"x_min":100,"x_max":922,"o":"m 553 522 l 871 522 l 765 37 q 615 -2 683 9 q 476 -14 548 -14 q 199 85 298 -14 q 100 359 100 184 q 170 691 100 541 q 362 924 239 842 q 635 1006 484 1006 q 783 992 714 1006 q 922 947 852 979 l 875 839 q 764 879 823 862 q 633 896 705 896 q 428 828 521 896 q 284 639 336 760 q 232 368 232 518 q 299 168 232 240 q 489 96 367 96 q 660 121 585 96 l 724 414 l 529 414 l 553 522 m 563 1162 q 586 1226 563 1201 q 644 1251 608 1251 q 709 1189 709 1251 q 685 1123 709 1149 q 629 1097 661 1097 q 582 1114 601 1097 q 563 1162 563 1131 z "},"ġ":{"ha":804,"x_min":35,"x_max":765,"o":"m 310 87 q 435 149 371 87 q 539 309 500 211 q 578 505 578 407 q 441 656 578 656 q 315 598 373 656 q 225 443 258 541 q 192 237 192 345 q 310 87 192 87 m 258 -334 q 35 -286 125 -334 l 35 -174 q 140 -216 77 -199 q 254 -232 203 -232 q 398 -188 345 -232 q 473 -52 452 -144 l 508 91 l 521 138 l 515 138 q 393 22 454 58 q 269 -14 332 -14 q 121 53 175 -14 q 66 240 66 119 q 116 507 66 386 q 248 693 165 628 q 432 758 330 758 q 621 629 562 758 l 627 629 l 672 745 l 765 745 l 596 -43 q 482 -263 564 -192 q 258 -334 400 -334 m 414 933 q 437 997 414 972 q 496 1022 460 1022 q 560 960 560 1022 q 536 894 560 920 q 481 868 513 868 q 433 885 452 868 q 414 933 414 902 z "},"Ģ":{"ha":942,"x_min":100,"x_max":922,"o":"m 553 522 l 871 522 l 765 37 q 615 -2 683 9 q 476 -14 548 -14 q 199 85 298 -14 q 100 359 100 184 q 170 691 100 541 q 362 924 239 842 q 635 1006 484 1006 q 783 992 714 1006 q 922 947 852 979 l 875 839 q 764 879 823 862 q 633 896 705 896 q 428 828 521 896 q 284 639 336 760 q 232 368 232 518 q 299 168 232 240 q 489 96 367 96 q 660 121 585 96 l 724 414 l 529 414 l 553 522 m 307 -289 q 360 -190 332 -248 q 406 -85 388 -133 l 521 -85 l 521 -98 q 461 -200 508 -133 q 374 -307 415 -268 l 307 -307 l 307 -289 z "},"ģ":{"ha":804,"x_min":35,"x_max":765,"o":"m 310 87 q 435 149 371 87 q 539 309 500 211 q 578 505 578 407 q 441 656 578 656 q 315 598 373 656 q 225 443 258 541 q 192 237 192 345 q 310 87 192 87 m 258 -334 q 35 -286 125 -334 l 35 -174 q 140 -216 77 -199 q 254 -232 203 -232 q 398 -188 345 -232 q 473 -52 452 -144 l 508 91 l 521 138 l 515 138 q 393 22 454 58 q 269 -14 332 -14 q 121 53 175 -14 q 66 240 66 119 q 116 507 66 386 q 248 693 165 628 q 432 758 330 758 q 621 629 562 758 l 627 629 l 672 745 l 765 745 l 596 -43 q 482 -263 564 -192 q 258 -334 400 -334 m 633 1046 q 579 946 611 1010 q 535 842 548 882 l 418 842 l 418 856 q 479 959 435 895 q 566 1064 524 1023 l 633 1064 l 633 1046 z "},"Ĥ":{"ha":945,"x_min":58,"x_max":950,"o":"m 741 0 l 618 0 l 715 463 l 279 463 l 182 0 l 58 0 l 268 991 l 392 991 l 302 572 l 739 572 l 828 991 l 950 991 l 741 0 m 822 1071 l 745 1071 q 636 1197 707 1103 q 473 1071 550 1120 l 393 1071 l 393 1089 q 587 1293 554 1238 l 705 1293 q 793 1134 728 1231 l 822 1089 l 822 1071 z "},"ĥ":{"ha":804,"x_min":39,"x_max":737,"o":"m 614 0 l 492 0 l 590 467 q 603 558 603 527 q 505 656 603 656 q 391 615 446 656 q 293 500 335 575 q 229 321 251 425 l 161 0 l 39 0 l 262 1055 l 385 1055 l 325 782 q 304 695 317 740 q 281 606 292 650 l 288 606 q 409 721 348 685 q 539 757 471 757 q 677 708 629 757 q 726 567 726 660 q 711 453 726 529 l 614 0 m 737 1108 l 661 1108 q 551 1234 623 1141 q 389 1108 465 1158 l 308 1108 l 308 1126 q 503 1331 469 1276 l 621 1331 q 709 1171 644 1268 l 737 1126 l 737 1108 z "},"Ħ":{"ha":945,"x_min":57,"x_max":1043,"o":"m 917 825 l 1043 825 l 1023 725 l 895 725 l 742 0 l 616 0 l 714 463 l 278 463 l 180 0 l 57 0 l 210 725 l 83 725 l 104 825 l 231 825 l 267 991 l 390 991 l 354 825 l 790 825 l 827 991 l 951 991 l 917 825 m 737 572 l 770 725 l 334 725 l 301 572 l 737 572 z "},"ħ":{"ha":804,"x_min":39,"x_max":724,"o":"m 614 0 l 492 0 l 589 454 q 602 545 602 513 q 503 646 602 646 q 390 606 446 646 q 291 489 334 566 q 225 310 247 413 l 161 0 l 39 0 l 218 839 l 114 839 l 135 930 l 236 930 l 262 1055 l 385 1055 l 357 930 l 591 930 l 571 839 l 339 839 l 279 595 l 286 595 q 536 747 399 747 q 674 699 625 747 q 724 554 724 650 q 708 440 724 515 l 614 0 z "},"Ĩ":{"ha":450,"x_min":-28,"x_max":638,"o":"m 319 0 l -28 0 l -14 68 l 104 96 l 273 896 l 168 922 l 182 991 l 529 991 l 515 922 l 396 896 l 227 96 l 334 68 l 319 0 m 476 1072 q 423 1084 448 1072 q 374 1111 398 1096 q 328 1137 351 1125 q 283 1149 305 1149 q 237 1129 254 1149 q 205 1071 220 1109 l 133 1071 q 292 1249 172 1249 q 350 1237 323 1249 q 400 1211 376 1225 q 445 1184 424 1196 q 484 1173 466 1173 q 531 1190 513 1173 q 565 1250 549 1207 l 638 1250 q 476 1072 591 1072 z "},"ĩ":{"ha":358,"x_min":39,"x_max":548,"o":"m 161 0 l 39 0 l 197 745 l 319 745 l 161 0 m 386 843 q 333 855 358 843 q 284 881 308 867 q 238 908 260 896 q 193 920 215 920 q 146 900 163 920 q 115 842 130 880 l 43 842 q 202 1019 81 1019 q 259 1007 233 1019 q 310 981 286 996 q 355 955 334 967 q 394 943 376 943 q 440 961 422 943 q 475 1021 458 978 l 548 1021 q 386 843 500 843 z "},"Ī":{"ha":450,"x_min":-28,"x_max":573,"o":"m 319 0 l -28 0 l -14 68 l 104 96 l 273 896 l 168 922 l 182 991 l 529 991 l 515 922 l 396 896 l 227 96 l 334 68 l 319 0 m 199 1169 l 573 1169 l 552 1071 l 178 1071 l 199 1169 z "},"ī":{"ha":358,"x_min":39,"x_max":481,"o":"m 161 0 l 39 0 l 197 745 l 319 745 l 161 0 m 108 940 l 481 940 l 460 842 l 87 842 l 108 940 z "},"Ĭ":{"ha":450,"x_min":-28,"x_max":593,"o":"m 319 0 l -28 0 l -14 68 l 104 96 l 273 896 l 168 922 l 182 991 l 529 991 l 515 922 l 396 896 l 227 96 l 334 68 l 319 0 m 593 1257 q 366 1071 550 1071 q 241 1112 288 1071 q 194 1226 194 1154 l 194 1241 l 195 1257 l 268 1257 q 293 1195 268 1217 q 378 1173 317 1173 q 516 1257 494 1173 l 593 1257 z "},"ĭ":{"ha":358,"x_min":39,"x_max":500,"o":"m 161 0 l 39 0 l 197 745 l 319 745 l 161 0 m 500 1028 q 274 842 458 842 q 149 883 196 842 q 102 997 102 924 l 102 1012 l 103 1028 l 176 1028 q 200 965 176 987 q 286 943 225 943 q 424 1028 401 943 l 500 1028 z "},"Į":{"ha":450,"x_min":-28,"x_max":529,"o":"m 319 0 l -28 0 l -14 68 l 104 96 l 273 896 l 168 922 l 182 991 l 529 991 l 515 922 l 396 896 l 227 96 l 334 68 l 319 0 m 239 0 q 135 -101 160 -63 q 110 -175 110 -139 q 156 -221 110 -221 q 212 -215 182 -221 l 212 -292 q 134 -301 180 -301 q 42 -272 75 -301 q 10 -191 10 -243 q 41 -95 10 -138 q 155 0 73 -52 l 239 0 z "},"į":{"ha":358,"x_min":-68,"x_max":375,"o":"m 161 0 l 39 0 l 197 745 l 319 745 l 161 0 m 229 933 q 252 997 229 972 q 311 1022 275 1022 q 375 960 375 1022 q 351 893 375 919 q 296 868 328 868 q 248 885 267 868 q 229 933 229 902 m 161 0 q 57 -101 82 -63 q 32 -175 32 -139 q 78 -221 32 -221 q 134 -215 104 -221 l 134 -292 q 56 -301 102 -301 q -36 -272 -3 -301 q -68 -191 -68 -243 q -37 -95 -68 -138 q 77 0 -5 -52 l 161 0 z "},"İ":{"ha":450,"x_min":-28,"x_max":529,"o":"m 319 0 l -28 0 l -14 68 l 104 96 l 273 896 l 168 922 l 182 991 l 529 991 l 515 922 l 396 896 l 227 96 l 334 68 l 319 0 m 309 1162 q 331 1226 309 1201 q 390 1251 354 1251 q 454 1189 454 1251 q 431 1123 454 1149 q 375 1097 407 1097 q 328 1114 347 1097 q 309 1162 309 1131 z "},"ı":{"ha":358,"x_min":39,"x_max":319,"o":"m 161 0 l 39 0 l 197 745 l 319 745 l 161 0 z "},"Ĳ":{"ha":828,"x_min":-28,"x_max":841,"o":"m 319 0 l -28 0 l -14 68 l 104 96 l 273 896 l 168 922 l 182 991 l 529 991 l 515 922 l 396 896 l 227 96 l 334 68 l 319 0 m 338 -264 q 233 -248 267 -264 l 237 -140 q 335 -154 283 -154 q 509 12 473 -154 l 717 991 l 841 991 l 631 -1 q 338 -264 575 -264 z "},"ĳ":{"ha":717,"x_min":39,"x_max":732,"o":"m 161 0 l 39 0 l 197 745 l 319 745 l 161 0 m 229 933 q 252 997 229 972 q 311 1022 275 1022 q 375 960 375 1022 q 351 893 375 919 q 296 868 328 868 q 248 885 267 868 q 229 933 229 902 m 269 -334 q 183 -319 220 -334 l 183 -216 q 264 -232 222 -232 q 378 -96 349 -232 l 555 745 l 676 745 l 496 -107 q 415 -280 471 -227 q 269 -334 360 -334 m 587 933 q 610 997 587 972 q 669 1022 633 1022 q 732 960 732 1022 q 708 893 732 919 q 652 868 684 868 q 606 885 624 868 q 587 933 587 902 z "},"Ĵ":{"ha":379,"x_min":-216,"x_max":549,"o":"m -111 -264 q -216 -248 -182 -264 l -212 -140 q -114 -154 -165 -154 q 60 12 24 -154 l 268 991 l 392 991 l 182 -1 q -111 -264 126 -264 m 549 1071 l 473 1071 q 363 1197 435 1103 q 201 1071 277 1120 l 120 1071 l 120 1089 q 315 1293 281 1238 l 433 1293 q 521 1134 456 1231 l 549 1089 l 549 1071 z "},"ĵ":{"ha":358,"x_min":-175,"x_max":483,"o":"m -89 -334 q -175 -319 -138 -334 l -175 -216 q -94 -232 -136 -232 q 20 -96 -9 -232 l 197 745 l 318 745 l 138 -107 q 57 -280 113 -227 q -89 -334 2 -334 m 483 842 l 406 842 q 297 968 368 874 q 134 842 211 891 l 54 842 l 54 860 q 248 1064 215 1009 l 366 1064 q 454 905 389 1002 l 483 860 l 483 842 z "},"Ķ":{"ha":781,"x_min":57,"x_max":904,"o":"m 708 0 l 572 0 l 379 481 l 264 396 l 180 0 l 57 0 l 267 991 l 390 991 l 288 510 l 374 602 l 754 991 l 904 991 l 473 555 l 708 0 m 204 -289 q 257 -190 229 -248 q 302 -85 285 -133 l 418 -85 l 418 -98 q 358 -200 405 -133 q 271 -307 312 -268 l 204 -307 l 204 -289 z "},"ķ":{"ha":688,"x_min":37,"x_max":729,"o":"m 585 745 l 729 745 l 410 425 l 608 0 l 473 0 l 317 349 l 216 269 l 161 0 l 37 0 l 261 1055 l 385 1055 q 293 627 325 777 q 229 385 260 477 l 232 385 l 585 745 m 155 -289 q 208 -190 180 -248 q 253 -85 235 -133 l 368 -85 l 368 -98 q 309 -200 355 -133 q 221 -307 262 -268 l 155 -307 l 155 -289 z "},"ĸ":{"ha":688,"x_min":37,"x_max":729,"o":"m 585 745 l 729 745 l 410 425 l 608 0 l 473 0 l 317 349 l 216 269 l 161 0 l 37 0 l 195 745 l 318 745 l 277 557 q 252 458 266 506 l 229 383 l 232 383 l 585 745 z "},"Ĺ":{"ha":664,"x_min":57,"x_max":589,"o":"m 57 0 l 267 991 l 390 991 l 203 111 l 583 111 l 559 0 l 57 0 m 294 1089 q 374 1186 328 1126 q 450 1293 419 1246 l 589 1293 l 589 1279 q 488 1174 557 1240 q 370 1071 420 1107 l 294 1071 l 294 1089 z "},"ĺ":{"ha":358,"x_min":37,"x_max":569,"o":"m 160 0 l 37 0 l 262 1055 l 385 1055 l 160 0 m 274 1128 q 354 1225 309 1165 q 430 1332 399 1285 l 569 1332 l 569 1318 q 469 1212 537 1279 q 351 1109 400 1145 l 274 1109 l 274 1128 z "},"Ļ":{"ha":664,"x_min":57,"x_max":583,"o":"m 57 0 l 267 991 l 390 991 l 203 111 l 583 111 l 559 0 l 57 0 m 152 -289 q 205 -190 177 -248 q 250 -85 233 -133 l 366 -85 l 366 -98 q 306 -200 353 -133 q 218 -307 260 -268 l 152 -307 l 152 -289 z "},"ļ":{"ha":358,"x_min":-66,"x_max":385,"o":"m 160 0 l 37 0 l 262 1055 l 385 1055 l 160 0 m -66 -289 q -13 -190 -41 -248 q 33 -85 15 -133 l 148 -85 l 148 -98 q 89 -200 135 -133 q 1 -307 42 -268 l -66 -307 l -66 -289 z "},"Ľ":{"ha":664,"x_min":57,"x_max":727,"o":"m 57 0 l 267 991 l 390 991 l 203 111 l 583 111 l 559 0 l 57 0 m 511 788 q 565 886 532 819 q 612 992 597 953 l 727 992 l 727 979 q 666 876 713 943 q 579 770 619 810 l 511 770 l 511 788 z "},"ľ":{"ha":358,"x_min":37,"x_max":617,"o":"m 160 0 l 37 0 l 262 1055 l 385 1055 l 160 0 m 401 851 q 455 949 422 882 q 502 1055 488 1016 l 617 1055 l 617 1042 q 556 939 603 1006 q 469 833 509 873 l 401 833 l 401 851 z "},"Ŀ":{"ha":664,"x_min":57,"x_max":610,"o":"m 57 0 l 267 991 l 390 991 l 203 111 l 583 111 l 559 0 l 57 0 m 464 481 q 487 545 464 519 q 545 570 509 570 q 610 507 610 570 q 586 442 610 468 q 530 416 562 416 q 483 433 502 416 q 464 481 464 450 z "},"ŀ":{"ha":412,"x_min":37,"x_max":488,"o":"m 160 0 l 37 0 l 262 1055 l 385 1055 l 160 0 m 342 496 q 365 560 342 535 q 423 585 387 585 q 488 523 488 585 q 464 457 488 484 q 408 431 440 431 q 361 448 380 431 q 342 496 342 465 z "},"Ł":{"ha":664,"x_min":14,"x_max":583,"o":"m 56 0 l 129 342 l 57 300 l 14 380 l 153 460 l 265 991 l 390 991 l 293 541 l 449 628 l 492 550 l 269 422 l 204 111 l 583 111 l 559 0 l 56 0 z "},"ł":{"ha":358,"x_min":4,"x_max":407,"o":"m 288 595 l 368 642 l 407 566 l 262 479 l 160 0 l 37 0 l 122 396 l 46 350 l 4 427 l 146 513 l 262 1055 l 385 1055 l 288 595 z "},"Ń":{"ha":982,"x_min":56,"x_max":989,"o":"m 779 0 l 647 0 l 340 822 l 336 822 q 286 539 322 705 l 172 0 l 56 0 l 265 991 l 397 991 l 701 172 l 705 172 q 729 319 714 235 q 754 446 744 404 l 871 991 l 989 991 l 779 0 m 565 1089 q 645 1186 600 1126 q 721 1293 690 1246 l 860 1293 l 860 1279 q 760 1174 828 1240 q 642 1071 691 1107 l 565 1071 l 565 1089 z "},"ń":{"ha":804,"x_min":39,"x_max":726,"o":"m 614 0 l 492 0 l 590 467 q 604 562 604 534 q 581 630 604 605 q 505 656 557 656 q 392 616 447 656 q 294 500 336 576 q 229 321 251 425 l 161 0 l 39 0 l 197 745 l 297 745 l 282 607 l 289 607 q 371 694 334 665 q 449 741 407 724 q 539 758 492 758 q 676 710 627 758 q 726 575 726 663 q 711 453 726 522 l 614 0 m 420 860 q 500 957 455 897 q 576 1064 546 1017 l 715 1064 l 715 1050 q 615 944 684 1011 q 497 842 547 878 l 420 842 l 420 860 z "},"Ņ":{"ha":982,"x_min":56,"x_max":989,"o":"m 779 0 l 647 0 l 340 822 l 336 822 q 286 539 322 705 l 172 0 l 56 0 l 265 991 l 397 991 l 701 172 l 705 172 q 729 319 714 235 q 754 446 744 404 l 871 991 l 989 991 l 779 0 m 258 -289 q 311 -190 283 -248 q 357 -85 339 -133 l 472 -85 l 472 -98 q 413 -200 459 -133 q 325 -307 366 -268 l 258 -307 l 258 -289 z "},"ņ":{"ha":804,"x_min":39,"x_max":726,"o":"m 614 0 l 492 0 l 590 467 q 604 562 604 534 q 581 630 604 605 q 505 656 557 656 q 392 616 447 656 q 294 500 336 576 q 229 321 251 425 l 161 0 l 39 0 l 197 745 l 297 745 l 282 607 l 289 607 q 371 694 334 665 q 449 741 407 724 q 539 758 492 758 q 676 710 627 758 q 726 575 726 663 q 711 453 726 522 l 614 0 m 164 -289 q 217 -190 189 -248 q 262 -85 245 -133 l 378 -85 l 378 -98 q 318 -200 365 -133 q 231 -307 272 -268 l 164 -307 l 164 -289 z "},"Ň":{"ha":982,"x_min":56,"x_max":989,"o":"m 779 0 l 647 0 l 340 822 l 336 822 q 286 539 322 705 l 172 0 l 56 0 l 265 991 l 397 991 l 701 172 l 705 172 q 729 319 714 235 q 754 446 744 404 l 871 991 l 989 991 l 779 0 m 453 1293 l 526 1293 q 636 1166 570 1259 q 803 1293 722 1242 l 882 1293 l 882 1275 l 838 1234 q 686 1071 726 1132 l 567 1071 q 482 1230 544 1135 l 453 1275 l 453 1293 z "},"ň":{"ha":804,"x_min":39,"x_max":740,"o":"m 614 0 l 492 0 l 590 467 q 604 562 604 534 q 581 630 604 605 q 505 656 557 656 q 392 616 447 656 q 294 500 336 576 q 229 321 251 425 l 161 0 l 39 0 l 197 745 l 297 745 l 282 607 l 289 607 q 371 694 334 665 q 449 741 407 724 q 539 758 492 758 q 676 710 627 758 q 726 575 726 663 q 711 453 726 522 l 614 0 m 311 1064 l 384 1064 q 494 937 427 1030 q 661 1064 579 1013 l 740 1064 l 740 1046 l 695 1004 q 544 842 583 903 l 425 842 q 340 1001 401 906 l 311 1046 l 311 1064 z "},"ŉ":{"ha":900,"x_min":58,"x_max":822,"o":"m 709 0 l 587 0 l 686 467 q 700 562 700 534 q 676 630 700 605 q 601 656 652 656 q 487 616 543 656 q 389 500 432 576 q 325 321 347 425 l 257 0 l 134 0 l 293 745 l 393 745 l 378 607 l 385 607 q 466 694 430 665 q 545 741 503 724 q 635 758 587 758 q 772 710 722 758 q 822 575 822 663 q 807 453 822 522 l 709 0 m 328 991 l 334 977 q 258 828 307 915 q 151 652 210 742 l 58 652 q 195 991 149 854 l 328 991 z "},"Ŋ":{"ha":982,"x_min":56,"x_max":989,"o":"m 486 -262 q 380 -245 414 -262 l 385 -139 q 485 -153 431 -153 q 598 -113 554 -153 q 657 0 642 -74 l 340 822 l 335 822 l 326 763 q 286 539 311 652 l 172 0 l 56 0 l 265 991 l 397 991 l 701 182 l 705 182 q 734 351 720 269 q 869 991 749 433 l 989 991 l 779 0 q 681 -195 753 -127 q 486 -262 608 -262 z "},"ŋ":{"ha":804,"x_min":39,"x_max":726,"o":"m 364 -334 q 278 -319 319 -334 l 278 -216 q 358 -232 320 -232 q 471 -94 442 -232 l 590 467 q 604 562 604 534 q 581 630 604 605 q 505 656 557 656 q 392 616 447 656 q 294 500 336 576 q 229 321 251 425 l 161 0 l 39 0 l 197 745 l 297 745 l 282 607 l 289 607 q 371 694 334 665 q 449 741 407 724 q 539 758 492 758 q 676 710 627 758 q 726 575 726 663 q 711 453 726 529 l 591 -109 q 511 -280 566 -227 q 364 -334 456 -334 z "},"Ō":{"ha":1002,"x_min":100,"x_max":958,"o":"m 958 616 q 897 285 958 430 q 724 63 835 140 q 468 -14 614 -14 q 197 87 294 -14 q 100 371 100 189 q 164 697 100 549 q 343 926 229 845 q 602 1007 457 1007 q 864 903 769 1007 q 958 616 958 799 m 593 897 q 406 830 488 897 q 277 642 323 763 q 232 374 232 521 q 296 169 232 241 q 472 96 361 96 q 653 161 572 96 q 780 349 734 227 q 827 619 827 471 q 765 823 827 749 q 593 897 703 897 m 451 1169 l 825 1169 l 804 1071 l 430 1071 l 451 1169 z "},"ō":{"ha":782,"x_min":66,"x_max":717,"o":"m 591 481 q 551 606 591 559 q 440 653 510 653 q 311 603 368 653 q 222 464 253 553 q 191 271 191 376 q 232 137 191 184 q 351 90 274 90 q 474 139 419 90 q 561 276 530 187 q 591 481 591 365 m 717 467 q 668 225 717 338 q 535 51 619 112 q 345 -11 451 -11 q 140 66 214 -11 q 66 275 66 144 q 117 519 66 406 q 251 694 167 633 q 439 754 334 754 q 643 677 568 754 q 717 467 717 600 m 311 940 l 685 940 l 664 842 l 290 842 l 311 940 z "},"Ŏ":{"ha":1002,"x_min":100,"x_max":958,"o":"m 958 616 q 897 285 958 430 q 724 63 835 140 q 468 -14 614 -14 q 197 87 294 -14 q 100 371 100 189 q 164 697 100 549 q 343 926 229 845 q 602 1007 457 1007 q 864 903 769 1007 q 958 616 958 799 m 593 897 q 406 830 488 897 q 277 642 323 763 q 232 374 232 521 q 296 169 232 241 q 472 96 361 96 q 653 161 572 96 q 780 349 734 227 q 827 619 827 471 q 765 823 827 749 q 593 897 703 897 m 831 1257 q 604 1071 788 1071 q 479 1112 526 1071 q 432 1226 432 1154 l 432 1241 l 433 1257 l 506 1257 q 531 1195 506 1217 q 616 1173 555 1173 q 754 1257 732 1173 l 831 1257 z "},"ŏ":{"ha":782,"x_min":66,"x_max":717,"o":"m 591 481 q 551 606 591 559 q 440 653 510 653 q 311 603 368 653 q 222 464 253 553 q 191 271 191 376 q 232 137 191 184 q 351 90 274 90 q 474 139 419 90 q 561 276 530 187 q 591 481 591 365 m 717 467 q 668 225 717 338 q 535 51 619 112 q 345 -11 451 -11 q 140 66 214 -11 q 66 275 66 144 q 117 519 66 406 q 251 694 167 633 q 439 754 334 754 q 643 677 568 754 q 717 467 717 600 m 701 1028 q 474 842 658 842 q 349 883 396 842 q 302 997 302 924 l 302 1012 l 303 1028 l 376 1028 q 400 965 376 987 q 486 943 425 943 q 624 1028 602 943 l 701 1028 z "},"Ő":{"ha":1002,"x_min":100,"x_max":979,"o":"m 958 616 q 897 285 958 430 q 724 63 835 140 q 468 -14 614 -14 q 197 87 294 -14 q 100 371 100 189 q 164 697 100 549 q 343 926 229 845 q 602 1007 457 1007 q 864 903 769 1007 q 958 616 958 799 m 593 897 q 406 830 488 897 q 277 642 323 763 q 232 374 232 521 q 296 169 232 241 q 472 96 361 96 q 653 161 572 96 q 780 349 734 227 q 827 619 827 471 q 765 823 827 749 q 593 897 703 897 m 464 1089 q 546 1189 497 1125 q 619 1293 595 1253 l 745 1293 l 745 1279 q 645 1173 714 1240 q 528 1071 575 1105 l 464 1071 l 464 1089 m 699 1089 q 778 1185 730 1124 q 854 1293 825 1246 l 979 1293 l 979 1279 q 878 1171 946 1236 q 762 1071 810 1105 l 699 1071 l 699 1089 z "},"ő":{"ha":782,"x_min":66,"x_max":798,"o":"m 591 481 q 551 606 591 559 q 440 653 510 653 q 311 603 368 653 q 222 464 253 553 q 191 271 191 376 q 232 137 191 184 q 351 90 274 90 q 474 139 419 90 q 561 276 530 187 q 591 481 591 365 m 717 467 q 668 225 717 338 q 535 51 619 112 q 345 -11 451 -11 q 140 66 214 -11 q 66 275 66 144 q 117 519 66 406 q 251 694 167 633 q 439 754 334 754 q 643 677 568 754 q 717 467 717 600 m 282 860 q 364 960 315 896 q 437 1064 413 1023 l 563 1064 l 563 1050 q 463 943 532 1011 q 346 842 393 876 l 282 842 l 282 860 m 517 860 q 596 956 549 895 q 673 1064 643 1017 l 798 1064 l 798 1050 q 696 941 764 1007 q 581 842 629 876 l 517 842 l 517 860 z "},"Œ":{"ha":1193,"x_min":100,"x_max":1249,"o":"m 1039 0 l 576 0 q 468 -14 521 -14 q 197 87 294 -14 q 100 371 100 189 q 164 697 100 549 q 343 926 229 845 q 602 1007 457 1007 q 761 991 703 1007 l 1249 991 l 1226 882 l 846 882 l 779 572 l 1135 572 l 1112 464 l 757 464 l 682 110 l 1063 110 l 1039 0 m 472 96 q 557 109 520 96 l 721 882 q 593 897 668 897 q 406 830 488 897 q 277 642 323 763 q 232 374 232 521 q 296 169 232 241 q 472 96 361 96 z "},"œ":{"ha":1203,"x_min":66,"x_max":1161,"o":"m 846 -14 q 604 134 665 -14 q 338 -11 507 -11 q 140 66 213 -11 q 66 275 66 144 q 116 519 66 406 q 252 693 166 632 q 446 754 337 754 q 686 606 625 754 q 806 718 736 677 q 957 758 875 758 q 1108 712 1055 758 q 1161 585 1161 667 q 1049 391 1161 460 q 732 322 937 322 l 703 322 l 700 271 q 741 136 700 185 q 868 87 783 87 q 944 97 906 87 q 1069 144 983 106 l 1069 37 q 846 -14 960 -14 m 440 653 q 312 604 369 653 q 222 468 254 554 q 191 278 191 382 q 232 138 191 185 q 345 90 273 90 q 526 197 460 90 q 593 481 593 304 q 553 608 593 564 q 440 653 514 653 m 956 657 q 810 595 873 657 q 717 421 746 532 l 730 421 q 961 462 881 421 q 1042 579 1042 503 q 1020 634 1042 612 q 956 657 998 657 z "},"Ŕ":{"ha":796,"x_min":57,"x_max":790,"o":"m 289 515 l 397 515 q 594 572 526 515 q 663 732 663 628 q 618 847 663 811 q 473 884 574 884 l 368 884 l 289 515 m 267 410 l 180 0 l 57 0 l 267 991 l 485 991 q 790 741 790 991 q 543 437 790 507 l 707 0 l 571 0 l 429 410 l 267 410 m 458 1089 q 538 1186 492 1126 q 614 1293 583 1246 l 753 1293 l 753 1279 q 652 1174 721 1240 q 534 1071 584 1107 l 458 1071 l 458 1089 z "},"ŕ":{"ha":553,"x_min":39,"x_max":634,"o":"m 515 758 q 596 749 563 758 l 570 639 q 498 647 532 647 q 384 607 437 647 q 291 496 330 568 q 233 340 251 425 l 161 0 l 39 0 l 197 745 l 297 745 l 282 607 l 289 607 q 370 700 338 672 q 437 743 402 728 q 515 758 473 758 m 339 860 q 419 957 374 897 q 495 1064 465 1017 l 634 1064 l 634 1050 q 534 944 602 1011 q 416 842 465 878 l 339 842 l 339 860 z "},"Ŗ":{"ha":796,"x_min":57,"x_max":790,"o":"m 289 515 l 397 515 q 594 572 526 515 q 663 732 663 628 q 618 847 663 811 q 473 884 574 884 l 368 884 l 289 515 m 267 410 l 180 0 l 57 0 l 267 991 l 485 991 q 790 741 790 991 q 543 437 790 507 l 707 0 l 571 0 l 429 410 l 267 410 m 213 -289 q 266 -190 238 -248 q 311 -85 294 -133 l 427 -85 l 427 -98 q 367 -200 414 -133 q 279 -307 321 -268 l 213 -307 l 213 -289 z "},"ŗ":{"ha":553,"x_min":-68,"x_max":596,"o":"m 515 758 q 596 749 563 758 l 570 639 q 498 647 532 647 q 384 607 437 647 q 291 496 330 568 q 233 340 251 425 l 161 0 l 39 0 l 197 745 l 297 745 l 282 607 l 289 607 q 370 700 338 672 q 437 743 402 728 q 515 758 473 758 m -68 -289 q -16 -190 -43 -248 q 30 -85 12 -133 l 145 -85 l 145 -98 q 86 -200 132 -133 q -2 -307 39 -268 l -68 -307 l -68 -289 z "},"Ř":{"ha":796,"x_min":57,"x_max":790,"o":"m 289 515 l 397 515 q 594 572 526 515 q 663 732 663 628 q 618 847 663 811 q 473 884 574 884 l 368 884 l 289 515 m 267 410 l 180 0 l 57 0 l 267 991 l 485 991 q 790 741 790 991 q 543 437 790 507 l 707 0 l 571 0 l 429 410 l 267 410 m 347 1293 l 420 1293 q 530 1166 464 1259 q 697 1293 616 1242 l 777 1293 l 777 1275 l 732 1234 q 581 1071 620 1132 l 461 1071 q 376 1230 438 1135 l 347 1275 l 347 1293 z "},"ř":{"ha":553,"x_min":39,"x_max":650,"o":"m 515 758 q 596 749 563 758 l 570 639 q 498 647 532 647 q 384 607 437 647 q 291 496 330 568 q 233 340 251 425 l 161 0 l 39 0 l 197 745 l 297 745 l 282 607 l 289 607 q 370 700 338 672 q 437 743 402 728 q 515 758 473 758 m 220 1064 l 294 1064 q 404 937 337 1030 q 570 1064 489 1013 l 650 1064 l 650 1046 l 605 1004 q 454 842 493 903 l 334 842 q 250 1001 311 906 l 220 1046 l 220 1064 z "},"Ś":{"ha":701,"x_min":26,"x_max":727,"o":"m 621 288 q 526 66 621 146 q 257 -14 431 -14 q 26 31 119 -14 l 26 153 q 258 94 140 94 q 427 143 364 94 q 490 278 490 192 q 457 369 490 330 q 326 464 423 408 q 184 583 223 524 q 146 718 146 641 q 187 868 146 803 q 304 970 229 934 q 472 1006 380 1006 q 721 947 607 1006 l 673 842 q 576 881 630 866 q 472 896 522 896 q 331 850 385 896 q 278 726 278 804 q 304 639 278 673 q 419 553 331 604 q 551 459 516 494 q 603 384 585 425 q 621 288 621 342 m 432 1089 q 512 1186 467 1126 q 588 1293 557 1246 l 727 1293 l 727 1279 q 627 1174 695 1240 q 509 1071 558 1107 l 432 1071 l 432 1089 z "},"ś":{"ha":600,"x_min":7,"x_max":622,"o":"m 504 215 q 428 47 504 107 q 215 -14 353 -14 q 7 33 93 -14 l 7 146 q 105 102 51 119 q 211 86 159 86 q 336 118 294 86 q 379 203 379 151 q 356 267 379 240 q 254 338 332 294 q 131 435 167 387 q 94 547 94 484 q 163 700 94 642 q 347 758 233 758 q 572 707 463 758 l 533 610 q 452 641 497 627 q 347 656 408 656 q 252 628 288 656 q 216 554 216 600 q 241 491 216 517 q 339 424 266 465 q 445 350 416 378 q 489 290 473 322 q 504 215 504 257 m 327 860 q 407 957 361 897 q 483 1064 452 1017 l 622 1064 l 622 1050 q 522 944 590 1011 q 404 842 453 878 l 327 842 l 327 860 z "},"Ŝ":{"ha":701,"x_min":26,"x_max":721,"o":"m 621 288 q 526 66 621 146 q 257 -14 431 -14 q 26 31 119 -14 l 26 153 q 258 94 140 94 q 427 143 364 94 q 490 278 490 192 q 457 369 490 330 q 326 464 423 408 q 184 583 223 524 q 146 718 146 641 q 187 868 146 803 q 304 970 229 934 q 472 1006 380 1006 q 721 947 607 1006 l 673 842 q 576 881 630 866 q 472 896 522 896 q 331 850 385 896 q 278 726 278 804 q 304 639 278 673 q 419 553 331 604 q 551 459 516 494 q 603 384 585 425 q 621 288 621 342 m 694 1071 l 618 1071 q 509 1197 580 1103 q 346 1071 422 1120 l 265 1071 l 265 1089 q 460 1293 427 1238 l 578 1293 q 666 1134 601 1231 l 694 1089 l 694 1071 z "},"ŝ":{"ha":600,"x_min":7,"x_max":587,"o":"m 504 215 q 428 47 504 107 q 215 -14 353 -14 q 7 33 93 -14 l 7 146 q 105 102 51 119 q 211 86 159 86 q 336 118 294 86 q 379 203 379 151 q 356 267 379 240 q 254 338 332 294 q 131 435 167 387 q 94 547 94 484 q 163 700 94 642 q 347 758 233 758 q 572 707 463 758 l 533 610 q 452 641 497 627 q 347 656 408 656 q 252 628 288 656 q 216 554 216 600 q 241 491 216 517 q 339 424 266 465 q 445 350 416 378 q 489 290 473 322 q 504 215 504 257 m 587 842 l 510 842 q 401 968 472 874 q 238 842 315 891 l 157 842 l 157 860 q 352 1064 319 1009 l 470 1064 q 558 905 493 1002 l 587 860 l 587 842 z "},"Ş":{"ha":701,"x_min":26,"x_max":721,"o":"m 621 288 q 526 66 621 146 q 257 -14 431 -14 q 26 31 119 -14 l 26 153 q 258 94 140 94 q 427 143 364 94 q 490 278 490 192 q 457 369 490 330 q 326 464 423 408 q 184 583 223 524 q 146 718 146 641 q 187 868 146 803 q 304 970 229 934 q 472 1006 380 1006 q 721 947 607 1006 l 673 842 q 576 881 630 866 q 472 896 522 896 q 331 850 385 896 q 278 726 278 804 q 304 639 278 673 q 419 553 331 604 q 551 459 516 494 q 603 384 585 425 q 621 288 621 342 m 368 -186 q 314 -293 368 -253 q 167 -334 259 -334 q 104 -326 130 -334 l 104 -254 q 155 -260 126 -260 q 269 -186 269 -260 q 248 -145 269 -161 q 175 -122 227 -129 l 242 0 l 319 0 l 279 -79 q 368 -186 368 -105 z "},"ş":{"ha":600,"x_min":7,"x_max":572,"o":"m 504 215 q 428 47 504 107 q 215 -14 353 -14 q 7 33 93 -14 l 7 146 q 105 102 51 119 q 211 86 159 86 q 336 118 294 86 q 379 203 379 151 q 356 267 379 240 q 254 338 332 294 q 131 435 167 387 q 94 547 94 484 q 163 700 94 642 q 347 758 233 758 q 572 707 463 758 l 533 610 q 452 641 497 627 q 347 656 408 656 q 252 628 288 656 q 216 554 216 600 q 241 491 216 517 q 339 424 266 465 q 445 350 416 378 q 489 290 473 322 q 504 215 504 257 m 322 -186 q 268 -293 322 -253 q 121 -334 213 -334 q 58 -326 83 -334 l 58 -254 q 109 -260 80 -260 q 222 -186 222 -260 q 202 -145 222 -161 q 129 -122 181 -129 l 196 0 l 273 0 l 233 -79 q 322 -186 322 -105 z "},"Š":{"ha":701,"x_min":26,"x_max":721,"o":"m 621 288 q 526 66 621 146 q 257 -14 431 -14 q 26 31 119 -14 l 26 153 q 258 94 140 94 q 427 143 364 94 q 490 278 490 192 q 457 369 490 330 q 326 464 423 408 q 184 583 223 524 q 146 718 146 641 q 187 868 146 803 q 304 970 229 934 q 472 1006 380 1006 q 721 947 607 1006 l 673 842 q 576 881 630 866 q 472 896 522 896 q 331 850 385 896 q 278 726 278 804 q 304 639 278 673 q 419 553 331 604 q 551 459 516 494 q 603 384 585 425 q 621 288 621 342 m 281 1293 l 355 1293 q 465 1166 398 1259 q 631 1293 550 1242 l 711 1293 l 711 1275 l 666 1234 q 515 1071 554 1132 l 395 1071 q 311 1230 372 1135 l 281 1275 l 281 1293 z "},"š":{"ha":600,"x_min":7,"x_max":619,"o":"m 504 215 q 428 47 504 107 q 215 -14 353 -14 q 7 33 93 -14 l 7 146 q 105 102 51 119 q 211 86 159 86 q 336 118 294 86 q 379 203 379 151 q 356 267 379 240 q 254 338 332 294 q 131 435 167 387 q 94 547 94 484 q 163 700 94 642 q 347 758 233 758 q 572 707 463 758 l 533 610 q 452 641 497 627 q 347 656 408 656 q 252 628 288 656 q 216 554 216 600 q 241 491 216 517 q 339 424 266 465 q 445 350 416 378 q 489 290 473 322 q 504 215 504 257 m 190 1064 l 263 1064 q 373 937 307 1030 q 540 1064 458 1013 l 619 1064 l 619 1046 l 574 1004 q 423 842 463 903 l 304 842 q 219 1001 281 906 l 190 1046 l 190 1064 z "},"Ț":{"ha":696,"x_min":98,"x_max":818,"o":"m 336 0 l 211 0 l 397 882 l 125 882 l 149 991 l 818 991 l 796 882 l 524 882 l 336 0 m 98 -289 q 151 -190 123 -248 q 197 -85 179 -133 l 312 -85 l 312 -98 q 253 -200 299 -133 q 165 -307 206 -268 l 98 -307 l 98 -289 z "},"ț":{"ha":461,"x_min":51,"x_max":505,"o":"m 275 86 q 374 104 317 86 l 374 11 q 319 -6 355 1 q 257 -14 283 -14 q 125 27 170 -14 q 79 149 79 68 q 92 248 79 192 l 176 652 l 61 652 l 72 707 l 197 760 l 283 914 l 355 914 l 318 745 l 505 745 l 486 652 l 300 652 l 214 245 q 201 163 201 191 q 218 108 201 130 q 275 86 235 86 m 51 -289 q 104 -190 76 -248 q 149 -85 132 -133 l 264 -85 l 264 -98 q 205 -200 252 -133 q 117 -307 159 -268 l 51 -307 l 51 -289 z "},"Ť":{"ha":696,"x_min":125,"x_max":818,"o":"m 336 0 l 211 0 l 397 882 l 125 882 l 149 991 l 818 991 l 796 882 l 524 882 l 336 0 m 314 1293 l 387 1293 q 497 1166 431 1259 q 664 1293 583 1242 l 743 1293 l 743 1275 l 699 1234 q 547 1071 587 1132 l 428 1071 q 343 1230 405 1135 l 314 1275 l 314 1293 z "},"ť":{"ha":461,"x_min":61,"x_max":606,"o":"m 275 86 q 374 104 317 86 l 374 11 q 319 -6 355 1 q 257 -14 283 -14 q 125 27 170 -14 q 79 149 79 68 q 92 248 79 192 l 176 652 l 61 652 l 72 707 l 197 760 l 283 914 l 355 914 l 318 745 l 505 745 l 486 652 l 300 652 l 214 245 q 201 163 201 191 q 218 108 201 130 q 275 86 235 86 m 390 851 q 444 949 411 882 q 490 1055 476 1016 l 606 1055 l 606 1042 q 545 939 591 1006 q 458 833 498 873 l 390 833 l 390 851 z "},"Ŧ":{"ha":696,"x_min":115,"x_max":818,"o":"m 453 555 l 648 555 l 628 454 l 432 454 l 336 0 l 211 0 l 307 454 l 115 454 l 138 555 l 326 555 l 397 882 l 125 882 l 149 991 l 818 991 l 796 882 l 524 882 l 453 555 z "},"ŧ":{"ha":461,"x_min":28,"x_max":505,"o":"m 275 86 q 374 104 317 86 l 374 11 q 319 -6 355 1 q 257 -14 283 -14 q 125 27 170 -14 q 79 149 79 68 q 83 197 79 170 q 121 392 87 224 l 28 392 l 47 484 l 140 484 l 176 652 l 61 652 l 72 707 l 197 760 l 283 914 l 355 914 l 318 745 l 505 745 l 486 652 l 300 652 l 264 484 l 428 484 l 410 392 l 244 392 q 212 235 223 290 q 201 163 200 181 q 218 108 201 130 q 275 86 235 86 z "},"Ũ":{"ha":940,"x_min":110,"x_max":956,"o":"m 956 991 l 817 338 q 680 72 779 157 q 416 -14 582 -14 q 185 58 261 -14 q 110 261 110 129 q 126 393 110 313 l 254 991 l 378 991 l 249 386 q 238 324 243 361 q 233 262 233 287 q 281 140 233 184 q 424 96 328 96 q 602 154 538 96 q 694 347 665 213 l 832 991 l 956 991 m 718 1072 q 665 1084 690 1072 q 616 1111 640 1096 q 570 1137 593 1125 q 525 1149 547 1149 q 479 1129 496 1149 q 447 1071 462 1109 l 375 1071 q 534 1249 414 1249 q 592 1237 565 1249 q 642 1211 618 1225 q 687 1184 666 1196 q 726 1173 708 1173 q 773 1190 755 1173 q 807 1250 791 1207 l 880 1250 q 718 1072 833 1072 z "},"ũ":{"ha":804,"x_min":77,"x_max":765,"o":"m 189 745 l 313 745 l 212 277 q 200 183 200 216 q 297 87 200 87 q 411 127 356 87 q 510 244 467 168 q 575 424 553 320 l 643 745 l 764 745 l 606 0 l 505 0 l 521 138 l 514 138 q 391 22 453 58 q 262 -14 330 -14 q 126 35 176 -14 q 77 171 77 83 q 92 290 77 214 l 189 745 m 603 843 q 550 855 575 843 q 501 881 525 867 q 455 908 477 896 q 410 920 432 920 q 363 900 380 920 q 332 842 347 880 l 260 842 q 419 1019 298 1019 q 476 1007 450 1019 q 527 981 503 996 q 572 955 551 967 q 611 943 593 943 q 657 961 640 943 q 692 1021 675 978 l 765 1021 q 603 843 718 843 z "},"Ū":{"ha":940,"x_min":110,"x_max":956,"o":"m 956 991 l 817 338 q 680 72 779 157 q 416 -14 582 -14 q 185 58 261 -14 q 110 261 110 129 q 126 393 110 313 l 254 991 l 378 991 l 249 386 q 238 324 243 361 q 233 262 233 287 q 281 140 233 184 q 424 96 328 96 q 602 154 538 96 q 694 347 665 213 l 832 991 l 956 991 m 444 1169 l 818 1169 l 797 1071 l 423 1071 l 444 1169 z "},"ū":{"ha":804,"x_min":77,"x_max":764,"o":"m 189 745 l 313 745 l 212 277 q 200 183 200 216 q 297 87 200 87 q 411 127 356 87 q 510 244 467 168 q 575 424 553 320 l 643 745 l 764 745 l 606 0 l 505 0 l 521 138 l 514 138 q 391 22 453 58 q 262 -14 330 -14 q 126 35 176 -14 q 77 171 77 83 q 92 290 77 214 l 189 745 m 326 940 l 700 940 l 679 842 l 305 842 l 326 940 z "},"Ŭ":{"ha":940,"x_min":110,"x_max":956,"o":"m 956 991 l 817 338 q 680 72 779 157 q 416 -14 582 -14 q 185 58 261 -14 q 110 261 110 129 q 126 393 110 313 l 254 991 l 378 991 l 249 386 q 238 324 243 361 q 233 262 233 287 q 281 140 233 184 q 424 96 328 96 q 602 154 538 96 q 694 347 665 213 l 832 991 l 956 991 m 833 1257 q 607 1071 791 1071 q 482 1112 529 1071 q 435 1226 435 1154 l 435 1241 l 436 1257 l 509 1257 q 533 1195 509 1217 q 619 1173 558 1173 q 757 1257 734 1173 l 833 1257 z "},"ŭ":{"ha":804,"x_min":77,"x_max":764,"o":"m 189 745 l 313 745 l 212 277 q 200 183 200 216 q 297 87 200 87 q 411 127 356 87 q 510 244 467 168 q 575 424 553 320 l 643 745 l 764 745 l 606 0 l 505 0 l 521 138 l 514 138 q 391 22 453 58 q 262 -14 330 -14 q 126 35 176 -14 q 77 171 77 83 q 92 290 77 214 l 189 745 m 712 1028 q 486 842 669 842 q 360 883 408 842 q 313 997 313 924 l 313 1012 l 315 1028 l 387 1028 q 412 965 387 987 q 498 943 437 943 q 635 1028 613 943 l 712 1028 z "},"Ů":{"ha":940,"x_min":110,"x_max":956,"o":"m 956 991 l 817 338 q 680 72 779 157 q 416 -14 582 -14 q 185 58 261 -14 q 110 261 110 129 q 126 393 110 313 l 254 991 l 378 991 l 249 386 q 238 324 243 361 q 233 262 233 287 q 281 140 233 184 q 424 96 328 96 q 602 154 538 96 q 694 347 665 213 l 832 991 l 956 991 m 772 1218 q 730 1111 772 1150 q 621 1071 688 1071 q 512 1109 553 1071 q 471 1217 471 1148 q 513 1322 471 1282 q 621 1361 555 1361 q 730 1322 688 1361 q 772 1218 772 1284 m 699 1217 q 677 1273 699 1253 q 621 1293 655 1293 q 566 1273 588 1293 q 544 1217 544 1253 q 564 1160 544 1181 q 621 1140 584 1140 q 677 1160 655 1140 q 699 1217 699 1181 z "},"ů":{"ha":804,"x_min":77,"x_max":764,"o":"m 189 745 l 313 745 l 212 277 q 200 183 200 216 q 297 87 200 87 q 411 127 356 87 q 510 244 467 168 q 575 424 553 320 l 643 745 l 764 745 l 606 0 l 505 0 l 521 138 l 514 138 q 391 22 453 58 q 262 -14 330 -14 q 126 35 176 -14 q 77 171 77 83 q 92 290 77 214 l 189 745 m 650 989 q 608 881 650 921 q 499 842 566 842 q 391 880 432 842 q 349 987 349 919 q 392 1093 349 1053 q 499 1132 434 1132 q 609 1093 567 1132 q 650 989 650 1055 m 577 987 q 555 1044 577 1023 q 499 1064 534 1064 q 445 1044 467 1064 q 422 987 422 1023 q 443 931 422 951 q 499 911 463 911 q 555 931 534 911 q 577 987 577 951 z "},"Ű":{"ha":940,"x_min":110,"x_max":961,"o":"m 956 991 l 817 338 q 680 72 779 157 q 416 -14 582 -14 q 185 58 261 -14 q 110 261 110 129 q 126 393 110 313 l 254 991 l 378 991 l 249 386 q 238 324 243 361 q 233 262 233 287 q 281 140 233 184 q 424 96 328 96 q 602 154 538 96 q 694 347 665 213 l 832 991 l 956 991 m 446 1089 q 528 1189 479 1125 q 601 1293 576 1253 l 726 1293 l 726 1279 q 626 1173 696 1240 q 509 1071 557 1105 l 446 1071 l 446 1089 m 680 1089 q 759 1185 712 1124 q 836 1293 806 1246 l 961 1293 l 961 1279 q 860 1171 928 1236 q 744 1071 792 1105 l 680 1071 l 680 1089 z "},"ű":{"ha":804,"x_min":77,"x_max":825,"o":"m 189 745 l 313 745 l 212 277 q 200 183 200 216 q 297 87 200 87 q 411 127 356 87 q 510 244 467 168 q 575 424 553 320 l 643 745 l 764 745 l 606 0 l 505 0 l 521 138 l 514 138 q 391 22 453 58 q 262 -14 330 -14 q 126 35 176 -14 q 77 171 77 83 q 92 290 77 214 l 189 745 m 310 860 q 392 960 343 896 q 465 1064 441 1023 l 591 1064 l 591 1050 q 491 943 560 1011 q 374 842 421 876 l 310 842 l 310 860 m 545 860 q 624 956 576 895 q 701 1064 671 1017 l 825 1064 l 825 1050 q 724 941 792 1007 q 608 842 656 876 l 545 842 l 545 860 z "},"Ų":{"ha":940,"x_min":110,"x_max":956,"o":"m 956 991 l 817 338 q 680 72 779 157 q 416 -14 582 -14 q 185 58 261 -14 q 110 261 110 129 q 126 393 110 313 l 254 991 l 378 991 l 249 386 q 238 324 243 361 q 233 262 233 287 q 281 140 233 184 q 424 96 328 96 q 602 154 538 96 q 694 347 665 213 l 832 991 l 956 991 m 529 0 q 425 -101 450 -63 q 400 -175 400 -139 q 446 -221 400 -221 q 502 -215 473 -221 l 502 -292 q 424 -301 471 -301 q 333 -272 365 -301 q 300 -191 300 -243 q 332 -95 300 -138 q 445 0 363 -52 l 529 0 z "},"ų":{"ha":804,"x_min":77,"x_max":764,"o":"m 189 745 l 313 745 l 212 277 q 200 183 200 216 q 297 87 200 87 q 411 127 356 87 q 510 244 467 168 q 575 424 553 320 l 643 745 l 764 745 l 606 0 l 505 0 l 521 138 l 514 138 q 391 22 453 58 q 262 -14 330 -14 q 126 35 176 -14 q 77 171 77 83 q 92 290 77 214 l 189 745 m 591 0 q 488 -101 513 -63 q 463 -175 463 -139 q 509 -221 463 -221 q 564 -215 535 -221 l 564 -292 q 486 -301 533 -301 q 395 -272 427 -301 q 363 -191 363 -243 q 394 -95 363 -138 q 507 0 425 -52 l 591 0 z "},"Ŵ":{"ha":1189,"x_min":149,"x_max":1310,"o":"m 693 832 q 656 735 680 791 q 318 0 632 679 l 191 0 l 149 991 l 271 991 l 290 387 l 292 329 q 285 153 292 258 l 289 153 q 393 408 357 333 l 665 991 l 791 991 l 819 411 q 826 210 826 302 l 825 153 l 829 153 q 918 392 892 329 l 1178 991 l 1310 991 l 860 0 l 733 0 l 703 639 q 697 832 697 731 l 693 832 m 943 1071 l 867 1071 q 758 1197 829 1103 q 595 1071 671 1120 l 514 1071 l 514 1089 q 709 1293 675 1238 l 827 1293 q 915 1134 850 1231 l 943 1089 l 943 1071 z "},"ŵ":{"ha":1004,"x_min":79,"x_max":1057,"o":"m 538 627 l 503 543 l 449 416 l 254 0 l 110 0 l 79 745 l 199 745 l 211 278 q 204 107 211 231 l 210 107 q 244 194 217 127 q 294 310 271 260 q 496 745 317 361 l 628 745 l 652 346 l 654 178 l 654 138 l 653 107 l 659 107 q 765 379 694 213 l 928 745 l 1057 745 l 713 0 l 566 0 l 545 403 l 543 500 l 543 627 l 538 627 m 783 842 l 707 842 q 597 968 669 874 q 435 842 511 891 l 354 842 l 354 860 q 549 1064 515 1009 l 667 1064 q 755 905 690 1002 l 783 860 l 783 842 z "},"Ŷ":{"ha":707,"x_min":127,"x_max":835,"o":"m 370 494 l 694 991 l 835 991 l 410 368 l 334 0 l 208 0 l 289 372 l 127 991 l 252 991 l 370 494 m 682 1071 l 605 1071 q 496 1197 567 1103 q 333 1071 410 1120 l 252 1071 l 252 1089 q 447 1293 414 1238 l 565 1293 q 653 1134 588 1231 l 682 1089 l 682 1071 z "},"ŷ":{"ha":648,"x_min":-131,"x_max":715,"o":"m 66 745 l 189 745 l 237 376 q 250 244 245 326 q 256 100 256 163 l 260 100 q 313 221 277 144 q 368 336 348 298 l 585 745 l 715 745 l 243 -125 q 118 -287 182 -240 q -35 -334 54 -334 q -131 -319 -88 -334 l -131 -221 q -41 -233 -88 -233 q 54 -198 14 -233 q 131 -97 94 -163 l 179 -11 l 66 745 m 601 842 l 524 842 q 415 968 486 874 q 252 842 329 891 l 172 842 l 172 860 q 366 1064 333 1009 l 484 1064 q 572 905 507 1002 l 601 860 l 601 842 z "},"Ÿ":{"ha":707,"x_min":127,"x_max":835,"o":"m 370 494 l 694 991 l 835 991 l 410 368 l 334 0 l 208 0 l 289 372 l 127 991 l 252 991 l 370 494 m 305 1164 q 325 1221 305 1198 q 378 1243 345 1243 q 434 1187 434 1243 q 415 1130 434 1154 q 365 1105 395 1105 q 322 1120 338 1105 q 305 1164 305 1135 m 555 1164 q 575 1221 555 1199 q 629 1243 595 1243 q 671 1228 657 1243 q 684 1187 684 1213 q 664 1129 684 1152 q 613 1105 643 1105 q 571 1120 588 1105 q 555 1164 555 1135 z "},"Ź":{"ha":737,"x_min":-14,"x_max":796,"o":"m 603 0 l -14 0 l 5 97 l 624 880 l 186 880 l 210 991 l 796 991 l 778 893 l 160 111 l 625 111 l 603 0 m 420 1089 q 500 1186 455 1126 q 576 1293 546 1246 l 715 1293 l 715 1279 q 615 1174 684 1240 q 497 1071 547 1107 l 420 1071 l 420 1089 z "},"ź":{"ha":618,"x_min":-21,"x_max":614,"o":"m 472 0 l -21 0 l -4 83 l 458 653 l 139 653 l 158 745 l 610 745 l 590 646 l 136 92 l 490 92 l 472 0 m 319 860 q 399 957 353 897 q 475 1064 444 1017 l 614 1064 l 614 1050 q 513 944 582 1011 q 395 842 445 878 l 319 842 l 319 860 z "},"Ż":{"ha":737,"x_min":-14,"x_max":796,"o":"m 603 0 l -14 0 l 5 97 l 624 880 l 186 880 l 210 991 l 796 991 l 778 893 l 160 111 l 625 111 l 603 0 m 446 1162 q 469 1226 446 1201 q 528 1251 492 1251 q 592 1189 592 1251 q 568 1123 592 1149 q 513 1097 545 1097 q 465 1114 484 1097 q 446 1162 446 1131 z "},"ż":{"ha":618,"x_min":-21,"x_max":610,"o":"m 472 0 l -21 0 l -4 83 l 458 653 l 139 653 l 158 745 l 610 745 l 590 646 l 136 92 l 490 92 l 472 0 m 336 933 q 359 997 336 972 q 418 1022 382 1022 q 482 960 482 1022 q 458 894 482 920 q 403 868 435 868 q 355 885 374 868 q 336 933 336 902 z "},"Ž":{"ha":737,"x_min":-14,"x_max":796,"o":"m 603 0 l -14 0 l 5 97 l 624 880 l 186 880 l 210 991 l 796 991 l 778 893 l 160 111 l 625 111 l 603 0 m 334 1293 l 407 1293 q 517 1166 450 1259 q 684 1293 602 1242 l 763 1293 l 763 1275 l 718 1234 q 567 1071 606 1132 l 448 1071 q 363 1230 425 1135 l 334 1275 l 334 1293 z "},"ž":{"ha":618,"x_min":-21,"x_max":650,"o":"m 472 0 l -21 0 l -4 83 l 458 653 l 139 653 l 158 745 l 610 745 l 590 646 l 136 92 l 490 92 l 472 0 m 220 1064 l 294 1064 q 404 937 337 1030 q 570 1064 489 1013 l 650 1064 l 650 1046 l 605 1004 q 454 842 493 903 l 334 842 q 250 1001 311 906 l 220 1046 l 220 1064 z "},"ſ":{"ha":393,"x_min":-175,"x_max":595,"o":"m -89 -334 q -175 -319 -136 -334 l -175 -216 q -98 -232 -134 -232 q 22 -74 -8 -232 l 210 815 q 294 1005 237 947 q 463 1063 351 1063 q 535 1055 498 1063 q 595 1036 571 1046 l 562 943 q 471 962 512 962 q 380 928 410 962 q 334 815 349 894 l 143 -87 q 59 -275 116 -216 q -89 -334 3 -334 z "},"ƒ":{"ha":765,"x_min":0,"x_max":757,"o":"m 87 -334 q 0 -319 39 -334 l 0 -216 q 78 -232 41 -232 q 152 -193 120 -232 q 199 -74 183 -154 l 335 567 l 207 567 l 215 616 l 354 663 l 372 758 q 456 948 397 890 q 627 1006 515 1006 q 689 999 653 1006 q 757 979 725 993 l 725 886 q 633 905 675 905 q 543 871 573 905 q 496 758 512 838 l 475 659 l 635 659 l 616 567 l 456 567 l 318 -87 q 235 -275 291 -217 q 87 -334 178 -334 z "},"Ǻ":{"ha":781,"x_min":-79,"x_max":774,"o":"m 668 972 q 607 850 668 894 l 713 0 l 591 0 l 555 309 l 220 309 l 57 0 l -79 0 l 395 876 q 366 971 366 911 q 407 1076 366 1035 q 515 1117 448 1117 q 626 1078 585 1117 q 668 972 668 1039 m 468 1165 q 621 1331 530 1220 l 774 1331 l 774 1318 q 668 1231 740 1284 q 554 1152 597 1177 l 468 1152 l 468 1165 m 593 971 q 571 1028 593 1008 q 515 1048 550 1048 q 461 1028 483 1048 q 439 971 439 1008 q 459 915 439 935 q 515 895 479 895 q 571 915 550 895 q 593 971 593 935 m 484 815 q 437 719 454 753 q 279 419 420 685 l 542 419 l 519 615 l 501 815 l 484 815 m 303 991 z "},"ǻ":{"ha":789,"x_min":66,"x_max":764,"o":"m 449 1165 q 602 1331 519 1230 l 754 1331 l 754 1318 q 649 1232 719 1283 q 533 1153 580 1180 l 449 1153 l 449 1165 m 642 958 q 600 852 642 891 q 492 812 559 812 q 381 851 422 812 q 340 957 340 890 q 383 1063 340 1023 q 492 1103 426 1103 q 600 1064 558 1103 q 642 958 642 1025 m 568 957 q 546 1014 568 994 q 492 1034 524 1034 q 436 1014 457 1034 q 415 957 415 994 q 434 901 415 922 q 492 880 453 880 q 547 902 526 880 q 568 957 568 924 m 268 -14 q 121 53 175 -14 q 66 240 66 119 q 114 499 66 379 q 246 689 162 620 q 432 758 330 758 q 543 725 495 758 q 619 629 591 692 l 627 629 l 671 745 l 764 745 l 606 0 l 509 0 l 526 138 l 521 138 q 268 -14 404 -14 m 309 87 q 436 149 372 87 q 539 308 500 210 q 578 507 578 406 q 541 615 578 574 q 444 656 505 656 q 317 598 376 656 q 225 444 258 541 q 192 237 192 347 q 222 125 192 162 q 309 87 253 87 z "},"Ǽ":{"ha":1145,"x_min":-81,"x_max":1200,"o":"m 990 0 l 486 0 l 551 309 l 254 309 l 61 0 l -81 0 l 554 991 l 1200 991 l 1178 882 l 798 882 l 730 572 l 1086 572 l 1065 464 l 710 464 l 635 110 l 1014 110 l 990 0 m 574 419 l 672 882 l 615 882 l 325 419 l 574 419 m 765 1089 q 845 1186 800 1126 q 921 1293 890 1246 l 1060 1293 l 1060 1279 q 960 1174 1028 1240 q 842 1071 891 1107 l 765 1071 l 765 1089 z "},"ǽ":{"ha":1139,"x_min":66,"x_max":1108,"o":"m 793 -14 q 665 13 720 -14 q 582 92 610 39 l 562 0 l 481 0 l 497 138 l 492 138 q 365 19 421 52 q 245 -14 309 -14 q 114 53 162 -14 q 66 239 66 120 q 115 500 66 379 q 244 690 163 622 q 421 758 326 758 q 590 629 536 758 l 597 629 l 643 745 l 721 745 l 701 648 q 796 729 739 700 q 924 758 853 758 q 1057 712 1006 758 q 1108 585 1108 666 q 995 391 1108 460 q 675 322 882 322 l 647 322 l 644 271 q 686 136 644 185 q 815 87 728 87 q 899 100 855 87 q 1017 144 943 112 l 1017 37 q 793 -14 905 -14 m 286 87 q 410 148 349 87 q 511 308 472 208 q 550 507 550 408 q 519 616 550 576 q 437 656 489 656 q 314 598 371 656 q 225 444 258 540 q 192 239 192 347 q 217 125 192 163 q 286 87 241 87 m 900 657 q 760 594 823 657 q 665 421 697 532 l 677 421 q 906 460 825 421 q 987 572 987 499 q 964 634 987 611 q 900 657 941 657 m 626 860 q 706 957 661 897 q 782 1064 751 1017 l 921 1064 l 921 1050 q 821 944 889 1011 q 703 842 752 878 l 626 842 l 626 860 z "},"Ǿ":{"ha":1002,"x_min":79,"x_max":991,"o":"m 958 616 q 897 285 958 430 q 724 63 835 140 q 468 -14 614 -14 q 244 50 336 -14 l 158 -57 l 79 7 l 171 121 q 100 371 100 216 q 164 697 100 549 q 343 926 229 845 q 602 1007 457 1007 q 823 935 730 1007 l 911 1044 l 991 981 l 892 859 q 941 752 924 816 q 958 616 958 689 m 593 899 q 406 831 490 899 q 277 642 323 764 q 231 374 231 521 q 257 228 231 288 l 747 842 q 593 899 685 899 m 828 619 q 807 750 828 693 l 318 143 q 472 96 380 96 q 656 163 575 96 q 783 353 738 231 q 828 619 828 474 m 547 1089 q 627 1186 582 1126 q 703 1293 673 1246 l 842 1293 l 842 1279 q 742 1174 810 1240 q 624 1071 673 1107 l 547 1071 l 547 1089 z "},"ǿ":{"ha":782,"x_min":40,"x_max":750,"o":"m 714 478 q 664 227 714 344 q 531 50 613 110 q 346 -11 449 -11 q 180 32 249 -11 l 114 -53 l 40 4 l 115 97 q 68 275 68 168 q 117 518 68 404 q 250 693 166 632 q 439 754 334 754 q 608 710 539 754 l 676 794 l 750 739 l 672 653 q 714 478 714 587 m 440 654 q 310 605 369 654 q 218 470 251 556 q 186 283 186 383 q 197 199 186 224 l 539 624 q 440 654 500 654 m 351 87 q 476 136 419 87 q 564 271 532 184 q 596 465 596 358 q 587 539 596 514 l 249 117 q 351 87 285 87 m 398 860 q 478 957 433 897 q 554 1064 524 1017 l 693 1064 l 693 1050 q 593 944 661 1011 q 475 842 524 878 l 398 842 l 398 860 z "},"Ș":{"ha":701,"x_min":26,"x_max":721,"o":"m 621 288 q 526 66 621 146 q 257 -14 431 -14 q 26 31 119 -14 l 26 153 q 258 94 140 94 q 427 143 364 94 q 490 278 490 192 q 457 369 490 330 q 326 464 423 408 q 184 583 223 524 q 146 718 146 641 q 187 868 146 803 q 304 970 229 934 q 472 1006 380 1006 q 721 947 607 1006 l 673 842 q 576 881 630 866 q 472 896 522 896 q 331 850 385 896 q 278 726 278 804 q 304 639 278 673 q 419 553 331 604 q 551 459 516 494 q 603 384 585 425 q 621 288 621 342 m 123 -289 q 176 -190 148 -248 q 221 -85 203 -133 l 336 -85 l 336 -98 q 277 -200 323 -133 q 189 -307 231 -268 l 123 -307 l 123 -289 z "},"ș":{"ha":600,"x_min":7,"x_max":572,"o":"m 504 215 q 428 47 504 107 q 215 -14 353 -14 q 7 33 93 -14 l 7 146 q 105 102 51 119 q 211 86 159 86 q 336 118 294 86 q 379 203 379 151 q 356 267 379 240 q 254 338 332 294 q 131 435 167 387 q 94 547 94 484 q 163 700 94 642 q 347 758 233 758 q 572 707 463 758 l 533 610 q 452 641 497 627 q 347 656 408 656 q 252 628 288 656 q 216 554 216 600 q 241 491 216 517 q 339 424 266 465 q 445 350 416 378 q 489 290 473 322 q 504 215 504 257 m 66 -289 q 119 -190 92 -248 q 165 -85 147 -133 l 280 -85 l 280 -98 q 221 -200 267 -133 q 133 -307 174 -268 l 66 -307 l 66 -289 z "},"ˆ":{"ha":770,"x_min":265,"x_max":694,"o":"m 694 842 l 618 842 q 509 968 580 874 q 346 842 422 891 l 265 842 l 265 860 q 460 1064 427 1009 l 578 1064 q 666 905 601 1002 l 694 860 l 694 842 z "},"ˇ":{"ha":770,"x_min":311,"x_max":741,"o":"m 311 1064 l 385 1064 q 494 937 428 1030 q 661 1064 580 1013 l 741 1064 l 741 1046 l 696 1004 q 545 842 584 903 l 425 842 q 340 1001 402 906 l 311 1046 l 311 1064 z "},"ˉ":{"ha":743,"x_min":273,"x_max":668,"o":"m 294 940 l 668 940 l 647 842 l 273 842 l 294 940 z "},"˘":{"ha":770,"x_min":319,"x_max":718,"o":"m 718 1028 q 492 842 675 842 q 367 883 414 842 q 319 997 319 924 l 319 1012 l 321 1028 l 393 1028 q 418 965 393 987 q 504 943 443 943 q 642 1028 619 943 l 718 1028 z "},"˙":{"ha":345,"x_min":220,"x_max":366,"o":"m 220 933 q 242 997 220 972 q 301 1022 265 1022 q 366 960 366 1022 q 342 894 366 920 q 286 868 318 868 q 239 885 258 868 q 220 933 220 902 z "},"˚":{"ha":802,"x_min":372,"x_max":673,"o":"m 673 989 q 631 881 673 921 q 522 842 589 842 q 414 880 455 842 q 372 987 372 919 q 415 1093 372 1053 q 522 1132 457 1132 q 632 1093 590 1132 q 673 989 673 1055 m 600 987 q 578 1044 600 1023 q 522 1064 557 1064 q 468 1044 490 1064 q 446 987 446 1023 q 466 931 446 951 q 522 911 486 911 q 578 931 557 911 q 600 987 600 951 z "},"˛":{"ha":256,"x_min":-100,"x_max":129,"o":"m 129 0 q 25 -101 50 -63 q 0 -175 0 -139 q 46 -221 0 -221 q 102 -215 73 -221 l 102 -292 q 24 -301 71 -301 q -67 -272 -35 -301 q -100 -191 -100 -243 q -68 -95 -100 -138 q 45 0 -37 -52 l 129 0 z "},"˜":{"ha":770,"x_min":227,"x_max":732,"o":"m 570 843 q 517 855 542 843 q 468 881 492 867 q 421 908 444 896 q 376 920 399 920 q 330 900 347 920 q 298 842 313 880 l 227 842 q 386 1019 265 1019 q 443 1007 416 1019 q 494 981 470 996 q 538 955 517 967 q 578 943 559 943 q 624 961 606 943 q 659 1021 642 978 l 732 1021 q 570 843 684 843 z "},"˝":{"ha":770,"x_min":262,"x_max":778,"o":"m 262 860 q 345 960 296 896 q 418 1064 393 1023 l 543 1064 l 543 1050 q 443 943 513 1011 q 326 842 374 876 l 262 842 l 262 860 m 497 860 q 576 956 529 895 q 653 1064 623 1017 l 778 1064 l 778 1050 q 677 941 745 1007 q 561 842 609 876 l 497 842 l 497 860 z "},"΄":{"ha":781,"x_min":418,"x_max":668,"o":"m 418 861 q 483 991 446 913 q 538 1120 519 1068 l 668 1120 l 668 1100 q 596 980 651 1061 q 494 842 542 899 l 418 842 l 418 861 m 581 1063 z "},"΅":{"ha":781,"x_min":297,"x_max":708,"o":"m 450 957 q 554 1164 520 1080 l 690 1164 l 690 1150 q 604 1043 656 1102 q 505 942 552 985 l 450 942 l 450 957 m 297 935 q 318 992 297 970 q 370 1014 338 1014 q 425 958 425 1014 q 405 900 425 923 q 355 876 384 876 q 314 891 330 876 q 297 935 297 906 m 581 935 q 601 992 581 970 q 653 1014 622 1014 q 708 958 708 1014 q 688 900 708 924 q 639 876 668 876 q 597 891 614 876 q 581 935 581 906 z "},"Ά":{"ha":781,"x_min":-79,"x_max":713,"o":"m 553 309 l 218 309 l 57 0 l -79 0 l 460 991 l 590 991 l 713 0 l 590 0 l 553 309 m 541 419 l 518 627 q 500 860 500 781 q 452 755 478 808 q 278 419 427 703 l 541 419 m 90 790 q 154 920 117 842 q 210 1048 191 997 l 340 1048 l 340 1029 q 268 909 323 990 q 166 770 214 827 l 90 770 l 90 790 m 252 991 z "},"·":{"ha":355,"x_min":113,"x_max":288,"o":"m 113 468 q 141 551 113 519 q 220 583 170 583 q 269 565 250 583 q 288 509 288 546 q 260 428 288 460 q 184 395 232 395 q 131 414 150 395 q 113 468 113 433 z "},"Έ":{"ha":796,"x_min":45,"x_max":852,"o":"m 642 0 l 139 0 l 349 991 l 852 991 l 828 882 l 449 882 l 383 572 l 738 572 l 717 464 l 361 464 l 285 110 l 665 110 l 642 0 m 45 790 q 110 920 73 842 q 165 1048 146 997 l 295 1048 l 295 1029 q 223 909 278 990 q 121 770 169 827 l 45 770 l 45 790 m 208 991 z "},"Ή":{"ha":1048,"x_min":45,"x_max":1090,"o":"m 881 0 l 758 0 l 856 463 l 420 463 l 322 0 l 199 0 l 408 991 l 532 991 l 443 572 l 880 572 l 968 991 l 1090 991 l 881 0 m 45 790 q 110 920 73 842 q 165 1048 146 997 l 295 1048 l 295 1029 q 223 909 278 990 q 121 770 169 827 l 45 770 l 45 790 m 208 991 z "},"Ί":{"ha":619,"x_min":60,"x_max":699,"o":"m 489 0 l 142 0 l 156 68 l 274 96 l 443 896 l 338 922 l 351 991 l 699 991 l 685 922 l 566 896 l 396 96 l 503 68 l 489 0 m 60 790 q 125 920 88 842 q 180 1048 162 997 l 311 1048 l 311 1029 q 239 909 294 990 q 137 770 184 827 l 60 770 l 60 790 m 223 991 z "},"Ό":{"ha":1055,"x_min":59,"x_max":1013,"o":"m 1013 616 q 951 285 1013 430 q 779 63 889 140 q 522 -14 668 -14 q 251 87 348 -14 q 154 371 154 189 q 219 697 154 549 q 397 926 283 845 q 656 1007 511 1007 q 918 903 823 1007 q 1013 616 1013 799 m 647 897 q 460 830 543 897 q 332 642 377 763 q 286 374 286 521 q 351 169 286 241 q 526 96 415 96 q 707 161 627 96 q 834 349 788 227 q 881 619 881 471 q 819 823 881 749 q 647 897 757 897 m 59 790 q 124 920 87 842 q 179 1048 161 997 l 309 1048 l 309 1029 q 238 909 292 990 q 136 770 183 827 l 59 770 l 59 790 m 222 991 z "},"Ύ":{"ha":899,"x_min":45,"x_max":1027,"o":"m 562 494 l 886 991 l 1027 991 l 602 368 l 526 0 l 400 0 l 481 372 l 319 991 l 444 991 l 562 494 m 45 790 q 110 920 73 842 q 165 1048 146 997 l 295 1048 l 295 1029 q 223 909 278 990 q 121 770 169 827 l 45 770 l 45 790 m 208 991 z "},"Ώ":{"ha":1088,"x_min":57,"x_max":1036,"o":"m 658 897 q 476 841 555 897 q 355 686 397 785 q 312 461 312 586 q 345 260 312 347 q 454 97 378 173 l 435 0 l 57 0 l 79 110 l 316 110 q 180 467 180 245 q 242 745 180 619 q 415 939 304 870 q 668 1007 526 1007 q 939 905 842 1007 q 1036 625 1036 802 q 960 334 1036 467 q 743 110 884 201 l 989 110 l 966 0 l 555 0 l 574 97 q 821 329 737 194 q 904 627 904 463 q 839 827 904 757 q 658 897 774 897 m 70 790 q 135 920 98 842 q 190 1048 172 997 l 320 1048 l 320 1029 q 249 909 303 990 q 146 770 194 827 l 70 770 l 70 790 m 233 991 z "},"ΐ":{"ha":432,"x_min":71,"x_max":499,"o":"m 265 86 q 361 104 302 86 l 361 11 q 303 -6 338 1 q 241 -14 267 -14 q 114 28 157 -14 q 71 149 71 69 q 85 250 71 180 l 189 745 l 311 745 l 205 245 q 195 164 195 197 q 265 86 195 86 m 241 957 q 345 1164 311 1080 l 481 1164 l 481 1150 q 395 1043 447 1102 q 296 942 343 985 l 241 942 l 241 957 m 88 935 q 109 992 88 970 q 161 1014 130 1014 q 216 958 216 1014 q 196 900 216 923 q 146 876 175 876 q 105 891 121 876 q 88 935 88 906 m 372 935 q 392 992 372 970 q 444 1014 413 1014 q 499 958 499 1014 q 479 900 499 924 q 430 876 459 876 q 388 891 405 876 q 372 935 372 906 z "},"Α":{"ha":781,"x_min":-79,"x_max":713,"o":"m 553 309 l 218 309 l 57 0 l -79 0 l 460 991 l 590 991 l 713 0 l 590 0 l 553 309 m 541 419 l 518 627 q 500 860 500 781 q 452 755 478 808 q 278 419 427 703 l 541 419 z "},"Β":{"ha":833,"x_min":57,"x_max":818,"o":"m 524 991 q 744 934 669 991 q 818 764 818 876 q 760 603 818 668 q 595 517 702 537 l 595 510 q 713 436 672 488 q 754 309 754 383 q 652 83 754 165 q 374 0 551 0 l 57 0 l 267 991 l 524 991 m 301 570 l 464 570 q 628 617 567 570 q 689 749 689 665 q 647 850 689 814 q 509 885 605 885 l 368 885 l 301 570 m 203 106 l 378 106 q 560 158 496 106 q 624 309 624 211 q 575 426 624 385 q 435 467 527 467 l 279 467 l 203 106 z "},"Γ":{"ha":664,"x_min":57,"x_max":770,"o":"m 180 0 l 57 0 l 267 991 l 770 991 l 747 882 l 367 882 l 180 0 z "},"Δ":{"ha":781,"x_min":-37,"x_max":690,"o":"m 461 990 l 589 990 l 690 74 l 675 0 l -37 0 l -22 75 l 461 990 m 501 859 q 395 627 462 756 l 123 110 l 567 110 l 514 624 q 501 859 501 751 z "},"Ε":{"ha":714,"x_min":57,"x_max":770,"o":"m 559 0 l 57 0 l 267 991 l 770 991 l 746 882 l 367 882 l 301 572 l 656 572 l 635 464 l 279 464 l 203 110 l 583 110 l 559 0 z "},"Ζ":{"ha":737,"x_min":-14,"x_max":796,"o":"m 603 0 l -14 0 l 5 97 l 624 880 l 186 880 l 210 991 l 796 991 l 778 893 l 160 111 l 625 111 l 603 0 z "},"Η":{"ha":945,"x_min":58,"x_max":950,"o":"m 741 0 l 618 0 l 715 463 l 279 463 l 182 0 l 58 0 l 268 991 l 392 991 l 302 572 l 739 572 l 828 991 l 950 991 l 741 0 z "},"Θ":{"ha":1003,"x_min":100,"x_max":960,"o":"m 715 558 l 693 452 l 338 452 l 359 558 l 715 558 m 960 615 q 900 289 960 432 q 729 66 840 145 q 469 -14 617 -14 q 197 88 295 -14 q 100 372 100 189 q 164 698 100 551 q 343 926 229 845 q 603 1007 458 1007 q 865 903 770 1007 q 960 615 960 798 m 593 897 q 406 831 488 897 q 278 643 324 764 q 232 375 232 522 q 296 169 232 242 q 472 96 361 96 q 654 160 573 96 q 781 347 734 225 q 828 618 828 468 q 766 823 828 749 q 593 897 703 897 z "},"Ι":{"ha":450,"x_min":-28,"x_max":529,"o":"m 319 0 l -28 0 l -14 68 l 104 96 l 273 896 l 168 922 l 182 991 l 529 991 l 515 922 l 396 896 l 227 96 l 334 68 l 319 0 z "},"Κ":{"ha":781,"x_min":57,"x_max":904,"o":"m 708 0 l 572 0 l 379 481 l 264 396 l 180 0 l 57 0 l 267 991 l 390 991 l 288 510 l 374 602 l 754 991 l 904 991 l 473 555 l 708 0 z "},"Λ":{"ha":781,"x_min":-79,"x_max":715,"o":"m -79 0 l 460 990 l 591 990 l 715 0 l 593 0 l 519 628 q 503 860 507 747 q 387 621 452 743 l 57 0 l -79 0 z "},"Μ":{"ha":1168,"x_min":56,"x_max":1173,"o":"m 542 182 l 982 991 l 1173 991 l 966 0 l 842 0 l 966 589 q 1034 871 1008 781 l 1031 871 l 553 0 l 454 0 l 349 869 l 343 869 q 298 596 333 764 l 172 0 l 56 0 l 265 991 l 440 991 l 536 182 l 542 182 z "},"Ν":{"ha":982,"x_min":56,"x_max":989,"o":"m 779 0 l 647 0 l 340 822 l 336 822 q 286 539 322 705 l 172 0 l 56 0 l 265 991 l 397 991 l 701 172 l 705 172 q 729 319 714 235 q 754 446 744 404 l 871 991 l 989 991 l 779 0 z "},"Ξ":{"ha":718,"x_min":-20,"x_max":770,"o":"m 186 572 l 623 572 l 600 464 l 164 464 l 186 572 m 216 991 l 770 991 l 746 882 l 193 882 l 216 991 m 610 110 l 586 0 l -20 0 l 3 110 l 610 110 z "},"Ο":{"ha":1002,"x_min":100,"x_max":958,"o":"m 958 616 q 897 285 958 430 q 724 63 835 140 q 468 -14 614 -14 q 197 87 294 -14 q 100 371 100 189 q 164 697 100 549 q 343 926 229 845 q 602 1007 457 1007 q 864 903 769 1007 q 958 616 958 799 m 593 897 q 406 830 488 897 q 277 642 323 763 q 232 374 232 521 q 296 169 232 241 q 472 96 361 96 q 653 161 572 96 q 780 349 734 227 q 827 619 827 471 q 765 823 827 749 q 593 897 703 897 z "},"Π":{"ha":945,"x_min":57,"x_max":951,"o":"m 742 0 l 616 0 l 803 882 l 367 882 l 180 0 l 57 0 l 267 991 l 951 991 l 742 0 z "},"Ρ":{"ha":787,"x_min":57,"x_max":787,"o":"m 787 733 q 676 476 787 566 q 351 387 565 387 l 262 387 l 180 0 l 57 0 l 267 991 l 490 991 q 712 927 637 991 q 787 733 787 862 m 285 492 l 371 492 q 587 553 513 492 q 661 729 661 614 q 615 848 661 812 q 473 885 569 885 l 368 885 l 285 492 z "},"Σ":{"ha":726,"x_min":-21,"x_max":782,"o":"m -21 0 l -1 102 l 361 513 l 175 893 l 195 991 l 782 991 l 758 882 l 309 882 l 492 503 l 146 110 l 635 110 l 611 0 l -21 0 z "},"Τ":{"ha":696,"x_min":125,"x_max":818,"o":"m 336 0 l 211 0 l 397 882 l 125 882 l 149 991 l 818 991 l 796 882 l 524 882 l 336 0 z "},"Υ":{"ha":707,"x_min":127,"x_max":835,"o":"m 370 494 l 694 991 l 835 991 l 410 368 l 334 0 l 208 0 l 289 372 l 127 991 l 252 991 l 370 494 z "},"Φ":{"ha":1043,"x_min":100,"x_max":1000,"o":"m 375 -14 l 408 139 q 180 229 260 149 q 100 452 100 310 q 153 677 100 582 q 312 825 207 772 q 567 884 418 879 l 591 1006 l 718 1006 l 693 884 q 920 795 839 876 q 1000 578 1000 715 q 942 350 1000 450 q 779 196 884 250 q 534 139 674 143 l 501 -14 l 375 -14 m 557 244 q 790 339 707 253 q 873 571 873 426 q 821 719 873 665 q 669 777 769 772 l 557 244 m 543 777 q 310 690 393 775 q 227 458 227 605 q 279 303 227 359 q 429 244 332 248 l 543 777 z "},"Χ":{"ha":732,"x_min":-72,"x_max":846,"o":"m 659 0 l 528 0 l 386 429 l 64 0 l -72 0 l 332 525 l 155 991 l 281 991 l 415 612 l 710 991 l 846 991 l 471 519 l 659 0 z "},"Ψ":{"ha":1031,"x_min":134,"x_max":1096,"o":"m 593 302 l 568 302 l 504 0 l 379 0 l 443 302 l 433 302 q 212 374 291 302 q 134 576 134 445 q 150 715 134 638 l 207 991 l 336 991 l 275 701 q 260 582 260 629 q 307 451 260 493 q 453 408 354 408 l 464 408 l 589 991 l 714 991 l 590 408 l 600 408 q 796 469 723 408 q 897 664 869 530 l 966 991 l 1096 991 l 1025 653 q 881 388 989 473 q 593 302 773 302 z "},"Ω":{"ha":1017,"x_min":-14,"x_max":965,"o":"m 587 897 q 406 841 484 897 q 284 686 327 785 q 241 461 241 586 q 274 260 241 347 q 383 97 307 173 l 364 0 l -14 0 l 8 110 l 245 110 q 110 467 110 245 q 172 745 110 619 q 345 939 234 870 q 597 1007 456 1007 q 868 905 771 1007 q 965 625 965 802 q 889 334 965 467 q 672 110 813 201 l 918 110 l 896 0 l 485 0 l 504 97 q 750 329 667 194 q 833 627 833 463 q 769 827 833 757 q 587 897 704 897 z "},"Ϊ":{"ha":450,"x_min":-28,"x_max":572,"o":"m 319 0 l -28 0 l -14 68 l 104 96 l 273 896 l 168 922 l 182 991 l 529 991 l 515 922 l 396 896 l 227 96 l 334 68 l 319 0 m 193 1164 q 212 1221 193 1198 q 266 1243 232 1243 q 321 1187 321 1243 q 302 1130 321 1154 q 252 1105 283 1105 q 209 1120 226 1105 q 193 1164 193 1135 m 442 1164 q 463 1221 442 1199 q 516 1243 483 1243 q 558 1228 545 1243 q 572 1187 572 1213 q 551 1129 572 1152 q 500 1105 530 1105 q 459 1120 475 1105 q 442 1164 442 1135 z "},"Ϋ":{"ha":707,"x_min":127,"x_max":835,"o":"m 370 494 l 694 991 l 835 991 l 410 368 l 334 0 l 208 0 l 289 372 l 127 991 l 252 991 l 370 494 m 305 1164 q 325 1221 305 1198 q 378 1243 345 1243 q 434 1187 434 1243 q 415 1130 434 1154 q 365 1105 395 1105 q 322 1120 338 1105 q 305 1164 305 1135 m 555 1164 q 575 1221 555 1199 q 629 1243 595 1243 q 671 1228 657 1243 q 684 1187 684 1213 q 664 1129 684 1152 q 613 1105 643 1105 q 571 1120 588 1105 q 555 1164 555 1135 z "},"ά":{"ha":794,"x_min":66,"x_max":793,"o":"m 625 631 q 693 745 661 710 l 793 745 q 742 613 772 705 q 689 425 711 522 l 640 207 q 631 135 631 169 q 642 98 631 111 q 673 85 654 85 q 718 93 694 85 l 718 4 q 679 -8 705 -3 q 633 -14 653 -14 q 509 123 509 -14 l 504 123 q 384 17 441 47 q 268 -14 327 -14 q 120 54 174 -14 q 66 240 66 121 q 114 503 66 382 q 243 690 161 623 q 427 758 326 758 q 618 631 561 758 l 625 631 m 310 87 q 435 148 374 87 q 534 306 496 209 q 572 507 572 403 q 537 615 572 574 q 440 656 501 656 q 314 599 372 656 q 224 446 257 543 q 192 239 192 349 q 222 125 192 163 q 310 87 253 87 m 429 861 q 493 991 456 913 q 549 1120 530 1068 l 679 1120 l 679 1100 q 607 980 662 1061 q 505 842 553 899 l 429 842 l 429 861 m 591 1063 z "},"έ":{"ha":627,"x_min":41,"x_max":636,"o":"m 452 335 l 372 335 q 217 299 270 335 q 164 197 164 263 q 201 114 164 143 q 309 85 237 85 q 413 99 360 85 q 534 146 466 113 l 534 43 q 289 -14 426 -14 q 107 37 174 -14 q 41 178 41 87 q 93 318 41 264 q 245 390 144 372 l 245 395 q 168 455 194 416 q 142 545 142 494 q 218 700 142 642 q 416 757 294 757 q 636 707 544 757 l 591 612 q 518 643 562 629 q 422 656 473 656 q 299 624 342 656 q 256 534 256 591 q 291 463 256 488 q 387 437 326 437 l 472 437 l 452 335 m 376 861 q 440 991 404 913 q 496 1120 477 1068 l 626 1120 l 626 1100 q 554 980 609 1061 q 452 842 500 899 l 376 842 l 376 861 m 538 1063 z "},"ή":{"ha":804,"x_min":39,"x_max":726,"o":"m 542 -334 l 419 -334 l 590 467 q 604 562 604 534 q 581 630 604 605 q 505 656 557 656 q 392 616 447 656 q 294 500 336 576 q 229 321 251 425 l 161 0 l 39 0 l 197 745 l 297 745 l 282 607 l 289 607 q 371 694 334 665 q 449 741 407 724 q 539 758 492 758 q 676 710 627 758 q 726 575 726 663 q 711 453 726 522 l 542 -334 m 427 861 q 492 991 455 913 q 547 1120 529 1068 l 677 1120 l 677 1100 q 606 980 661 1061 q 504 842 551 899 l 427 842 l 427 861 m 590 1063 z "},"ί":{"ha":432,"x_min":71,"x_max":473,"o":"m 265 86 q 361 104 302 86 l 361 11 q 303 -6 338 1 q 241 -14 267 -14 q 114 28 157 -14 q 71 149 71 69 q 85 250 71 180 l 189 745 l 311 745 l 205 245 q 195 164 195 197 q 265 86 195 86 m 222 861 q 287 991 250 913 q 342 1120 324 1068 l 473 1120 l 473 1100 q 401 980 456 1061 q 299 842 347 899 l 222 842 l 222 861 m 385 1063 z "},"ΰ":{"ha":806,"x_min":89,"x_max":749,"o":"m 346 -14 q 155 51 221 -14 q 89 231 89 115 q 110 379 89 279 l 186 745 l 309 745 q 234 394 260 514 q 211 237 209 274 q 250 122 211 159 q 354 86 288 86 q 557 253 488 86 q 627 745 627 420 l 749 745 q 647 174 749 361 q 346 -14 546 -14 m 437 957 q 541 1164 507 1080 l 677 1164 l 677 1150 q 591 1043 643 1102 q 492 942 539 985 l 437 942 l 437 957 m 284 935 q 305 992 284 970 q 357 1014 326 1014 q 412 958 412 1014 q 392 900 412 923 q 342 876 371 876 q 301 891 317 876 q 284 935 284 906 m 568 935 q 588 992 568 970 q 640 1014 609 1014 q 695 958 695 1014 q 675 900 695 924 q 626 876 655 876 q 584 891 601 876 q 568 935 568 906 z "},"α":{"ha":794,"x_min":66,"x_max":793,"o":"m 625 631 q 693 745 661 710 l 793 745 q 742 613 772 705 q 689 425 711 522 l 640 207 q 631 135 631 169 q 642 98 631 111 q 673 85 654 85 q 718 93 694 85 l 718 4 q 679 -8 705 -3 q 633 -14 653 -14 q 509 123 509 -14 l 504 123 q 384 17 441 47 q 268 -14 327 -14 q 120 54 174 -14 q 66 240 66 121 q 114 503 66 382 q 243 690 161 623 q 427 758 326 758 q 618 631 561 758 l 625 631 m 310 87 q 435 148 374 87 q 534 306 496 209 q 572 507 572 403 q 537 615 572 574 q 440 656 501 656 q 314 599 372 656 q 224 446 257 543 q 192 239 192 349 q 222 125 192 163 q 310 87 253 87 z "},"β":{"ha":807,"x_min":-32,"x_max":786,"o":"m 534 1063 q 720 1000 653 1063 q 786 828 786 938 q 726 646 786 717 q 547 550 665 576 q 676 472 631 531 q 721 321 721 414 q 631 79 721 171 q 387 -14 541 -14 q 278 3 328 -14 q 175 61 228 20 l 90 -334 l -32 -334 l 197 743 q 266 927 223 861 q 375 1028 309 994 q 534 1063 441 1063 m 522 962 q 395 911 444 962 q 319 739 345 860 l 193 144 q 279 102 228 117 q 378 86 330 86 q 541 150 479 86 q 602 315 602 214 q 404 501 602 501 l 359 501 l 382 604 l 431 604 q 602 660 543 604 q 661 819 661 715 q 624 924 661 886 q 522 962 587 962 z "},"γ":{"ha":644,"x_min":56,"x_max":711,"o":"m 183 -334 l 56 -334 q 180 8 84 -178 l 66 745 l 191 745 l 241 349 q 254 227 250 298 q 258 110 258 155 l 261 110 q 370 346 307 224 l 581 745 l 711 745 l 317 20 q 183 -334 219 -159 z "},"δ":{"ha":772,"x_min":49,"x_max":772,"o":"m 400 642 q 308 744 335 694 q 281 848 281 793 q 349 1004 281 945 q 530 1063 418 1063 q 772 985 659 1063 l 724 897 q 615 949 660 935 q 529 964 570 964 q 429 932 460 964 q 397 848 397 900 q 417 777 397 809 q 517 682 437 745 q 649 532 610 607 q 689 368 689 457 q 644 172 689 260 q 516 35 599 84 q 325 -14 434 -14 q 179 19 241 -14 q 82 113 116 52 q 49 252 49 173 q 138 497 49 397 q 400 642 228 597 m 338 87 q 503 165 439 87 q 566 367 566 243 q 543 485 566 431 q 469 582 520 538 q 252 467 330 549 q 174 268 174 385 q 215 135 174 183 q 338 87 257 87 z "},"ε":{"ha":627,"x_min":41,"x_max":636,"o":"m 452 335 l 372 335 q 217 299 270 335 q 164 197 164 263 q 201 114 164 143 q 309 85 237 85 q 413 99 360 85 q 534 146 466 113 l 534 43 q 289 -14 426 -14 q 107 37 174 -14 q 41 178 41 87 q 93 318 41 264 q 245 390 144 372 l 245 395 q 168 455 194 416 q 142 545 142 494 q 218 700 142 642 q 416 757 294 757 q 636 707 544 757 l 591 612 q 518 643 562 629 q 422 656 473 656 q 299 624 342 656 q 256 534 256 591 q 291 463 256 488 q 387 437 326 437 l 472 437 l 452 335 z "},"ζ":{"ha":631,"x_min":66,"x_max":733,"o":"m 66 264 q 119 468 66 364 q 274 686 171 572 q 571 961 378 800 q 397 953 506 953 l 256 953 l 278 1055 l 733 1055 l 714 962 l 589 853 q 283 532 374 665 q 192 282 192 398 q 220 173 192 212 q 329 98 248 134 q 436 42 403 67 q 485 -13 469 18 q 501 -85 501 -43 q 385 -281 501 -184 l 257 -281 q 355 -181 326 -222 q 383 -102 383 -141 q 360 -51 383 -72 q 257 3 337 -30 q 108 106 150 47 q 66 264 66 164 m 385 104 z "},"η":{"ha":804,"x_min":39,"x_max":726,"o":"m 542 -334 l 419 -334 l 590 467 q 604 562 604 534 q 581 630 604 605 q 505 656 557 656 q 392 616 447 656 q 294 500 336 576 q 229 321 251 425 l 161 0 l 39 0 l 197 745 l 297 745 l 282 607 l 289 607 q 371 694 334 665 q 449 741 407 724 q 539 758 492 758 q 676 710 627 758 q 726 575 726 663 q 711 453 726 522 l 542 -334 z "},"θ":{"ha":760,"x_min":66,"x_max":732,"o":"m 294 -14 q 125 57 184 -14 q 66 272 66 128 q 128 661 66 450 q 282 967 190 871 q 507 1063 375 1063 q 732 764 732 1063 q 672 388 732 594 q 518 84 612 182 q 294 -14 424 -14 m 309 87 q 458 178 396 87 q 572 488 520 269 l 207 488 q 186 283 186 382 q 216 134 186 181 q 309 87 246 87 m 493 961 q 342 872 406 961 q 229 591 278 783 l 591 591 q 611 774 611 690 q 493 961 611 961 z "},"ι":{"ha":432,"x_min":71,"x_max":361,"o":"m 265 86 q 361 104 302 86 l 361 11 q 303 -6 338 1 q 241 -14 267 -14 q 114 28 157 -14 q 71 149 71 69 q 85 250 71 180 l 189 745 l 311 745 l 205 245 q 195 164 195 197 q 265 86 195 86 z "},"κ":{"ha":688,"x_min":37,"x_max":729,"o":"m 585 745 l 729 745 l 410 425 l 608 0 l 473 0 l 317 349 l 216 269 l 161 0 l 37 0 l 195 745 l 318 745 l 277 557 q 252 458 266 506 l 229 383 l 232 383 l 585 745 z "},"λ":{"ha":682,"x_min":-78,"x_max":619,"o":"m 345 729 l 332 827 q 299 931 323 901 q 231 962 274 962 q 161 956 190 962 l 146 1053 q 241 1064 192 1064 q 384 1018 338 1064 q 444 851 431 971 l 524 158 q 574 85 532 85 q 619 93 596 85 l 619 1 q 541 -14 585 -14 q 448 21 477 -14 q 410 129 418 56 l 382 392 q 370 600 370 493 q 289 424 329 496 l 52 0 l -78 0 l 345 729 m 291 743 z "},"μ":{"ha":812,"x_min":-31,"x_max":772,"o":"m 208 186 q 306 87 208 87 q 418 127 363 87 q 515 241 473 167 q 582 421 558 315 l 653 745 l 772 745 l 614 0 l 514 0 l 529 138 l 522 138 q 399 21 458 55 q 277 -14 340 -14 q 167 50 200 -14 l 161 50 l 134 -119 l 89 -334 l -31 -334 l 197 745 l 319 745 l 221 277 q 208 186 208 217 z "},"ν":{"ha":688,"x_min":66,"x_max":700,"o":"m 66 745 l 189 745 q 235 337 218 485 q 256 107 252 189 q 452 370 374 218 q 579 745 530 522 l 700 745 q 551 320 648 493 q 286 0 454 148 l 158 0 l 66 745 z "},"ξ":{"ha":621,"x_min":56,"x_max":685,"o":"m 559 505 l 507 505 q 338 476 413 505 q 222 392 263 446 q 180 264 180 337 q 211 166 180 202 q 328 96 242 130 q 425 47 392 71 q 476 -10 458 22 q 494 -83 494 -43 q 469 -178 494 -132 q 379 -281 444 -224 l 248 -281 q 349 -176 325 -212 q 372 -103 372 -140 q 361 -63 372 -80 q 327 -32 351 -46 q 241 5 303 -18 q 98 102 141 45 q 56 249 56 159 q 131 445 56 365 q 343 555 207 525 l 343 559 q 197 733 197 603 q 259 874 197 812 q 421 961 320 937 l 388 958 q 281 953 341 953 l 241 953 l 264 1055 l 685 1055 l 664 961 l 659 961 q 488 933 568 961 q 362 857 408 906 q 317 743 317 808 q 517 600 317 600 l 581 600 l 559 505 m 427 83 z "},"ο":{"ha":782,"x_min":66,"x_max":717,"o":"m 591 481 q 551 606 591 559 q 440 653 510 653 q 311 603 368 653 q 222 464 253 553 q 191 271 191 376 q 232 137 191 184 q 351 90 274 90 q 474 139 419 90 q 561 276 530 187 q 591 481 591 365 m 717 467 q 668 225 717 338 q 535 51 619 112 q 345 -11 451 -11 q 140 66 214 -11 q 66 275 66 144 q 117 519 66 406 q 251 694 167 633 q 439 754 334 754 q 643 677 568 754 q 717 467 717 600 z "},"π":{"ha":847,"x_min":53,"x_max":875,"o":"m 654 86 q 714 97 684 86 l 714 3 q 616 -14 662 -14 q 519 19 553 -14 q 485 109 485 52 q 497 204 485 139 l 587 640 l 328 640 l 189 0 l 65 0 l 204 640 l 53 640 l 62 690 l 196 745 l 875 745 l 854 640 l 710 640 l 618 195 q 610 131 610 157 q 621 98 610 110 q 654 86 633 86 z "},"ρ":{"ha":796,"x_min":-31,"x_max":729,"o":"m 729 464 q 681 219 729 334 q 554 46 633 105 q 374 -14 475 -14 q 265 6 314 -14 q 171 72 216 26 q 151 -44 164 26 q 90 -334 138 -115 l -31 -334 l 132 437 q 250 680 167 604 q 464 757 334 757 q 661 682 593 757 q 729 464 729 607 m 457 656 q 328 600 378 656 q 249 411 278 543 l 195 161 q 271 107 227 126 q 361 87 315 87 q 487 137 431 87 q 574 277 542 187 q 606 465 606 366 q 568 607 606 559 q 457 656 530 656 z "},"ς":{"ha":631,"x_min":66,"x_max":640,"o":"m 192 300 q 224 173 192 219 q 345 92 256 126 q 471 13 437 54 q 504 -87 504 -28 q 476 -185 504 -136 q 387 -289 449 -233 l 257 -289 q 352 -188 320 -232 q 383 -102 383 -144 q 359 -47 383 -68 q 265 0 336 -27 q 112 114 157 43 q 66 288 66 184 q 119 528 66 417 q 259 699 172 640 q 457 758 347 758 q 640 722 554 758 l 606 621 q 453 656 528 656 q 322 611 380 656 q 228 479 264 566 q 192 300 192 392 m 415 101 z "},"σ":{"ha":811,"x_min":66,"x_max":833,"o":"m 696 407 q 649 191 696 291 q 524 40 603 91 q 342 -11 445 -11 q 137 66 208 -11 q 66 294 66 144 q 116 534 66 433 q 260 690 165 636 q 489 745 355 745 l 833 745 l 814 642 l 632 642 q 682 523 669 576 q 696 407 696 469 m 484 642 q 266 553 342 642 q 191 297 191 464 q 231 143 191 196 q 350 90 271 90 q 517 181 457 90 q 576 439 576 273 q 529 642 576 558 l 484 642 z "},"τ":{"ha":590,"x_min":53,"x_max":632,"o":"m 364 86 q 463 104 404 86 l 463 11 q 406 -6 443 1 q 345 -14 368 -14 q 212 27 258 -14 q 167 149 167 68 q 184 275 167 187 l 262 640 l 53 640 l 62 690 l 195 745 l 632 745 l 610 640 l 385 640 l 306 272 q 290 163 290 197 q 307 108 290 130 q 364 86 324 86 z "},"υ":{"ha":806,"x_min":89,"x_max":749,"o":"m 346 -14 q 155 51 221 -14 q 89 231 89 115 q 110 379 89 279 l 186 745 l 309 745 q 234 394 260 514 q 211 237 209 274 q 250 122 211 159 q 354 86 288 86 q 557 253 488 86 q 627 745 627 420 l 749 745 q 647 174 749 361 q 346 -14 546 -14 z "},"φ":{"ha":943,"x_min":66,"x_max":876,"o":"m 252 -334 l 319 -12 q 133 80 200 3 q 66 283 66 157 q 118 525 66 415 q 294 751 170 635 l 372 679 q 230 492 273 583 q 187 296 187 401 q 342 87 187 108 l 432 515 q 519 700 460 643 q 675 757 578 757 q 824 693 772 757 q 876 505 876 629 q 823 241 876 358 q 671 58 769 123 q 439 -16 572 -7 l 372 -334 l 252 -334 m 463 87 q 615 148 549 96 q 718 295 681 200 q 754 504 754 389 q 668 656 754 656 q 593 618 619 656 q 551 501 567 580 l 463 87 z "},"χ":{"ha":704,"x_min":-157,"x_max":755,"o":"m 171 747 q 277 708 239 747 q 328 574 315 669 l 354 345 l 627 745 l 755 745 l 382 210 l 428 -126 q 456 -211 437 -186 q 514 -235 475 -235 q 570 -227 538 -235 l 570 -318 q 478 -334 521 -334 q 366 -289 406 -334 q 315 -143 327 -243 l 285 103 l -20 -334 l -157 -334 l 257 235 l 216 551 q 193 626 210 605 q 144 647 176 647 q 98 637 131 647 l 77 728 q 171 747 119 747 z "},"ψ":{"ha":1004,"x_min":96,"x_max":949,"o":"m 500 92 q 686 176 615 104 q 790 379 757 248 q 823 745 823 511 l 949 745 q 898 317 949 475 q 743 78 847 159 q 478 -11 639 -2 l 410 -334 l 290 -334 l 359 -11 q 162 70 229 2 q 96 253 96 137 q 113 395 96 307 l 186 745 l 309 745 l 235 390 q 220 267 220 319 q 259 140 220 183 q 380 89 299 96 l 585 1054 l 704 1054 l 500 92 z "},"ω":{"ha":1025,"x_min":66,"x_max":960,"o":"m 260 -14 q 117 53 168 -14 q 66 237 66 119 q 112 491 66 361 q 243 745 158 621 l 371 745 q 191 240 191 473 q 286 87 191 87 q 432 269 393 87 l 476 476 l 596 476 l 554 286 q 543 197 543 239 q 565 116 543 144 q 628 87 587 87 q 734 142 688 87 q 808 304 781 196 q 836 528 836 413 q 818 745 836 646 l 939 745 q 960 532 960 646 q 916 250 960 382 q 797 52 872 118 q 623 -14 722 -14 q 518 19 559 -14 q 461 107 478 52 q 373 16 422 45 q 260 -14 325 -14 z "},"ϊ":{"ha":432,"x_min":71,"x_max":473,"o":"m 265 86 q 361 104 302 86 l 361 11 q 303 -6 338 1 q 241 -14 267 -14 q 114 28 157 -14 q 71 149 71 69 q 85 250 71 180 l 189 745 l 311 745 l 205 245 q 195 164 195 197 q 265 86 195 86 m 94 935 q 114 991 94 969 q 168 1014 134 1014 q 223 958 223 1014 q 204 901 223 925 q 154 876 184 876 q 111 891 127 876 q 94 935 94 906 m 344 935 q 364 992 344 970 q 418 1014 385 1014 q 460 999 446 1014 q 473 958 473 983 q 453 900 473 923 q 402 876 432 876 q 360 891 377 876 q 344 935 344 906 z "},"ϋ":{"ha":806,"x_min":89,"x_max":749,"o":"m 346 -14 q 155 51 221 -14 q 89 231 89 115 q 110 379 89 279 l 186 745 l 309 745 q 234 394 260 514 q 211 237 209 274 q 250 122 211 159 q 354 86 288 86 q 557 253 488 86 q 627 745 627 420 l 749 745 q 647 174 749 361 q 346 -14 546 -14 m 302 935 q 322 991 302 969 q 376 1014 342 1014 q 431 958 431 1014 q 412 901 431 925 q 362 876 393 876 q 319 891 336 876 q 302 935 302 906 m 552 935 q 572 992 552 970 q 626 1014 593 1014 q 668 999 654 1014 q 682 958 682 983 q 661 900 682 923 q 610 876 640 876 q 569 891 585 876 q 552 935 552 906 z "},"ό":{"ha":782,"x_min":66,"x_max":717,"o":"m 591 481 q 551 606 591 559 q 440 653 510 653 q 311 603 368 653 q 222 464 253 553 q 191 271 191 376 q 232 137 191 184 q 351 90 274 90 q 474 139 419 90 q 561 276 530 187 q 591 481 591 365 m 717 467 q 668 225 717 338 q 535 51 619 112 q 345 -11 451 -11 q 140 66 214 -11 q 66 275 66 144 q 117 519 66 406 q 251 694 167 633 q 439 754 334 754 q 643 677 568 754 q 717 467 717 600 m 420 861 q 485 991 448 913 q 541 1120 522 1068 l 671 1120 l 671 1100 q 599 980 654 1061 q 497 842 545 899 l 420 842 l 420 861 m 583 1063 z "},"ύ":{"ha":806,"x_min":89,"x_max":749,"o":"m 346 -14 q 155 51 221 -14 q 89 231 89 115 q 110 379 89 279 l 186 745 l 309 745 q 234 394 260 514 q 211 237 209 274 q 250 122 211 159 q 354 86 288 86 q 557 253 488 86 q 627 745 627 420 l 749 745 q 647 174 749 361 q 346 -14 546 -14 m 413 861 q 478 991 441 913 q 533 1120 515 1068 l 663 1120 l 663 1100 q 592 980 646 1061 q 490 842 537 899 l 413 842 l 413 861 m 576 1063 z "},"ώ":{"ha":1025,"x_min":66,"x_max":960,"o":"m 260 -14 q 117 53 168 -14 q 66 237 66 119 q 112 491 66 361 q 243 745 158 621 l 371 745 q 191 240 191 473 q 286 87 191 87 q 432 269 393 87 l 476 476 l 596 476 l 554 286 q 543 197 543 239 q 565 116 543 144 q 628 87 587 87 q 734 142 688 87 q 808 304 781 196 q 836 528 836 413 q 818 745 836 646 l 939 745 q 960 532 960 646 q 916 250 960 382 q 797 52 872 118 q 623 -14 722 -14 q 518 19 559 -14 q 461 107 478 52 q 373 16 422 45 q 260 -14 325 -14 m 543 861 q 607 991 570 913 q 663 1120 644 1068 l 793 1120 l 793 1100 q 721 980 776 1061 q 619 842 667 899 l 543 842 l 543 861 m 705 1063 z "},"Ё":{"ha":714,"x_min":57,"x_max":770,"o":"m 559 0 l 57 0 l 267 991 l 770 991 l 746 882 l 367 882 l 301 572 l 656 572 l 635 464 l 279 464 l 203 110 l 583 110 l 559 0 m 351 1164 q 370 1221 351 1198 q 424 1243 390 1243 q 479 1187 479 1243 q 460 1130 479 1154 q 410 1105 441 1105 q 367 1120 384 1105 q 351 1164 351 1135 m 600 1164 q 621 1221 600 1199 q 674 1243 641 1243 q 716 1228 703 1243 q 730 1187 730 1213 q 709 1129 730 1152 q 659 1105 688 1105 q 617 1120 633 1105 q 600 1164 600 1135 z "},"Ђ":{"ha":936,"x_min":125,"x_max":836,"o":"m 554 -14 q 457 1 496 -14 l 457 110 q 545 96 496 96 q 644 131 610 96 q 693 244 679 166 q 713 386 713 348 q 679 471 713 444 q 574 498 645 498 l 387 498 l 282 0 l 158 0 l 346 882 l 125 882 l 149 991 l 766 991 l 743 882 l 469 882 l 411 608 l 585 608 q 836 399 836 608 q 825 279 836 334 l 814 228 q 727 45 789 104 q 554 -14 665 -14 z "},"Ѓ":{"ha":664,"x_min":57,"x_max":770,"o":"m 180 0 l 57 0 l 267 991 l 770 991 l 747 882 l 367 882 l 180 0 m 443 1089 q 523 1186 477 1126 q 599 1293 568 1246 l 738 1293 l 738 1279 q 637 1174 706 1240 q 519 1071 569 1107 l 443 1071 l 443 1089 z "},"Є":{"ha":815,"x_min":100,"x_max":878,"o":"m 636 896 q 404 810 503 896 q 261 574 304 724 l 677 574 l 656 464 l 237 464 q 232 367 232 433 q 296 165 232 235 q 475 96 361 96 q 694 136 572 96 l 694 28 q 572 -5 627 4 q 453 -14 517 -14 q 193 86 286 -14 q 100 366 100 185 q 170 692 100 540 q 362 925 241 844 q 636 1006 484 1006 q 878 950 774 1006 l 828 847 q 636 896 734 896 z "},"Ѕ":{"ha":701,"x_min":26,"x_max":721,"o":"m 621 288 q 526 66 621 146 q 257 -14 431 -14 q 26 31 119 -14 l 26 153 q 258 94 140 94 q 427 143 364 94 q 490 278 490 192 q 457 369 490 330 q 326 464 423 408 q 184 583 223 524 q 146 718 146 641 q 187 868 146 803 q 304 970 229 934 q 472 1006 380 1006 q 721 947 607 1006 l 673 842 q 576 881 630 866 q 472 896 522 896 q 331 850 385 896 q 278 726 278 804 q 304 639 278 673 q 419 553 331 604 q 551 459 516 494 q 603 384 585 425 q 621 288 621 342 z "},"І":{"ha":450,"x_min":-28,"x_max":529,"o":"m 319 0 l -28 0 l -14 68 l 104 96 l 273 896 l 168 922 l 182 991 l 529 991 l 515 922 l 396 896 l 227 96 l 334 68 l 319 0 z "},"Ї":{"ha":450,"x_min":-28,"x_max":572,"o":"m 319 0 l -28 0 l -14 68 l 104 96 l 273 896 l 168 922 l 182 991 l 529 991 l 515 922 l 396 896 l 227 96 l 334 68 l 319 0 m 193 1164 q 212 1221 193 1198 q 266 1243 232 1243 q 321 1187 321 1243 q 302 1130 321 1154 q 252 1105 283 1105 q 209 1120 226 1105 q 193 1164 193 1135 m 442 1164 q 463 1221 442 1199 q 516 1243 483 1243 q 558 1228 545 1243 q 572 1187 572 1213 q 551 1129 572 1152 q 500 1105 530 1105 q 459 1120 475 1105 q 442 1164 442 1135 z "},"Ј":{"ha":379,"x_min":-216,"x_max":392,"o":"m -111 -264 q -216 -248 -182 -264 l -212 -140 q -114 -154 -165 -154 q 60 12 24 -154 l 268 991 l 392 991 l 182 -1 q -111 -264 126 -264 z "},"Љ":{"ha":1243,"x_min":-45,"x_max":1162,"o":"m 790 572 l 861 572 q 1162 328 1162 572 q 1061 85 1162 171 q 771 0 960 0 l 545 0 l 730 880 l 507 880 q 356 345 406 501 q 266 119 306 189 q 172 17 226 50 q 41 -16 119 -16 q -45 0 -10 -16 l -45 109 q 25 94 -9 94 q 115 124 80 94 q 182 222 151 153 q 265 456 214 290 q 415 991 316 623 l 878 991 l 790 572 m 690 106 l 790 106 q 1035 317 1035 106 q 993 429 1035 393 q 861 465 951 465 l 768 465 l 690 106 z "},"Њ":{"ha":1257,"x_min":57,"x_max":1177,"o":"m 1177 328 q 1075 85 1177 170 q 786 0 972 0 l 558 0 l 656 464 l 278 464 l 180 0 l 57 0 l 267 991 l 390 991 l 301 574 l 679 574 l 768 991 l 892 991 l 803 574 l 876 574 q 1177 328 1177 574 m 704 106 l 804 106 q 1048 317 1048 106 q 1007 429 1048 393 q 875 464 965 464 l 782 464 l 704 106 z "},"Ћ":{"ha":936,"x_min":125,"x_max":836,"o":"m 713 386 q 679 472 713 445 q 572 498 644 498 l 387 498 l 282 0 l 158 0 l 346 882 l 125 882 l 149 991 l 766 991 l 743 882 l 469 882 l 411 608 l 593 608 q 777 555 718 608 q 836 395 836 501 q 830 334 836 370 q 762 0 825 299 l 637 0 l 700 285 q 713 386 713 342 z "},"Ќ":{"ha":781,"x_min":57,"x_max":905,"o":"m 725 0 l 583 0 l 283 492 l 180 0 l 57 0 l 267 991 l 390 991 l 288 510 l 755 991 l 905 991 l 415 496 l 725 0 m 492 1089 q 572 1186 526 1126 q 648 1293 617 1246 l 787 1293 l 787 1279 q 686 1174 755 1240 q 568 1071 618 1107 l 492 1071 l 492 1089 z "},"Ў":{"ha":798,"x_min":0,"x_max":925,"o":"m 115 -14 q 55 -8 88 -14 q 0 5 21 -3 l 0 126 q 113 100 54 100 q 234 139 181 100 q 351 285 286 179 l 143 991 l 268 991 l 387 557 q 432 370 422 428 q 514 529 478 468 l 785 991 l 925 991 l 468 248 q 300 44 379 102 q 115 -14 221 -14 m 814 1284 q 526 1071 772 1071 q 362 1113 418 1071 q 307 1239 307 1156 q 312 1284 307 1265 l 419 1284 q 415 1246 415 1261 q 533 1158 415 1158 q 647 1189 609 1158 q 697 1284 685 1220 l 814 1284 z "},"Џ":{"ha":945,"x_min":57,"x_max":951,"o":"m 267 991 l 392 991 l 204 110 l 642 110 l 828 991 l 951 991 l 742 0 l 458 0 l 404 -261 l 285 -261 l 342 0 l 57 0 l 267 991 z "},"А":{"ha":781,"x_min":-79,"x_max":713,"o":"m 553 309 l 218 309 l 57 0 l -79 0 l 460 991 l 590 991 l 713 0 l 590 0 l 553 309 m 541 419 l 518 627 q 500 860 500 781 q 452 755 478 808 q 278 419 427 703 l 541 419 z "},"Б":{"ha":787,"x_min":58,"x_max":770,"o":"m 401 572 q 703 326 703 572 q 601 85 703 171 q 311 0 500 0 l 58 0 l 268 991 l 770 991 l 746 882 l 370 882 l 304 572 l 401 572 m 329 106 q 575 317 575 106 q 533 429 575 393 q 401 465 491 465 l 282 465 l 204 106 l 329 106 z "},"В":{"ha":833,"x_min":57,"x_max":818,"o":"m 524 991 q 744 934 669 991 q 818 764 818 876 q 760 603 818 668 q 595 517 702 537 l 595 510 q 713 436 672 488 q 754 309 754 383 q 652 83 754 165 q 374 0 551 0 l 57 0 l 267 991 l 524 991 m 301 570 l 464 570 q 628 617 567 570 q 689 749 689 665 q 647 850 689 814 q 509 885 605 885 l 368 885 l 301 570 m 203 106 l 378 106 q 560 158 496 106 q 624 309 624 211 q 575 426 624 385 q 435 467 527 467 l 279 467 l 203 106 z "},"Г":{"ha":664,"x_min":57,"x_max":770,"o":"m 180 0 l 57 0 l 267 991 l 770 991 l 747 882 l 367 882 l 180 0 z "},"Д":{"ha":875,"x_min":-117,"x_max":864,"o":"m -39 111 l 32 111 q 287 545 163 294 q 460 991 410 796 l 864 991 l 677 111 l 804 111 l 725 -260 l 607 -260 l 661 0 l 54 0 l -1 -260 l -117 -260 l -39 111 m 549 879 q 457 639 522 787 q 314 345 393 490 q 172 111 235 199 l 551 111 l 715 879 l 549 879 z "},"Е":{"ha":714,"x_min":57,"x_max":770,"o":"m 559 0 l 57 0 l 267 991 l 770 991 l 746 882 l 367 882 l 301 572 l 656 572 l 635 464 l 279 464 l 203 110 l 583 110 l 559 0 z "},"Ж":{"ha":1089,"x_min":-69,"x_max":1214,"o":"m 390 522 l 149 991 l 282 991 l 521 519 l 621 991 l 741 991 l 640 519 l 1067 991 l 1214 991 l 762 494 l 1013 0 l 875 0 l 635 494 l 530 0 l 411 0 l 515 494 l 81 0 l -69 0 l 390 522 z "},"З":{"ha":747,"x_min":-1,"x_max":729,"o":"m 729 785 q 662 609 729 681 q 473 513 594 537 l 473 510 q 615 439 563 496 q 667 292 667 382 q 618 132 667 201 q 480 24 570 62 q 267 -14 390 -14 q -1 40 107 -14 l -1 158 q 131 107 58 125 q 273 89 203 89 q 466 145 395 89 q 536 297 536 201 q 318 461 536 461 l 176 461 l 197 562 l 329 562 q 529 617 456 562 q 602 768 602 672 q 560 870 602 837 q 449 903 519 903 q 208 822 335 903 l 158 911 q 307 983 231 960 q 473 1006 383 1006 q 661 946 592 1006 q 729 785 729 886 z "},"И":{"ha":975,"x_min":57,"x_max":982,"o":"m 210 179 l 838 991 l 982 991 l 772 0 l 656 0 q 812 733 794 655 q 835 827 829 810 l 832 827 l 201 0 l 57 0 l 267 991 l 385 991 l 268 446 q 207 179 226 253 l 210 179 z "},"Й":{"ha":975,"x_min":57,"x_max":982,"o":"m 210 179 l 838 991 l 982 991 l 772 0 l 656 0 q 812 733 794 655 q 835 827 829 810 l 832 827 l 201 0 l 57 0 l 267 991 l 385 991 l 268 446 q 207 179 226 253 l 210 179 m 905 1284 q 617 1071 863 1071 q 453 1113 509 1071 q 397 1239 397 1156 q 403 1284 397 1265 l 510 1284 q 506 1246 506 1261 q 624 1158 506 1158 q 738 1189 700 1158 q 788 1284 776 1220 l 905 1284 z "},"К":{"ha":781,"x_min":57,"x_max":905,"o":"m 725 0 l 583 0 l 283 492 l 180 0 l 57 0 l 267 991 l 390 991 l 288 510 l 755 991 l 905 991 l 415 496 l 725 0 z "},"Л":{"ha":901,"x_min":-45,"x_max":908,"o":"m 507 880 q 356 345 406 501 q 266 119 306 189 q 172 17 226 50 q 41 -16 119 -16 q -45 0 -10 -16 l -45 109 q 25 94 -9 94 q 115 124 80 94 q 182 222 151 153 q 265 456 214 290 q 415 991 316 623 l 908 991 l 697 0 l 572 0 l 760 880 l 507 880 z "},"М":{"ha":1168,"x_min":56,"x_max":1173,"o":"m 542 182 l 982 991 l 1173 991 l 966 0 l 842 0 l 966 589 q 1034 871 1008 781 l 1031 871 l 553 0 l 454 0 l 349 869 l 343 869 q 298 596 333 764 l 172 0 l 56 0 l 265 991 l 440 991 l 536 182 l 542 182 z "},"Н":{"ha":945,"x_min":58,"x_max":950,"o":"m 741 0 l 618 0 l 715 463 l 279 463 l 182 0 l 58 0 l 268 991 l 392 991 l 302 572 l 739 572 l 828 991 l 950 991 l 741 0 z "},"О":{"ha":1002,"x_min":100,"x_max":958,"o":"m 958 616 q 897 285 958 430 q 724 63 835 140 q 468 -14 614 -14 q 197 87 294 -14 q 100 371 100 189 q 164 697 100 549 q 343 926 229 845 q 602 1007 457 1007 q 864 903 769 1007 q 958 616 958 799 m 593 897 q 406 830 488 897 q 277 642 323 763 q 232 374 232 521 q 296 169 232 241 q 472 96 361 96 q 653 161 572 96 q 780 349 734 227 q 827 619 827 471 q 765 823 827 749 q 593 897 703 897 z "},"П":{"ha":945,"x_min":57,"x_max":951,"o":"m 742 0 l 616 0 l 803 882 l 367 882 l 180 0 l 57 0 l 267 991 l 951 991 l 742 0 z "},"Р":{"ha":787,"x_min":57,"x_max":787,"o":"m 787 733 q 676 476 787 566 q 351 387 565 387 l 262 387 l 180 0 l 57 0 l 267 991 l 490 991 q 712 927 637 991 q 787 733 787 862 m 285 492 l 371 492 q 587 553 513 492 q 661 729 661 614 q 615 848 661 812 q 473 885 569 885 l 368 885 l 285 492 z "},"С":{"ha":815,"x_min":100,"x_max":878,"o":"m 636 896 q 427 829 517 896 q 284 637 336 762 q 232 368 232 513 q 296 169 232 241 q 475 96 361 96 q 694 136 572 96 l 694 28 q 453 -14 584 -14 q 193 88 287 -14 q 100 366 100 189 q 170 692 100 540 q 362 925 241 844 q 636 1006 484 1006 q 878 950 776 1006 l 828 847 q 636 896 734 896 z "},"Т":{"ha":696,"x_min":125,"x_max":818,"o":"m 336 0 l 211 0 l 397 882 l 125 882 l 149 991 l 818 991 l 796 882 l 524 882 l 336 0 z "},"У":{"ha":798,"x_min":0,"x_max":925,"o":"m 115 -14 q 55 -8 88 -14 q 0 5 21 -3 l 0 126 q 113 100 54 100 q 234 139 181 100 q 351 285 286 179 l 143 991 l 268 991 l 387 557 q 432 370 422 428 q 514 529 478 468 l 785 991 l 925 991 l 468 248 q 300 44 379 102 q 115 -14 221 -14 z "},"Ф":{"ha":1043,"x_min":100,"x_max":1000,"o":"m 375 -14 l 408 139 q 180 229 260 149 q 100 452 100 310 q 153 677 100 582 q 312 825 207 772 q 567 884 418 879 l 591 1006 l 718 1006 l 693 884 q 920 795 839 876 q 1000 578 1000 715 q 942 350 1000 450 q 779 196 884 250 q 534 139 674 143 l 501 -14 l 375 -14 m 557 244 q 790 339 707 253 q 873 571 873 426 q 821 719 873 665 q 669 777 769 772 l 557 244 m 543 777 q 310 690 393 775 q 227 458 227 605 q 279 303 227 359 q 429 244 332 248 l 543 777 z "},"Х":{"ha":732,"x_min":-72,"x_max":846,"o":"m 659 0 l 528 0 l 386 429 l 64 0 l -72 0 l 332 525 l 155 991 l 281 991 l 415 612 l 710 991 l 846 991 l 471 519 l 659 0 z "},"Ц":{"ha":932,"x_min":56,"x_max":932,"o":"m 861 111 l 781 -260 l 663 -260 l 718 0 l 56 0 l 265 991 l 390 991 l 204 111 l 621 111 l 807 991 l 932 991 l 746 111 l 861 111 z "},"Ч":{"ha":892,"x_min":165,"x_max":899,"o":"m 564 0 l 650 404 q 382 345 511 345 q 221 393 277 345 q 165 534 165 442 q 180 646 165 583 l 254 991 l 378 991 l 306 648 q 292 559 292 589 q 319 481 292 507 q 414 454 347 454 q 673 509 525 454 l 774 991 l 899 991 l 689 0 l 564 0 z "},"Ш":{"ha":1332,"x_min":56,"x_max":1339,"o":"m 56 0 l 265 991 l 390 991 l 203 111 l 554 111 l 741 991 l 865 991 l 679 111 l 1029 111 l 1215 991 l 1339 991 l 1129 0 l 56 0 z "},"Щ":{"ha":1340,"x_min":56,"x_max":1339,"o":"m 1268 111 l 1189 -260 l 1071 -260 l 1125 0 l 56 0 l 265 991 l 390 991 l 203 111 l 554 111 l 741 991 l 865 991 l 679 111 l 1029 111 l 1215 991 l 1339 991 l 1153 111 l 1268 111 z "},"Ъ":{"ha":876,"x_min":125,"x_max":796,"o":"m 404 572 l 494 572 q 796 326 796 572 q 694 85 796 170 q 404 0 592 0 l 160 0 l 346 882 l 125 882 l 149 991 l 493 991 l 404 572 m 306 106 l 422 106 q 668 317 668 106 q 626 429 668 393 q 494 465 584 465 l 382 465 l 306 106 z "},"Ы":{"ha":1100,"x_min":57,"x_max":1107,"o":"m 897 0 l 774 0 l 983 991 l 1107 991 l 897 0 m 692 326 q 590 85 692 170 q 300 0 488 0 l 57 0 l 267 991 l 390 991 l 301 572 l 390 572 q 692 326 692 572 m 203 106 l 318 106 q 564 317 564 106 q 522 429 564 392 q 390 465 479 465 l 279 465 l 203 106 z "},"Ь":{"ha":774,"x_min":57,"x_max":693,"o":"m 693 326 q 591 85 693 170 q 301 0 489 0 l 57 0 l 267 991 l 390 991 l 301 572 l 392 572 q 693 326 693 572 m 203 106 l 319 106 q 566 317 566 106 q 524 429 566 392 q 392 465 481 465 l 279 465 l 203 106 z "},"Э":{"ha":815,"x_min":12,"x_max":772,"o":"m 256 96 q 501 190 406 96 q 627 464 595 285 l 208 464 l 231 574 l 640 574 l 642 633 q 581 826 642 756 q 410 896 521 896 q 292 883 344 896 q 192 852 240 869 l 160 956 q 422 1006 294 1006 q 681 908 589 1006 q 772 633 772 810 q 708 283 772 431 q 526 60 644 134 q 249 -14 409 -14 q 12 40 117 -14 l 12 160 q 145 109 92 122 q 256 96 199 96 z "},"Ю":{"ha":1362,"x_min":57,"x_max":1320,"o":"m 1320 616 q 1261 287 1320 433 q 1095 64 1202 141 q 846 -14 988 -14 q 584 88 675 -14 q 492 371 492 190 q 496 463 492 416 l 278 463 l 180 0 l 57 0 l 267 991 l 390 991 l 301 572 l 514 572 q 684 889 559 772 q 983 1007 808 1007 q 1231 903 1141 1007 q 1320 616 1320 800 m 966 897 q 789 830 867 897 q 667 643 711 763 q 624 374 624 522 q 683 168 624 241 q 851 96 741 96 q 1024 159 949 96 q 1144 346 1100 223 q 1189 619 1189 468 q 1131 825 1189 752 q 966 897 1072 897 z "},"Я":{"ha":796,"x_min":-54,"x_max":803,"o":"m 407 411 l 96 0 l -54 0 l 294 453 q 164 675 164 523 q 261 908 164 825 q 538 991 359 991 l 803 991 l 595 0 l 469 0 l 557 411 l 407 411 m 659 885 l 538 885 q 353 834 415 885 q 292 685 292 783 q 341 560 292 604 q 481 517 390 517 l 579 517 l 659 885 z "},"а":{"ha":789,"x_min":66,"x_max":764,"o":"m 268 -14 q 121 53 175 -14 q 66 240 66 119 q 114 499 66 379 q 246 689 162 620 q 432 758 330 758 q 543 725 495 758 q 619 629 591 692 l 627 629 l 671 745 l 764 745 l 606 0 l 509 0 l 526 138 l 521 138 q 268 -14 404 -14 m 309 87 q 436 149 372 87 q 539 308 500 210 q 578 507 578 406 q 541 615 578 574 q 444 656 505 656 q 317 598 376 656 q 225 444 258 541 q 192 237 192 347 q 222 125 192 162 q 309 87 253 87 z "},"б":{"ha":757,"x_min":68,"x_max":804,"o":"m 68 300 q 84 473 68 380 q 130 649 100 566 q 197 795 159 732 q 282 904 235 858 q 381 974 330 950 q 576 1025 433 997 q 790 1063 719 1053 l 804 962 q 476 895 568 924 q 227 568 298 838 l 231 567 q 348 660 282 628 q 478 692 413 692 q 635 626 583 692 q 688 441 688 559 q 643 200 688 307 q 518 40 597 93 q 334 -14 439 -14 q 137 66 206 -14 q 68 300 68 146 m 345 87 q 455 129 406 87 q 533 254 503 170 q 562 429 562 338 q 533 552 562 513 q 446 590 505 590 q 321 549 386 590 q 207 441 256 509 q 192 296 192 351 q 345 87 192 87 z "},"в":{"ha":751,"x_min":66,"x_max":711,"o":"m 461 757 q 646 709 580 757 q 711 568 711 662 q 663 445 711 493 q 524 376 615 396 l 524 374 q 630 315 597 354 q 663 215 663 276 q 627 97 663 149 q 523 16 591 45 q 359 -14 455 -14 q 141 64 216 -14 q 66 293 66 142 q 115 534 66 427 q 254 699 164 641 q 461 757 343 757 m 191 322 l 191 289 q 235 138 191 190 q 368 86 279 86 q 498 122 452 86 q 545 216 545 157 q 502 296 545 270 q 366 322 458 322 l 191 322 m 463 656 q 297 595 364 656 q 204 421 230 534 l 355 421 q 529 456 469 421 q 589 555 589 491 q 556 630 589 604 q 463 656 523 656 z "},"г":{"ha":637,"x_min":35,"x_max":597,"o":"m 135 704 q 275 745 216 734 q 385 757 333 757 q 544 713 490 757 q 597 585 597 669 q 545 455 597 511 q 364 351 492 398 q 223 289 256 309 q 174 243 190 269 q 158 184 158 218 q 191 114 158 140 q 293 87 223 87 q 505 144 385 87 l 505 37 q 275 -14 397 -14 q 99 36 163 -14 q 35 175 35 85 q 61 278 35 234 q 137 355 88 321 q 283 424 186 389 q 408 480 375 460 q 457 524 441 500 q 473 578 473 548 q 372 656 473 656 q 168 607 281 656 l 135 704 z "},"д":{"ha":786,"x_min":66,"x_max":736,"o":"m 736 642 q 680 309 736 467 q 528 69 623 151 q 313 -14 433 -14 q 131 58 196 -14 q 66 257 66 130 q 114 489 66 380 q 238 655 161 597 q 412 713 316 713 q 607 595 549 713 l 611 595 l 612 616 l 612 633 q 567 886 612 804 q 427 968 521 968 q 281 937 351 968 l 250 1028 q 339 1057 284 1045 q 441 1069 393 1069 q 663 963 590 1069 q 736 642 736 857 m 325 89 q 487 190 416 89 q 590 461 558 291 q 524 578 566 538 q 424 618 481 618 q 308 569 363 618 q 222 437 254 520 q 191 258 191 354 q 225 133 191 178 q 325 89 260 89 z "},"е":{"ha":693,"x_min":66,"x_max":652,"o":"m 432 657 q 300 592 362 657 q 211 421 239 526 l 221 421 q 450 460 369 421 q 532 575 532 500 q 507 634 532 611 q 432 657 483 657 m 336 -14 q 138 61 210 -14 q 66 267 66 135 q 116 510 66 394 q 251 692 166 626 q 439 758 336 758 q 598 712 545 758 q 652 585 652 667 q 538 392 652 461 q 216 322 424 322 l 193 322 l 191 271 q 232 136 191 185 q 358 87 273 87 q 458 102 410 87 q 561 144 506 117 l 561 40 q 444 -2 494 9 q 336 -14 393 -14 z "},"ж":{"ha":1174,"x_min":-22,"x_max":1213,"o":"m 528 329 l 418 329 q 288 79 382 171 q 61 -14 193 -14 q -22 -3 13 -14 l -4 97 q 62 87 28 87 q 185 136 130 87 q 276 275 241 184 q 311 469 311 367 q 277 608 311 559 q 178 656 243 656 q 100 646 142 656 l 100 746 q 196 758 159 758 q 374 684 313 758 q 435 472 435 610 q 432 422 435 446 l 546 422 l 614 745 l 726 745 l 657 422 l 766 422 q 841 602 789 524 q 963 719 893 680 q 1117 758 1034 758 q 1213 746 1171 758 l 1190 647 q 1118 656 1161 656 q 997 608 1051 656 q 908 469 942 560 q 875 275 875 378 q 909 134 875 180 q 1006 87 943 87 q 1083 98 1044 87 l 1083 -3 q 989 -14 1027 -14 q 812 59 874 -14 q 750 272 750 132 q 753 329 750 310 l 637 329 l 568 0 l 457 0 l 528 329 z "},"з":{"ha":616,"x_min":-1,"x_max":579,"o":"m 262 437 q 457 566 457 437 q 429 631 457 607 q 342 656 400 656 q 249 644 293 656 q 150 608 204 632 l 114 701 q 233 744 176 730 q 358 758 290 758 q 520 712 462 758 q 579 583 579 667 q 534 458 579 508 q 404 390 489 409 l 404 387 q 530 229 530 354 q 446 52 530 117 q 212 -14 361 -14 q 98 -1 155 -14 q -1 33 40 11 l -1 146 q 108 101 49 117 q 222 86 167 86 q 362 124 311 86 q 414 225 414 163 q 380 309 414 283 q 273 335 346 335 l 171 335 l 195 437 l 262 437 z "},"и":{"ha":804,"x_min":77,"x_max":764,"o":"m 189 745 l 313 745 l 212 277 q 200 183 200 216 q 297 87 200 87 q 411 127 356 87 q 510 244 467 168 q 575 424 553 320 l 643 745 l 764 745 l 606 0 l 505 0 l 521 138 l 514 138 q 391 22 453 58 q 262 -14 330 -14 q 126 35 176 -14 q 77 171 77 83 q 92 290 77 214 l 189 745 z "},"й":{"ha":804,"x_min":77,"x_max":777,"o":"m 189 745 l 313 745 l 212 277 q 200 183 200 216 q 297 87 200 87 q 411 127 356 87 q 510 244 467 168 q 575 424 553 320 l 643 745 l 764 745 l 606 0 l 505 0 l 521 138 l 514 138 q 391 22 453 58 q 262 -14 330 -14 q 126 35 176 -14 q 77 171 77 83 q 92 290 77 214 l 189 745 m 777 1055 q 489 842 735 842 q 325 884 381 842 q 269 1010 269 926 q 275 1055 269 1036 l 382 1055 q 378 1017 378 1032 q 496 929 378 929 q 610 960 572 929 q 660 1055 648 991 l 777 1055 z "},"к":{"ha":675,"x_min":39,"x_max":741,"o":"m 587 745 l 741 745 l 372 376 l 621 0 l 475 0 l 239 371 l 161 0 l 39 0 l 196 745 l 317 745 l 240 386 l 587 745 z "},"л":{"ha":755,"x_min":-61,"x_max":711,"o":"m 555 0 l 432 0 l 572 643 q 519 648 547 648 q 436 628 468 648 q 377 560 404 608 q 293 346 351 511 q 194 110 231 171 q 110 20 157 50 q -4 -9 63 -9 q -61 0 -38 -9 l -61 106 q -16 97 -43 97 q 54 121 24 97 q 112 197 84 144 q 186 387 139 250 q 247 549 218 480 q 313 662 275 617 q 405 729 351 707 q 539 751 458 751 q 711 728 631 751 l 555 0 z "},"м":{"ha":971,"x_min":39,"x_max":930,"o":"m 789 593 q 708 449 777 566 l 450 0 l 359 0 l 288 449 q 272 591 274 543 l 146 0 l 39 0 l 197 745 l 336 745 l 411 268 q 428 122 426 160 q 511 279 451 174 l 781 745 l 930 745 l 771 0 l 663 0 l 789 593 z "},"н":{"ha":835,"x_min":39,"x_max":793,"o":"m 318 745 l 254 435 l 604 435 l 671 745 l 793 745 l 636 0 l 513 0 l 582 334 l 232 334 l 161 0 l 39 0 l 197 745 l 318 745 z "},"о":{"ha":782,"x_min":66,"x_max":717,"o":"m 591 481 q 551 606 591 559 q 440 653 510 653 q 311 603 368 653 q 222 464 253 553 q 191 271 191 376 q 232 137 191 184 q 351 90 274 90 q 474 139 419 90 q 561 276 530 187 q 591 481 591 365 m 717 467 q 668 225 717 338 q 535 51 619 112 q 345 -11 451 -11 q 140 66 214 -11 q 66 275 66 144 q 117 519 66 406 q 251 694 167 633 q 439 754 334 754 q 643 677 568 754 q 717 467 717 600 z "},"п":{"ha":804,"x_min":39,"x_max":726,"o":"m 614 0 l 492 0 l 590 467 q 604 562 604 534 q 581 630 604 605 q 505 656 557 656 q 392 616 447 656 q 294 500 336 576 q 229 321 251 425 l 161 0 l 39 0 l 197 745 l 297 745 l 282 607 l 289 607 q 371 694 334 665 q 449 741 407 724 q 539 758 492 758 q 676 710 627 758 q 726 575 726 663 q 711 453 726 522 l 614 0 z "},"р":{"ha":804,"x_min":-31,"x_max":736,"o":"m 534 757 q 683 689 631 757 q 736 503 736 621 q 688 238 736 358 q 558 53 640 119 q 374 -14 477 -14 q 183 114 243 -14 l 176 114 q 158 -12 165 21 l 90 -334 l -31 -334 l 197 745 l 297 745 l 281 606 l 286 606 q 411 721 351 686 q 534 757 472 757 m 493 656 q 365 594 430 656 q 261 435 300 532 q 222 237 222 337 q 259 127 222 167 q 364 87 295 87 q 488 143 431 87 q 578 297 545 199 q 611 505 611 396 q 493 656 611 656 z "},"с":{"ha":629,"x_min":66,"x_max":640,"o":"m 343 -14 q 139 59 212 -14 q 66 264 66 132 q 116 515 66 401 q 254 694 166 629 q 456 758 342 758 q 640 722 555 758 l 606 621 q 457 656 528 656 q 321 604 382 656 q 226 463 260 552 q 192 265 192 373 q 235 134 192 180 q 355 87 278 87 q 448 101 405 87 q 534 134 492 115 l 534 31 q 343 -14 448 -14 z "},"т":{"ha":1215,"x_min":39,"x_max":1137,"o":"m 528 758 q 646 714 604 758 q 696 593 688 671 l 701 593 q 957 758 815 758 q 1090 711 1044 758 q 1137 575 1137 664 q 1122 453 1137 515 l 1026 0 l 903 0 l 1003 467 q 1015 564 1015 530 q 992 631 1015 606 q 921 656 970 656 q 817 617 868 656 q 725 506 765 578 q 664 336 684 433 l 593 0 l 471 0 l 570 467 q 582 558 582 530 q 492 656 582 656 q 384 616 436 656 q 291 500 332 576 q 229 321 251 425 l 161 0 l 39 0 l 197 745 l 297 745 l 282 607 l 289 607 q 369 696 335 668 q 442 741 402 724 q 528 758 481 758 z "},"у":{"ha":648,"x_min":-131,"x_max":715,"o":"m 66 745 l 189 745 l 237 376 q 250 244 245 326 q 256 100 256 163 l 260 100 q 313 221 277 144 q 368 336 348 298 l 585 745 l 715 745 l 243 -125 q 118 -287 182 -240 q -35 -334 54 -334 q -131 -319 -88 -334 l -131 -221 q -41 -233 -88 -233 q 54 -198 14 -233 q 131 -97 94 -163 l 179 -11 l 66 745 z "},"ф":{"ha":933,"x_min":66,"x_max":869,"o":"m 604 755 q 801 658 732 739 q 869 444 869 578 q 815 213 869 318 q 664 50 762 109 q 441 -11 566 -9 l 374 -334 l 261 -334 l 329 -12 q 134 85 201 4 q 66 304 66 167 q 119 531 66 429 q 268 692 171 633 q 492 755 365 751 l 555 1055 l 668 1055 l 604 755 m 192 307 q 234 154 192 212 q 351 90 277 96 l 471 654 q 322 604 385 650 q 225 480 259 558 q 192 307 192 403 m 464 90 q 613 141 550 94 q 711 266 677 187 q 745 439 745 344 q 703 588 745 532 q 585 652 662 644 l 464 90 z "},"х":{"ha":671,"x_min":-52,"x_max":708,"o":"m 271 383 l 110 745 l 233 745 l 349 469 l 567 745 l 708 745 l 399 378 l 570 0 l 446 0 l 319 289 l 90 0 l -52 0 l 271 383 z "},"ц":{"ha":829,"x_min":77,"x_max":764,"o":"m 313 745 l 212 277 q 200 183 200 216 q 297 87 200 87 q 411 127 356 87 q 510 244 467 168 q 575 424 553 320 l 643 745 l 764 745 l 653 220 q 642 138 642 172 q 654 99 642 114 q 694 85 667 85 q 747 94 713 85 l 669 -258 l 546 -258 l 602 -9 q 540 36 559 2 q 521 135 521 69 l 515 135 q 264 -14 410 -14 q 126 35 176 -14 q 77 171 77 83 q 92 290 77 214 l 189 745 l 313 745 z "},"ч":{"ha":777,"x_min":107,"x_max":736,"o":"m 283 745 q 242 549 257 618 q 231 458 228 480 q 254 384 231 409 q 332 359 278 359 q 497 439 429 359 q 597 667 566 519 l 614 745 l 736 745 l 578 0 l 453 0 q 501 228 484 147 q 543 385 517 309 l 538 385 q 430 290 492 323 q 297 257 369 257 q 155 306 203 257 q 107 447 107 354 q 123 574 107 484 l 160 745 l 283 745 z "},"ш":{"ha":1215,"x_min":77,"x_max":1175,"o":"m 745 745 l 644 278 q 632 186 632 214 q 722 89 632 89 q 831 129 779 89 q 923 244 883 170 q 985 424 963 319 l 1053 745 l 1175 745 l 1017 0 l 917 0 l 932 138 l 925 138 q 806 21 864 55 q 686 -14 749 -14 q 568 30 610 -14 q 518 151 526 74 l 513 151 q 257 -14 399 -14 q 123 34 170 -14 q 77 170 77 81 q 92 292 77 216 l 187 745 l 311 745 l 212 278 q 199 180 199 208 q 221 114 199 138 q 293 89 244 89 q 397 127 346 89 q 489 238 449 166 q 550 408 530 311 l 623 745 l 745 745 z "},"щ":{"ha":1240,"x_min":77,"x_max":1175,"o":"m 745 745 l 644 277 q 632 186 632 216 q 653 114 632 139 q 722 89 673 89 q 831 129 779 89 q 923 244 883 170 q 985 424 963 319 l 1053 745 l 1175 745 l 1064 220 q 1054 138 1054 162 q 1068 98 1054 112 q 1105 85 1082 85 q 1137 89 1123 85 q 1160 94 1150 92 l 1080 -258 l 958 -258 l 1013 -9 q 950 36 970 2 q 929 135 930 69 l 925 135 q 686 -14 822 -14 q 568 30 610 -14 q 518 151 526 74 l 513 151 q 257 -14 399 -14 q 123 34 170 -14 q 77 170 77 81 q 92 292 77 212 l 187 745 l 311 745 l 212 277 q 199 180 199 209 q 221 114 199 138 q 293 89 244 89 q 398 129 346 89 q 491 240 451 168 q 550 408 530 312 l 623 745 l 745 745 z "},"ъ":{"ha":832,"x_min":57,"x_max":746,"o":"m 437 745 l 368 421 q 517 437 457 437 q 689 386 633 437 q 746 240 746 335 q 711 107 746 165 q 610 18 677 50 q 453 -14 544 -14 q 273 41 336 -14 q 211 200 211 96 q 227 330 211 252 l 293 640 l 57 640 l 79 745 l 437 745 m 332 211 q 463 86 332 86 q 582 125 539 86 q 625 231 625 165 q 590 314 625 290 q 484 338 555 338 q 347 323 427 338 q 332 211 332 245 z "},"ы":{"ha":1011,"x_min":86,"x_max":971,"o":"m 313 745 l 243 421 q 392 437 333 437 q 562 387 505 437 q 618 241 618 336 q 540 55 618 124 q 328 -14 463 -14 q 148 41 210 -14 q 86 200 86 96 q 102 330 86 260 l 189 745 l 313 745 m 357 338 q 222 323 298 338 q 207 211 207 252 q 335 86 207 86 q 453 124 409 86 q 497 231 497 163 q 461 314 497 291 q 357 338 426 338 m 812 0 l 692 0 l 848 745 l 971 745 l 812 0 z "},"ь":{"ha":726,"x_min":86,"x_max":640,"o":"m 241 421 q 406 437 339 437 q 580 388 519 437 q 640 240 640 338 q 604 109 640 167 q 497 19 567 51 q 335 -14 428 -14 q 152 39 217 -14 q 86 201 86 91 q 102 330 86 260 l 189 745 l 313 745 l 241 421 m 376 338 q 222 323 300 338 q 207 211 207 253 q 241 117 207 147 q 346 86 276 86 q 473 124 427 86 q 519 231 519 163 q 484 312 519 286 q 376 338 448 338 z "},"э":{"ha":636,"x_min":14,"x_max":570,"o":"m 293 757 q 499 680 428 757 q 570 457 570 602 q 522 204 570 314 q 389 41 474 95 q 187 -14 304 -14 q 91 -4 140 -14 q 14 20 42 5 l 14 129 q 187 89 109 89 q 349 152 286 89 q 433 330 412 216 l 114 330 l 135 433 l 446 433 l 446 454 q 404 608 446 559 q 281 656 361 656 q 118 616 203 656 l 82 710 q 175 743 124 728 q 293 757 226 757 z "},"ю":{"ha":1092,"x_min":39,"x_max":1023,"o":"m 1023 467 q 977 221 1023 332 q 849 50 930 110 q 667 -11 769 -11 q 472 66 543 -11 q 401 275 401 143 l 403 334 l 232 334 l 161 0 l 39 0 l 197 745 l 318 745 l 254 435 l 419 435 q 551 672 463 591 q 758 754 640 754 q 953 678 882 754 q 1023 467 1023 602 m 757 653 q 636 603 688 653 q 554 463 583 553 q 525 271 525 372 q 564 138 525 185 q 675 90 602 90 q 790 140 738 90 q 870 279 842 189 q 899 481 899 369 q 861 606 899 559 q 757 653 823 653 z "},"я":{"ha":739,"x_min":-28,"x_max":696,"o":"m 390 293 q 327 282 353 293 q 280 247 300 271 q 232 165 260 223 q 166 53 193 84 q 107 7 140 22 q 29 -8 75 -8 q -28 0 -5 -8 l -28 97 q 7 93 -13 93 q 66 117 42 93 q 121 205 90 140 q 248 338 170 309 q 151 401 183 357 q 118 509 118 446 q 197 682 118 618 q 412 745 275 745 l 696 745 l 539 0 l 418 0 l 481 293 l 390 293 m 393 640 q 279 605 319 640 q 239 509 239 570 q 380 397 239 397 l 503 397 l 554 640 l 393 640 z "},"ё":{"ha":693,"x_min":66,"x_max":655,"o":"m 432 657 q 300 592 362 657 q 211 421 239 526 l 221 421 q 450 460 369 421 q 532 575 532 500 q 507 634 532 611 q 432 657 483 657 m 336 -14 q 138 61 210 -14 q 66 267 66 135 q 116 510 66 394 q 251 692 166 626 q 439 758 336 758 q 598 712 545 758 q 652 585 652 667 q 538 392 652 461 q 216 322 424 322 l 193 322 l 191 271 q 232 136 191 185 q 358 87 273 87 q 458 102 410 87 q 561 144 506 117 l 561 40 q 444 -2 494 9 q 336 -14 393 -14 m 276 935 q 296 991 276 969 q 349 1014 315 1014 q 405 958 405 1014 q 386 901 405 925 q 336 876 366 876 q 293 891 309 876 q 276 935 276 906 m 526 935 q 546 992 526 970 q 600 1014 566 1014 q 642 999 628 1014 q 655 958 655 983 q 634 900 655 923 q 584 876 614 876 q 542 891 559 876 q 526 935 526 906 z "},"ђ":{"ha":804,"x_min":39,"x_max":721,"o":"m 357 930 l 591 930 l 571 839 l 340 839 q 306 688 319 743 q 277 581 294 633 l 283 581 q 533 730 383 730 q 671 682 621 730 q 721 539 721 633 q 705 425 721 497 l 591 -107 q 511 -280 566 -227 q 364 -334 456 -334 q 278 -319 316 -334 l 278 -215 q 358 -231 313 -231 q 471 -93 442 -231 l 585 439 q 599 530 599 513 q 500 628 599 628 q 386 588 441 628 q 288 472 331 548 q 224 293 245 397 l 161 0 l 39 0 l 216 839 l 114 839 l 135 930 l 236 930 l 262 1055 l 385 1055 l 357 930 m 696 743 z "},"ѓ":{"ha":637,"x_min":35,"x_max":660,"o":"m 135 704 q 275 745 216 734 q 385 757 333 757 q 544 713 490 757 q 597 585 597 669 q 545 455 597 511 q 364 351 492 398 q 223 289 256 309 q 174 243 190 269 q 158 184 158 218 q 191 114 158 140 q 293 87 223 87 q 505 144 385 87 l 505 37 q 275 -14 397 -14 q 99 36 163 -14 q 35 175 35 85 q 61 278 35 234 q 137 355 88 321 q 283 424 186 389 q 408 480 375 460 q 457 524 441 500 q 473 578 473 548 q 372 656 473 656 q 168 607 281 656 l 135 704 m 365 860 q 445 957 399 897 q 521 1064 490 1017 l 660 1064 l 660 1050 q 559 944 628 1011 q 441 842 491 878 l 365 842 l 365 860 z "},"є":{"ha":629,"x_min":66,"x_max":640,"o":"m 343 -14 q 139 59 212 -14 q 66 264 66 132 q 118 518 66 400 q 257 697 169 635 q 456 758 345 758 q 640 722 555 758 l 606 621 q 457 656 528 656 q 310 598 374 656 q 215 433 247 540 l 528 433 l 504 330 l 193 330 q 191 265 191 309 q 235 134 191 181 q 355 87 279 87 q 433 96 394 87 q 534 134 472 105 l 534 31 q 343 -14 448 -14 z "},"ѕ":{"ha":600,"x_min":7,"x_max":572,"o":"m 504 215 q 428 47 504 107 q 215 -14 353 -14 q 7 33 93 -14 l 7 146 q 105 102 51 119 q 211 86 159 86 q 336 118 294 86 q 379 203 379 151 q 356 267 379 240 q 254 338 332 294 q 131 435 167 387 q 94 547 94 484 q 163 700 94 642 q 347 758 233 758 q 572 707 463 758 l 533 610 q 452 641 497 627 q 347 656 408 656 q 252 628 288 656 q 216 554 216 600 q 241 491 216 517 q 339 424 266 465 q 445 350 416 378 q 489 290 473 322 q 504 215 504 257 z "},"і":{"ha":358,"x_min":39,"x_max":375,"o":"m 161 0 l 39 0 l 197 745 l 319 745 l 161 0 m 229 933 q 252 997 229 972 q 311 1022 275 1022 q 375 960 375 1022 q 351 893 375 919 q 296 868 328 868 q 248 885 267 868 q 229 933 229 902 z "},"ї":{"ha":358,"x_min":39,"x_max":486,"o":"m 161 0 l 39 0 l 197 745 l 319 745 l 161 0 m 106 935 q 126 991 106 969 q 180 1014 146 1014 q 235 958 235 1014 q 216 901 235 925 q 166 876 197 876 q 123 891 140 876 q 106 935 106 906 m 356 935 q 376 992 356 970 q 430 1014 397 1014 q 472 999 458 1014 q 486 958 486 983 q 465 900 486 923 q 414 876 444 876 q 373 891 389 876 q 356 935 356 906 z "},"ј":{"ha":358,"x_min":-175,"x_max":374,"o":"m -89 -334 q -175 -319 -138 -334 l -175 -216 q -94 -232 -136 -232 q 20 -96 -9 -232 l 197 745 l 318 745 l 138 -107 q 57 -280 113 -227 q -89 -334 2 -334 m 229 933 q 252 997 229 972 q 311 1022 275 1022 q 374 960 374 1022 q 350 893 374 919 q 294 868 326 868 q 248 885 266 868 q 229 933 229 902 z "},"љ":{"ha":1071,"x_min":-61,"x_max":985,"o":"m 606 421 q 755 437 698 437 q 928 386 871 437 q 985 240 985 335 q 950 107 985 165 q 849 18 916 50 q 692 -14 783 -14 q 512 41 574 -14 q 450 200 450 96 q 465 330 450 256 l 530 643 q 489 648 511 648 q 424 628 450 648 q 373 557 398 607 q 292 346 348 508 q 201 123 241 192 q 114 22 162 54 q -3 -9 65 -9 q -61 0 -38 -9 l -61 106 q -16 97 -45 97 q 54 121 24 97 q 112 197 84 144 q 186 387 139 250 q 242 542 216 474 q 303 656 268 610 q 387 727 338 703 q 513 751 437 751 q 671 726 593 751 l 606 421 m 722 338 q 586 323 662 338 q 571 211 571 249 q 701 86 571 86 q 821 125 778 86 q 864 231 864 165 q 829 314 864 290 q 722 338 793 338 z "},"њ":{"ha":1135,"x_min":39,"x_max":1048,"o":"m 671 421 q 819 437 758 437 q 991 386 934 437 q 1048 240 1048 334 q 969 55 1048 123 q 755 -14 889 -14 q 575 41 637 -14 q 513 200 513 96 q 529 334 513 262 l 232 334 l 163 0 l 39 0 l 199 745 l 319 745 l 254 435 l 551 435 l 618 745 l 741 745 l 671 421 m 786 338 q 648 323 728 338 q 633 210 633 246 q 764 86 633 86 q 883 125 840 86 q 926 231 926 163 q 891 314 926 290 q 786 338 856 338 z "},"ћ":{"ha":804,"x_min":39,"x_max":724,"o":"m 614 0 l 492 0 l 589 454 q 602 545 602 513 q 503 646 602 646 q 390 606 446 646 q 291 489 334 566 q 225 310 247 413 l 161 0 l 39 0 l 218 839 l 114 839 l 135 930 l 236 930 l 262 1055 l 385 1055 l 357 930 l 591 930 l 571 839 l 339 839 l 279 595 l 286 595 q 536 747 399 747 q 674 699 625 747 q 724 554 724 650 q 708 440 724 515 l 614 0 z "},"ќ":{"ha":675,"x_min":39,"x_max":741,"o":"m 587 745 l 741 745 l 372 376 l 621 0 l 475 0 l 239 371 l 161 0 l 39 0 l 196 745 l 317 745 l 240 386 l 587 745 m 404 860 q 484 957 439 897 q 560 1064 530 1017 l 699 1064 l 699 1050 q 599 944 667 1011 q 481 842 530 878 l 404 842 l 404 860 z "},"ў":{"ha":648,"x_min":-131,"x_max":715,"o":"m 66 745 l 189 745 l 237 376 q 250 244 245 326 q 256 100 256 163 l 260 100 q 313 221 277 144 q 368 336 348 298 l 585 745 l 715 745 l 243 -125 q 118 -287 182 -240 q -35 -334 54 -334 q -131 -319 -88 -334 l -131 -221 q -41 -233 -88 -233 q 54 -198 14 -233 q 131 -97 94 -163 l 179 -11 l 66 745 m 694 1055 q 406 842 652 842 q 242 884 298 842 q 186 1010 186 926 q 192 1055 186 1036 l 299 1055 q 295 1017 295 1032 q 413 929 295 929 q 527 960 489 929 q 577 1055 565 991 l 694 1055 z "},"џ":{"ha":804,"x_min":77,"x_max":764,"o":"m 366 -47 l 393 -47 l 330 -334 l 208 -334 l 264 -81 l 366 -47 m 313 745 l 212 277 q 200 183 200 216 q 297 87 200 87 q 411 127 356 87 q 510 244 467 168 q 575 424 553 320 l 643 745 l 764 745 l 606 0 l 505 0 l 521 138 l 514 138 q 391 22 453 58 q 262 -14 330 -14 q 126 35 176 -14 q 77 171 77 83 q 92 290 77 214 l 189 745 l 313 745 z "},"Ґ":{"ha":664,"x_min":57,"x_max":808,"o":"m 647 991 l 690 1194 l 808 1194 l 741 880 l 367 880 l 180 0 l 57 0 l 267 991 l 647 991 z "},"ґ":{"ha":542,"x_min":39,"x_max":640,"o":"m 574 653 l 298 653 l 161 0 l 39 0 l 197 745 l 469 745 l 517 960 l 640 960 l 574 653 z "},"Ẁ":{"ha":1189,"x_min":149,"x_max":1310,"o":"m 693 832 q 656 735 680 791 q 318 0 632 679 l 191 0 l 149 991 l 271 991 l 290 387 l 292 329 q 285 153 292 258 l 289 153 q 393 408 357 333 l 665 991 l 791 991 l 819 411 q 826 210 826 302 l 825 153 l 829 153 q 918 392 892 329 l 1178 991 l 1310 991 l 860 0 l 733 0 l 703 639 q 697 832 697 731 l 693 832 m 790 1071 l 715 1071 q 625 1179 671 1116 q 562 1279 580 1242 l 562 1293 l 693 1293 q 790 1088 721 1202 l 790 1071 z "},"ẁ":{"ha":1004,"x_min":79,"x_max":1057,"o":"m 538 627 l 503 543 l 449 416 l 254 0 l 110 0 l 79 745 l 199 745 l 211 278 q 204 107 211 231 l 210 107 q 244 194 217 127 q 294 310 271 260 q 496 745 317 361 l 628 745 l 652 346 l 654 178 l 654 138 l 653 107 l 659 107 q 765 379 694 213 l 928 745 l 1057 745 l 713 0 l 566 0 l 545 403 l 543 500 l 543 627 l 538 627 m 637 842 l 563 842 q 473 949 518 886 q 410 1050 427 1013 l 410 1064 l 541 1064 q 637 859 568 972 l 637 842 z "},"Ẃ":{"ha":1189,"x_min":149,"x_max":1310,"o":"m 693 832 q 656 735 680 791 q 318 0 632 679 l 191 0 l 149 991 l 271 991 l 290 387 l 292 329 q 285 153 292 258 l 289 153 q 393 408 357 333 l 665 991 l 791 991 l 819 411 q 826 210 826 302 l 825 153 l 829 153 q 918 392 892 329 l 1178 991 l 1310 991 l 860 0 l 733 0 l 703 639 q 697 832 697 731 l 693 832 m 684 1089 q 764 1186 719 1126 q 840 1293 810 1246 l 979 1293 l 979 1279 q 879 1174 947 1240 q 761 1071 810 1107 l 684 1071 l 684 1089 z "},"ẃ":{"ha":1004,"x_min":79,"x_max":1057,"o":"m 538 627 l 503 543 l 449 416 l 254 0 l 110 0 l 79 745 l 199 745 l 211 278 q 204 107 211 231 l 210 107 q 244 194 217 127 q 294 310 271 260 q 496 745 317 361 l 628 745 l 652 346 l 654 178 l 654 138 l 653 107 l 659 107 q 765 379 694 213 l 928 745 l 1057 745 l 713 0 l 566 0 l 545 403 l 543 500 l 543 627 l 538 627 m 525 860 q 605 957 559 897 q 681 1064 650 1017 l 820 1064 l 820 1050 q 720 944 788 1011 q 602 842 651 878 l 525 842 l 525 860 z "},"Ẅ":{"ha":1189,"x_min":149,"x_max":1310,"o":"m 693 832 q 656 735 680 791 q 318 0 632 679 l 191 0 l 149 991 l 271 991 l 290 387 l 292 329 q 285 153 292 258 l 289 153 q 393 408 357 333 l 665 991 l 791 991 l 819 411 q 826 210 826 302 l 825 153 l 829 153 q 918 392 892 329 l 1178 991 l 1310 991 l 860 0 l 733 0 l 703 639 q 697 832 697 731 l 693 832 m 555 1164 q 574 1221 555 1198 q 628 1243 594 1243 q 684 1187 684 1243 q 664 1130 684 1154 q 614 1105 645 1105 q 571 1120 588 1105 q 555 1164 555 1135 m 804 1164 q 825 1221 804 1199 q 878 1243 845 1243 q 920 1228 907 1243 q 934 1187 934 1213 q 913 1129 934 1152 q 863 1105 892 1105 q 821 1120 838 1105 q 804 1164 804 1135 z "},"ẅ":{"ha":1004,"x_min":79,"x_max":1057,"o":"m 538 627 l 503 543 l 449 416 l 254 0 l 110 0 l 79 745 l 199 745 l 211 278 q 204 107 211 231 l 210 107 q 244 194 217 127 q 294 310 271 260 q 496 745 317 361 l 628 745 l 652 346 l 654 178 l 654 138 l 653 107 l 659 107 q 765 379 694 213 l 928 745 l 1057 745 l 713 0 l 566 0 l 545 403 l 543 500 l 543 627 l 538 627 m 393 935 q 413 991 393 969 q 467 1014 433 1014 q 522 958 522 1014 q 503 901 522 925 q 453 876 484 876 q 410 891 427 876 q 393 935 393 906 m 643 935 q 663 992 643 970 q 717 1014 684 1014 q 759 999 745 1014 q 772 958 772 983 q 752 900 772 923 q 701 876 731 876 q 660 891 676 876 q 643 935 643 906 z "}}}
